<svg width="23" height="26" viewBox="0 0 23 26" fill="none" xmlns="http://www.w3.org/2000/svg">
<path d="M22.9486 15.6586C22.9188 15.7356 21.9812 18.9259 21.2073 21.5768C20.4186 24.2584 20.24 26 20.24 26L9.45018 25.9383C9.45018 25.9383 10.0157 22.3165 10.492 19.7427C10.864 17.7238 11.504 16.2442 11.757 15.7048C11.757 15.6894 11.7718 15.6894 11.7718 15.674C11.8165 15.5815 11.8463 15.5199 11.8611 15.489C11.8611 15.4736 11.876 15.4736 11.876 15.4736C11.876 15.4736 10.8938 14.4256 9.61389 12.9923C8.12564 11.3278 6.25045 9.18555 5.07474 7.61353C2.9019 4.70067 0.0146981 0.015433 0.0146981 0.015433C0.0146981 0.015433 2.60425 1.57204 7.4857 2.38887C12.3671 3.20571 13.9298 2.14228 13.9298 2.14228C13.9298 2.14228 15.3734 5.88739 18.5582 10.0024C19.5703 11.297 20.3739 12.345 21.0139 13.1772C22.383 14.9188 22.9486 15.6586 22.9486 15.6586Z" fill="#F46742"/>
<path d="M22.9488 15.6585C22.9339 15.7356 21.9814 18.9259 21.2075 21.5767C20.4188 24.2584 20.2402 25.9999 20.2402 25.9999L9.4504 25.9383C9.4504 25.9383 10.0159 22.3165 10.4922 19.7427C10.8642 17.7237 11.5042 16.2442 11.7572 15.7048C11.7572 15.6893 11.7721 15.6893 11.7721 15.6739C11.8167 15.5815 11.8465 15.5198 11.8614 15.489C11.8614 15.4736 11.8762 15.4736 11.8762 15.4736C11.8762 15.4736 15.0313 16.4753 18.3948 16.4753C21.7135 16.4599 22.919 15.6739 22.9488 15.6585Z" fill="#F0492F"/>
<path d="M21.014 13.1464C20.5973 13.5471 19.8383 14.0403 18.5287 14.2407C18.4245 14.2561 18.3203 14.2715 18.2161 14.2869C17.7994 14.3331 17.3232 14.3639 16.7874 14.3331C15.7903 14.3023 14.8229 14.1944 13.9597 14.0557C13.8258 14.0403 13.6919 14.0095 13.5579 13.9941C11.2809 13.5933 9.6736 13.0077 9.59919 12.9769C8.11094 11.3124 6.23575 9.17012 5.06004 7.5981C2.8872 4.68524 0 0 0 0C0 0 1.47336 0.878482 4.27126 1.66449C4.37544 1.69532 4.4945 1.72614 4.59868 1.75696C5.44698 1.98814 6.39946 2.1885 7.45611 2.37344C7.94723 2.4505 8.40859 2.51215 8.84018 2.5738C8.94436 2.58921 9.04854 2.58921 9.13783 2.60462C12.6947 2.94369 13.9002 2.12685 13.9002 2.12685C13.9002 2.12685 15.3438 5.87196 18.5287 9.98695C19.5704 11.2816 20.3741 12.3296 21.014 13.1464Z" fill="#F7804C"/>
<path d="M16.2074 16.3058L16.1479 16.3983C16.133 16.4291 14.6299 18.9721 13.7518 21.1143C12.8589 23.272 12.0255 25.8766 12.0106 25.9075L11.7873 25.8304C11.8022 25.7996 12.6356 23.1795 13.5435 21.0219C14.3471 19.08 15.627 16.8298 15.9098 16.352C15.6865 16.1517 14.9722 15.489 13.5881 13.994C12.8738 13.2234 11.9659 12.237 10.8646 10.9887C7.73932 7.44393 5.12 3.05152 4.31635 1.66444C4.42053 1.69526 4.53958 1.72609 4.64376 1.75691C5.56647 3.34434 8.06673 7.45934 11.0432 10.8191C12.2636 12.2062 13.2309 13.2696 13.9751 14.0557C15.5228 15.6893 16.133 16.2133 16.133 16.2287L16.2074 16.3058Z" fill="#EA3D2A"/>
<path d="M20.8802 16.3212L20.8057 16.4291C20.7909 16.4599 18.8859 19.2957 17.7846 21.6384C16.6833 23.9656 16.1475 25.8767 16.1475 25.8921L15.9094 25.8304C15.9094 25.815 16.4452 23.8731 17.5614 21.5305C18.5585 19.4344 20.1956 16.9223 20.5379 16.3983C20.2849 16.1979 19.5259 15.5815 18.2162 14.3023C17.3679 13.4854 16.2964 12.3758 14.9718 10.9425C11.8614 7.55183 9.61413 3.88378 8.85513 2.57376C8.95931 2.58918 9.06348 2.58918 9.15278 2.60459C9.9862 4.02249 12.159 7.53642 15.1355 10.7729C16.5196 12.2833 17.6507 13.4238 18.5138 14.256C20.0319 15.7202 20.7611 16.2442 20.7611 16.2596L20.8802 16.3212Z" fill="#EA3D2A"/>
</svg>
