<svg width="154" height="134" viewBox="0 0 154 134" fill="none" xmlns="http://www.w3.org/2000/svg">
<path d="M116.488 50.6962L110.163 51.9975L113.796 68.8011L120.122 67.4997L116.488 50.6962Z" fill="#FFBA7C"/>
<path d="M113.798 69.0804C113.732 69.08 113.667 69.0568 113.616 69.0149C113.565 68.9729 113.53 68.9149 113.519 68.8507L109.885 52.0498C109.876 52.0141 109.874 51.9767 109.881 51.9402C109.887 51.9038 109.902 51.8692 109.924 51.8388C109.944 51.8073 109.971 51.7801 110.003 51.7588C110.035 51.7375 110.07 51.7225 110.108 51.7147L116.433 50.4113C116.47 50.4042 116.508 50.4044 116.545 50.4119C116.582 50.4193 116.618 50.4339 116.649 50.4548C116.681 50.4739 116.709 50.4992 116.731 50.529C116.753 50.5589 116.768 50.5927 116.776 50.6286L120.409 67.4357C120.425 67.5088 120.41 67.5849 120.368 67.6475C120.327 67.7102 120.261 67.7544 120.187 67.7708L113.862 69.0742L113.798 69.0804ZM110.509 52.2112L114.028 68.4597L119.754 67.2743L116.242 51.0258L110.509 52.2112Z" fill="#231F20"/>
<path d="M114.46 48.1894L110.993 48.9032C110.611 49.2708 110.332 49.7264 110.179 50.2277C110.027 50.729 110.007 51.2597 110.121 51.7706L110.013 52.025L116.337 50.7217L116.445 50.4734C116.335 49.9618 116.096 49.4851 115.749 49.0863C115.403 48.6875 114.96 48.3793 114.46 48.1894Z" fill="white"/>
<path d="M110.044 52.3105C110 52.3108 109.957 52.3014 109.917 52.2832C109.878 52.2649 109.843 52.2382 109.815 52.205C109.783 52.164 109.762 52.1154 109.756 52.0642C109.749 52.0129 109.756 51.9609 109.777 51.9133L109.847 51.7395C109.745 51.1941 109.78 50.6327 109.948 50.1032C110.116 49.5736 110.414 49.0916 110.814 48.6983C110.856 48.6629 110.907 48.6374 110.961 48.6239L114.428 47.9101C114.482 47.8946 114.54 47.8946 114.594 47.9101C115.138 48.1154 115.622 48.4499 116.001 48.8833C116.38 49.3168 116.642 49.8356 116.763 50.3927C116.779 50.4496 116.779 50.5096 116.763 50.5665L116.655 50.8148C116.637 50.8574 116.609 50.8951 116.572 50.9243C116.535 50.9536 116.492 50.9735 116.445 50.9823L110.121 52.2857L110.044 52.3105ZM111.171 49.1576C110.856 49.4859 110.625 49.8815 110.496 50.3126C110.366 50.7437 110.343 51.1984 110.426 51.6402L116.153 50.3989C116.045 49.9639 115.834 49.5596 115.537 49.2188C115.24 48.8781 114.864 48.6105 114.441 48.4377L111.171 49.1576Z" fill="#231F20"/>
<path d="M113.97 45.952L110.39 46.6885L110.874 48.9294L114.454 48.1929L113.97 45.952Z" fill="white"/>
<path d="M110.878 49.2073C110.811 49.2063 110.747 49.1839 110.695 49.1434C110.644 49.1029 110.607 49.0468 110.591 48.9839L110.108 46.7433C110.101 46.707 110.101 46.6697 110.108 46.6335C110.116 46.5972 110.131 46.5628 110.152 46.5323C110.17 46.4997 110.196 46.4716 110.227 46.45C110.258 46.4285 110.293 46.4142 110.331 46.4082L113.913 45.6696C113.988 45.6548 114.066 45.6693 114.13 45.7099C114.194 45.7505 114.24 45.814 114.256 45.8868L114.74 48.1274C114.749 48.1642 114.751 48.2025 114.744 48.2399C114.738 48.2773 114.723 48.313 114.702 48.3446C114.681 48.3754 114.654 48.4018 114.622 48.422C114.59 48.4423 114.555 48.4561 114.517 48.4625L110.935 49.2011L110.878 49.2073ZM110.738 46.9047L111.1 48.5866L114.116 47.966L113.747 46.284L110.738 46.9047Z" fill="#231F20"/>
<path d="M78.4404 117.671C78.4404 117.671 80.5911 121.587 80.8965 122.071C81.2019 122.555 92.3495 115.747 91.9359 114.754C91.5223 113.761 83.6006 115.008 83.6006 115.008L78.4404 117.671Z" fill="white"/>
<path d="M80.9473 122.375C80.8875 122.38 80.8274 122.368 80.7743 122.341C80.7213 122.313 80.6775 122.271 80.6483 122.22C80.3429 121.736 78.275 117.963 78.1859 117.801C78.1572 117.731 78.1572 117.654 78.1859 117.584C78.2125 117.513 78.2645 117.453 78.3322 117.416L83.4924 114.76C83.5194 114.743 83.5499 114.733 83.5815 114.729C86.6229 114.251 91.7895 113.606 92.2286 114.648C92.7758 115.939 83.5179 121.258 82.2199 121.91C81.8313 122.145 81.3988 122.304 80.9473 122.375ZM78.8349 117.783C79.2803 118.596 80.661 121.103 81.0619 121.792C82.4426 121.419 91.2423 115.933 91.6495 114.847C91.1532 114.425 87.1956 114.735 83.6961 115.281L78.8349 117.783Z" fill="#231F20"/>
<path d="M66.9745 77.6515L83.6004 115.008L78.4402 117.671L56.0305 78.2349L66.9745 77.6515Z" fill="white"/>
<path d="M78.4406 117.95C78.3889 117.951 78.3379 117.938 78.2931 117.913C78.2483 117.888 78.2113 117.851 78.1861 117.807L55.7763 78.3715C55.7545 78.3291 55.7431 78.2823 55.7431 78.2349C55.7431 78.1875 55.7545 78.1408 55.7763 78.0984C55.8007 78.0558 55.8355 78.0199 55.8778 77.9939C55.92 77.9679 55.9683 77.9526 56.0181 77.9494L66.9621 77.366C67.0213 77.3639 67.0798 77.3794 67.1298 77.4105C67.1798 77.4415 67.2189 77.4866 67.2421 77.5398L83.868 114.897C83.8986 114.962 83.9017 115.036 83.8767 115.103C83.8517 115.17 83.8006 115.226 83.7344 115.256L78.5742 117.919C78.5337 117.942 78.4873 117.953 78.4406 117.95ZM56.5144 78.477L78.5551 117.274L83.2254 114.865L66.7776 77.9432L56.5144 78.477Z" fill="#231F20"/>
<path d="M42.599 61.7195C42.3 62.7498 62.4636 90.9644 62.4636 90.9644L72.1096 85.1924C72.1096 85.1924 63.4817 60.2734 58.6841 57.8281C53.8866 55.3827 43.4962 58.6163 42.599 61.7195Z" fill="#231F20"/>
<path d="M62.4636 91.2933C62.412 91.2934 62.3611 91.281 62.3155 91.2572C62.27 91.2333 62.2312 91.1988 62.2028 91.1568C56.1136 82.6415 41.9882 62.7125 42.2936 61.6574C42.7517 60.081 45.106 58.8832 46.4676 58.306C50.228 56.7295 55.6809 55.9661 58.8305 57.5736C63.6853 60.0562 72.0587 84.0938 72.4087 85.1117C72.4337 85.1783 72.4341 85.2514 72.4097 85.3183C72.3853 85.3852 72.3376 85.4416 72.275 85.4779L62.6291 91.2437C62.5797 91.2748 62.5224 91.292 62.4636 91.2933ZM42.9172 61.7816C43.248 63.1967 54.7392 79.6314 62.5527 90.561L71.7278 85.0807C70.8307 82.5422 62.9218 60.3603 58.5378 58.1198C55.5664 56.6054 50.3425 57.3564 46.7221 58.877C44.6415 59.7521 43.2353 60.832 42.9172 61.7816Z" fill="#231F20"/>
<path d="M30.7195 134C24.6438 134 18.7045 132.243 13.6527 128.95C8.60089 125.657 4.66349 120.978 2.3384 115.502C0.0133122 110.027 -0.595039 104.002 0.59028 98.1893C1.7756 92.3767 4.70136 87.0375 8.99756 82.8469C13.2938 78.6562 18.7675 75.8023 24.7265 74.6461C30.6855 73.4899 36.8621 74.0833 42.4754 76.3513C48.0887 78.6193 52.8864 82.4599 56.2619 87.3876C59.6374 92.3153 61.4391 98.1087 61.4391 104.035C61.429 111.979 58.1892 119.595 52.4304 125.213C46.6715 130.83 38.8638 133.99 30.7195 134ZM30.7195 78.4149C25.5247 78.4149 20.4465 79.9175 16.1272 82.7327C11.8078 85.5479 8.44129 89.5492 6.45331 94.2307C4.46533 98.9122 3.94519 104.064 4.95865 109.033C5.97211 114.003 8.47367 118.568 12.147 122.151C15.8203 125.735 20.5004 128.175 25.5954 129.163C30.6904 130.152 35.9715 129.644 40.7709 127.705C45.5703 125.766 49.6725 122.482 52.5586 118.269C55.4447 114.056 56.9851 109.102 56.9851 104.035C56.9767 97.2428 54.2067 90.7309 49.2828 85.928C44.3589 81.125 37.683 78.4231 30.7195 78.4149Z" fill="#231F20"/>
<path d="M61.299 97.5867C61.0176 97.5858 60.7444 97.4939 60.5222 97.3255C60.3 97.157 60.1413 96.9215 60.071 96.6557C58.5143 90.7834 55.1442 85.52 50.4175 81.5789C45.6908 77.6378 39.8361 75.2097 33.647 74.6237C27.4579 74.0377 21.2337 75.3221 15.8182 78.3028C10.4026 81.2836 6.05765 85.8165 3.3722 91.2871C3.30586 91.4429 3.20767 91.5838 3.08363 91.7014C2.95958 91.8189 2.81228 91.9105 2.65071 91.9707C2.48915 92.0308 2.31672 92.0582 2.14394 92.0512C1.97116 92.0441 1.80167 92.0028 1.6458 91.9298C1.48994 91.8567 1.35097 91.7534 1.23739 91.6262C1.12381 91.499 1.038 91.3506 0.985202 91.19C0.932401 91.0293 0.91372 90.8599 0.930293 90.692C0.946866 90.5241 0.998347 90.3612 1.0816 90.2134C3.99183 84.283 8.7015 79.369 14.5719 76.138C20.4423 72.907 27.1894 71.5153 33.8982 72.1515C40.607 72.7878 46.9529 75.4212 52.0753 79.6947C57.1977 83.9683 60.8488 89.6751 62.5334 96.0413C62.6164 96.3598 62.5666 96.6974 62.3949 96.9801C62.2231 97.2628 61.9434 97.4676 61.6171 97.5494C61.513 97.574 61.4062 97.5865 61.299 97.5867Z" fill="#FFBA7C"/>
<path d="M30.7195 108.057C32.9966 108.057 34.8426 106.256 34.8426 104.035C34.8426 101.814 32.9966 100.013 30.7195 100.013C28.4424 100.013 26.5964 101.814 26.5964 104.035C26.5964 106.256 28.4424 108.057 30.7195 108.057Z" fill="#231F20"/>
<path d="M123.196 134C117.122 133.994 111.186 132.231 106.138 128.935C101.09 125.639 97.1578 120.957 94.8376 115.481C92.5174 110.005 91.9136 103.981 93.1025 98.1704C94.2914 92.3598 97.2197 87.0235 101.517 82.8359C105.815 78.6484 111.288 75.7976 117.247 74.6439C123.205 73.4902 129.38 74.0854 134.991 76.3543C140.602 78.6232 145.398 82.4639 148.772 87.3909C152.147 92.3179 153.947 98.11 153.947 104.035C153.937 111.985 150.693 119.605 144.927 125.224C139.162 130.842 131.346 133.998 123.196 134ZM123.196 78.4149C118.003 78.421 112.928 79.9289 108.612 82.7478C104.297 85.5667 100.936 89.5702 98.9525 94.2522C96.9694 98.9343 96.4538 104.085 97.4709 109.052C98.4879 114.02 100.992 118.582 104.667 122.162C108.341 125.742 113.021 128.179 118.115 129.165C123.21 130.152 128.489 129.642 133.287 127.702C138.084 125.762 142.184 122.478 145.069 118.266C147.954 114.053 149.493 109.101 149.493 104.035C149.485 97.2374 146.711 90.7209 141.78 85.917C136.849 81.1132 130.165 78.4149 123.196 78.4149Z" fill="#231F20"/>
<path d="M92.3815 105.276C92.044 105.276 91.7203 105.146 91.4816 104.913C91.243 104.68 91.1089 104.364 91.1089 104.035C91.1173 95.7366 94.5007 87.7804 100.516 81.9124C106.532 76.0444 114.689 72.7442 123.196 72.736C123.534 72.736 123.858 72.8668 124.096 73.0996C124.335 73.3323 124.469 73.6481 124.469 73.9773C124.469 74.3065 124.335 74.6222 124.096 74.855C123.858 75.0878 123.534 75.2186 123.196 75.2186C115.364 75.2268 107.855 78.2655 102.316 83.6678C96.7777 89.0702 93.6625 96.3951 93.654 104.035C93.654 104.364 93.52 104.68 93.2813 104.913C93.0427 105.146 92.719 105.276 92.3815 105.276Z" fill="#FFBA7C"/>
<path d="M123.196 108.057C125.474 108.057 127.319 106.256 127.319 104.035C127.319 101.814 125.474 100.013 123.196 100.013C120.919 100.013 119.073 101.814 119.073 104.035C119.073 106.256 120.919 108.057 123.196 108.057Z" fill="#231F20"/>
<path d="M124.043 105.276C123.736 105.276 123.44 105.168 123.209 104.972C119.574 101.763 116.51 97.9882 114.142 93.8007C111.4 88.7363 104.598 67.8701 101.837 59.1004C98.7698 67.9074 89.601 88.9783 69.9209 97.4439C69.6121 97.5773 69.2616 97.5855 68.9466 97.4667C68.6316 97.348 68.3778 97.1121 68.2411 96.8109C68.1044 96.5096 68.096 96.1678 68.2177 95.8605C68.3394 95.5532 68.5813 95.3057 68.8901 95.1724C92.3942 85.062 100.52 54.8676 100.596 54.5635C100.665 54.3012 100.819 54.068 101.037 53.8995C101.254 53.731 101.522 53.6364 101.799 53.6301C102.076 53.6237 102.348 53.7061 102.573 53.8645C102.799 54.0229 102.964 54.2488 103.046 54.5076C103.147 54.8303 113.086 86.5268 116.407 92.6401C118.634 96.5572 121.499 100.095 124.889 103.117C125.085 103.282 125.224 103.503 125.288 103.748C125.352 103.993 125.337 104.251 125.247 104.488C125.156 104.725 124.993 104.929 124.781 105.073C124.568 105.218 124.315 105.295 124.055 105.295L124.043 105.276Z" fill="#FFBA7C"/>
<path d="M72.4658 109.298C72.3853 109.304 72.3045 109.304 72.224 109.298C72.0041 109.256 71.7995 109.158 71.6308 109.015C71.462 108.871 71.3353 108.686 71.2633 108.479L58.8049 72.4815C58.7224 72.1773 58.7613 71.8539 58.9139 71.5767C59.0665 71.2994 59.3214 71.0891 59.6269 70.9881C59.9325 70.8872 60.266 70.9032 60.5599 71.033C60.8538 71.1628 61.0862 71.3966 61.2101 71.6871L72.9685 105.612L105.711 68.9935C105.817 68.8575 105.95 68.7441 106.102 68.6605C106.255 68.5769 106.423 68.5248 106.597 68.5075C106.771 68.4902 106.947 68.508 107.113 68.5599C107.28 68.6118 107.434 68.6966 107.565 68.809C107.697 68.9214 107.803 69.0591 107.877 69.2133C107.952 69.3676 107.993 69.5352 107.998 69.7057C108.003 69.8762 107.973 70.0459 107.907 70.2042C107.842 70.3625 107.745 70.506 107.62 70.6258L73.4266 108.889C73.3055 109.02 73.1571 109.124 72.9915 109.194C72.8258 109.265 72.6466 109.301 72.4658 109.298Z" fill="#FFBA7C"/>
<path d="M72.5039 109.298H72.3766L30.2741 105.276C30.0175 105.253 29.7744 105.154 29.5768 104.992C29.3793 104.831 29.2366 104.615 29.1676 104.373C29.0986 104.131 29.1067 103.874 29.1906 103.636C29.2746 103.399 29.4305 103.191 29.6378 103.042L62.2471 79.6562C62.5193 79.4729 62.8541 79.4002 63.1803 79.4535C63.5066 79.5068 63.7988 79.682 63.9949 79.9419C64.191 80.2018 64.2756 80.526 64.2308 80.8457C64.1861 81.1654 64.0154 81.4556 63.755 81.6547L33.8499 103.123L72.6629 106.847C73.0004 106.862 73.3177 107.008 73.5451 107.252C73.7724 107.496 73.8911 107.818 73.875 108.147C73.859 108.476 73.7096 108.786 73.4596 109.007C73.2096 109.229 72.8795 109.345 72.542 109.329L72.5039 109.298Z" fill="#FFBA7C"/>
<path d="M101.849 56.0965C101.597 56.0965 101.35 56.0233 101.141 55.8863C100.931 55.7492 100.768 55.5545 100.672 55.3268L98.2669 49.6107L92.7376 48.9404C92.5705 48.9204 92.409 48.8685 92.2625 48.7877C92.1159 48.7069 91.9871 48.5987 91.8834 48.4693C91.7797 48.3399 91.7032 48.1919 91.6581 48.0336C91.6131 47.8754 91.6005 47.7101 91.6209 47.547C91.6414 47.384 91.6946 47.2266 91.7775 47.0836C91.8603 46.9406 91.9712 46.815 92.1039 46.7139C92.2365 46.6127 92.3883 46.538 92.5505 46.4941C92.7128 46.4502 92.8823 46.4378 93.0494 46.4578L99.3167 47.215C99.5417 47.2417 99.7553 47.3266 99.9354 47.4608C100.115 47.595 100.256 47.7737 100.341 47.9784L103.045 54.3835C103.125 54.572 103.155 54.7767 103.134 54.9795C103.113 55.1823 103.042 55.377 102.925 55.5463C102.809 55.7156 102.652 55.8544 102.467 55.9503C102.283 56.0463 102.077 56.0965 101.868 56.0965H101.849Z" fill="#231F20"/>
<path d="M64.7161 67.3053C64.7161 67.3053 48.3256 66.1323 48.3256 67.3053C48.3256 68.4784 50.4762 72.4319 53.3458 72.6615C56.2154 72.8912 63.1381 71.3271 64.6906 69.7258C66.2432 68.1246 64.7161 67.3053 64.7161 67.3053Z" fill="#D1D3D4"/>
<path d="M53.9566 72.9594C53.7402 72.9594 53.5303 72.9594 53.3203 72.9594C50.228 72.705 48.0392 68.5777 48.0392 67.3177C48.039 67.2563 48.0526 67.1957 48.079 67.1399C48.1054 67.0842 48.1439 67.0347 48.1919 66.995C49.299 65.9896 62.1455 66.8523 64.7351 67.0322C64.7773 67.038 64.8181 67.0506 64.856 67.0695C65.0656 67.1859 65.2473 67.3447 65.3889 67.5353C65.5305 67.7258 65.6286 67.9437 65.6768 68.1742C65.702 68.5039 65.6471 68.8348 65.5166 69.14C65.3862 69.4451 65.1838 69.716 64.926 69.9307C63.3671 71.5257 57.0616 72.9594 53.9566 72.9594ZM48.65 67.3736C48.7327 68.4473 50.7243 72.165 53.3967 72.3822C56.2663 72.6118 63.049 71.0292 64.5061 69.5272C64.6941 69.3768 64.8454 69.1872 64.9489 68.9725C65.0524 68.7578 65.1054 68.5232 65.1042 68.2859C65.0746 68.1488 65.0171 68.0188 64.9351 67.9037C64.8532 67.7885 64.7484 67.6906 64.627 67.6156C57.3479 67.0571 49.4899 66.8461 48.65 67.3674V67.3736Z" fill="#231F20"/>
<path d="M72.4659 108.678C72.3246 108.675 72.1881 108.627 72.0778 108.541L54.262 94.8372C54.1299 94.7357 54.0444 94.5873 54.0242 94.4245C54.0039 94.2617 54.0505 94.0977 54.1538 93.9683C54.2054 93.9036 54.2696 93.8496 54.3428 93.8092C54.4159 93.7689 54.4965 93.743 54.5799 93.7332C54.6633 93.7234 54.7479 93.7298 54.8287 93.752C54.9096 93.7743 54.9851 93.8119 55.051 93.8628L72.8668 107.567C72.9719 107.646 73.0488 107.756 73.0867 107.88C73.1245 108.005 73.1215 108.138 73.0779 108.26C73.0344 108.383 72.9526 108.489 72.8439 108.564C72.7353 108.639 72.6053 108.679 72.4723 108.678H72.4659Z" fill="#231F20"/>
<path d="M86.2028 119.744C86.0541 119.744 85.9101 119.694 85.7956 119.601L72.0647 108.535C71.9943 108.485 71.9352 108.422 71.8909 108.349C71.8466 108.276 71.818 108.195 71.807 108.111C71.796 108.027 71.8028 107.942 71.8269 107.86C71.851 107.779 71.892 107.703 71.9473 107.638C72.0026 107.572 72.071 107.518 72.1483 107.48C72.2257 107.441 72.3103 107.419 72.3971 107.413C72.4838 107.408 72.5707 107.419 72.6525 107.448C72.7343 107.477 72.8093 107.521 72.8728 107.579L86.61 118.645C86.6744 118.697 86.7277 118.761 86.7667 118.834C86.8058 118.906 86.8298 118.985 86.8375 119.066C86.8452 119.147 86.8364 119.229 86.8115 119.307C86.7867 119.385 86.7463 119.458 86.6927 119.52C86.6329 119.59 86.558 119.647 86.4733 119.685C86.3886 119.724 86.2963 119.744 86.2028 119.744Z" fill="#231F20"/>
<path d="M62.1293 96.4391L54.1547 91.0469C53.7157 90.7501 53.114 90.8554 52.8107 91.2822C52.5074 91.709 52.6174 92.2956 53.0563 92.5924L61.0309 97.9847C61.4699 98.2815 62.0716 98.1761 62.3749 97.7493C62.6782 97.3226 62.5682 96.736 62.1293 96.4391Z" fill="#D1D3D4"/>
<path d="M61.5852 98.4432C61.3307 98.4419 61.0825 98.3662 60.8725 98.226L52.8936 92.8325C52.6231 92.6453 52.4381 92.3625 52.3782 92.0443C52.3458 91.8858 52.3471 91.7224 52.3822 91.5644C52.4172 91.4064 52.4852 91.2571 52.5818 91.1258C52.7726 90.8595 53.0627 90.6768 53.3899 90.6168C53.7163 90.5618 54.0518 90.633 54.3252 90.8154L62.3233 96.2089C62.5342 96.3629 62.6909 96.5769 62.7718 96.8215C62.8527 97.0661 62.8538 97.3292 62.7749 97.5744C62.696 97.8196 62.541 98.0348 62.3313 98.1905C62.1216 98.3461 61.8676 98.4344 61.6043 98.4432H61.5852ZM61.2034 97.7605C61.3514 97.859 61.5332 97.8967 61.7095 97.8654C61.8858 97.834 62.0423 97.7361 62.1451 97.5929C62.2462 97.4485 62.2848 97.2711 62.2526 97.0992C62.2205 96.9272 62.1201 96.7746 61.9733 96.6743L53.9944 91.2809C53.8474 91.1827 53.6665 91.1451 53.4913 91.1765C53.316 91.2079 53.1606 91.3057 53.059 91.4485C53.0059 91.5179 52.9683 91.5974 52.9486 91.6818C52.9289 91.7663 52.9275 91.8538 52.9445 91.9388C52.9602 92.0237 52.993 92.1048 53.0411 92.1772C53.0891 92.2497 53.1515 92.3121 53.2245 92.3608L61.2034 97.7605Z" fill="#231F20"/>
<path d="M89.8274 116.667L80.9347 122.052C80.4808 122.327 80.3406 122.907 80.6214 123.348C80.9021 123.789 81.4976 123.924 81.9515 123.649L90.8442 118.265C91.298 117.99 91.4383 117.41 91.1575 116.968C90.8767 116.527 90.2812 116.392 89.8274 116.667Z" fill="#D1D3D4"/>
<path d="M81.4438 124.07C81.3475 124.069 81.2516 124.058 81.1574 124.039C80.8323 123.962 80.5511 123.764 80.3748 123.486C80.2053 123.209 80.1531 122.879 80.2291 122.565C80.3051 122.251 80.5034 121.978 80.782 121.804L89.6899 116.411C89.9699 116.292 90.2843 116.276 90.5757 116.364C90.8671 116.453 91.1161 116.641 91.2774 116.894C91.4386 117.147 91.5013 117.448 91.454 117.742C91.4067 118.036 91.2526 118.304 91.0198 118.496L82.1119 123.883C81.9122 124.007 81.6802 124.072 81.4438 124.07ZM90.3517 116.796C90.2276 116.795 90.1059 116.829 90.0017 116.895L81.0938 122.282C81.0186 122.328 80.9535 122.387 80.9021 122.458C80.8508 122.528 80.8143 122.608 80.7948 122.692C80.7723 122.776 80.768 122.863 80.7822 122.949C80.7965 123.034 80.8289 123.116 80.8775 123.188C80.9203 123.266 80.9795 123.333 81.0512 123.387C81.1228 123.44 81.2053 123.478 81.2932 123.498C81.381 123.518 81.4722 123.52 81.5607 123.503C81.6492 123.486 81.733 123.45 81.8064 123.399L90.7143 118.012C90.8525 117.943 90.9619 117.829 91.0241 117.69C91.0862 117.551 91.0973 117.396 91.0554 117.25C91.0135 117.104 90.9212 116.976 90.7941 116.889C90.6671 116.802 90.513 116.76 90.358 116.771L90.3517 116.796Z" fill="#231F20"/>
<path d="M108.937 68.1618H106.863C106.821 68.1679 106.779 68.1651 106.738 68.1537C106.698 68.1422 106.661 68.1225 106.629 68.0956C106.597 68.0688 106.571 68.0357 106.554 67.9984C106.536 67.961 106.527 67.9205 106.527 67.8794C106.527 67.8384 106.536 67.7978 106.554 67.7605C106.571 67.7232 106.597 67.69 106.629 67.6632C106.661 67.6364 106.698 67.6166 106.738 67.6052C106.779 67.5938 106.821 67.591 106.863 67.597H108.969C109.011 67.591 109.053 67.5938 109.093 67.6052C109.134 67.6166 109.171 67.6364 109.203 67.6632C109.235 67.69 109.261 67.7232 109.278 67.7605C109.296 67.7978 109.305 67.8384 109.305 67.8794C109.305 67.9205 109.296 67.961 109.278 67.9984C109.261 68.0357 109.235 68.0688 109.203 68.0956C109.171 68.1225 109.134 68.1422 109.093 68.1537C109.053 68.1651 109.011 68.1679 108.969 68.1618H108.937Z" fill="#D1D3D4"/>
<path d="M123.355 70.0114L109.153 69.1673C109.091 69.163 109.032 69.1389 108.984 69.0985C108.937 69.0582 108.905 69.0038 108.893 68.9438L105.59 54.5262C105.577 54.4433 105.598 54.3587 105.648 54.2904C105.675 54.258 105.708 54.2318 105.747 54.2135C105.785 54.1953 105.828 54.1855 105.87 54.1849L127.79 53.7752C127.836 53.7698 127.883 53.7775 127.925 53.7973C127.966 53.8171 128.001 53.8483 128.026 53.887C128.052 53.9225 128.069 53.9632 128.077 54.0061C128.084 54.0491 128.082 54.0932 128.07 54.1352L123.616 69.8065C123.599 69.8626 123.565 69.9123 123.519 69.9489C123.472 69.9856 123.415 70.0073 123.355 70.0114ZM109.408 68.6397L123.139 69.4341L127.421 54.3524L106.252 54.7434L109.408 68.6397Z" fill="#D1D3D4"/>
<path d="M112.761 69.3969C112.688 69.3972 112.617 69.3705 112.563 69.3223C112.509 69.274 112.475 69.2076 112.469 69.1362L111.272 54.3835C111.269 54.3463 111.273 54.3088 111.285 54.2732C111.296 54.2376 111.315 54.2047 111.34 54.1763C111.365 54.148 111.395 54.1248 111.43 54.1081C111.464 54.0915 111.501 54.0817 111.54 54.0794C111.616 54.0742 111.692 54.0986 111.75 54.1474C111.808 54.1962 111.845 54.2654 111.851 54.34L113.048 69.0928C113.053 69.1676 113.028 69.2413 112.978 69.2982C112.928 69.3551 112.857 69.3906 112.78 69.3969H112.761Z" fill="#D1D3D4"/>
<path d="M115.968 69.5831C115.93 69.5815 115.892 69.5725 115.858 69.5566C115.823 69.5407 115.792 69.5182 115.767 69.4904C115.741 69.4627 115.722 69.4302 115.709 69.3949C115.697 69.3597 115.692 69.3224 115.695 69.2852L116.573 54.3462C116.566 54.3056 116.569 54.2642 116.581 54.2248C116.593 54.1854 116.613 54.1489 116.64 54.1178C116.668 54.0867 116.702 54.0618 116.74 54.0447C116.778 54.0276 116.82 54.0188 116.862 54.0188C116.904 54.0188 116.946 54.0276 116.984 54.0447C117.022 54.0618 117.056 54.0867 117.084 54.1178C117.111 54.1489 117.132 54.1854 117.143 54.2248C117.155 54.2642 117.158 54.3056 117.152 54.3462L116.274 69.2852C116.276 69.325 116.27 69.365 116.256 69.4024C116.242 69.4398 116.219 69.4737 116.19 69.502C116.161 69.5302 116.127 69.5521 116.088 69.566C116.05 69.58 116.009 69.5859 115.968 69.5831Z" fill="#D1D3D4"/>
<path d="M119.468 69.7879H119.411C119.335 69.773 119.268 69.7293 119.225 69.6665C119.182 69.6037 119.167 69.5268 119.182 69.4528L122.401 54.1042C122.409 54.0679 122.423 54.0335 122.445 54.0028C122.466 53.9721 122.493 53.9457 122.525 53.9253C122.556 53.9048 122.592 53.8906 122.629 53.8835C122.666 53.8764 122.704 53.8765 122.742 53.8839C122.779 53.8912 122.814 53.9056 122.846 53.9263C122.877 53.9469 122.904 53.9734 122.925 54.0043C122.946 54.0351 122.96 54.0696 122.968 54.106C122.975 54.1423 122.975 54.1796 122.967 54.2159L119.748 69.5645C119.735 69.6275 119.7 69.6841 119.649 69.7248C119.598 69.7655 119.534 69.7878 119.468 69.7879Z" fill="#D1D3D4"/>
<path d="M126.378 59.3611C106.653 59.0818 106.615 58.9576 106.545 58.6659C106.53 58.592 106.544 58.5151 106.586 58.4515C106.627 58.3878 106.692 58.3423 106.768 58.3246C106.825 58.3057 106.888 58.3057 106.946 58.3246C107.767 58.4611 118.971 58.6659 126.384 58.7714C126.461 58.7746 126.534 58.8068 126.587 58.8611C126.641 58.9155 126.67 58.9879 126.67 59.0632C126.672 59.1017 126.666 59.1401 126.652 59.1762C126.638 59.2123 126.617 59.2453 126.589 59.2731C126.562 59.3009 126.529 59.3231 126.493 59.3382C126.456 59.3533 126.417 59.3611 126.378 59.3611Z" fill="#D1D3D4"/>
<path d="M125.347 63.0105L107.659 62.5015C107.62 62.5016 107.582 62.494 107.547 62.4791C107.512 62.4642 107.48 62.4425 107.453 62.4151C107.427 62.3877 107.407 62.3554 107.394 62.3201C107.381 62.2848 107.376 62.2472 107.379 62.2098C107.38 62.1368 107.411 62.0674 107.465 62.0163C107.518 61.9653 107.59 61.9367 107.665 61.9368L125.353 62.4395C125.431 62.4395 125.505 62.4695 125.56 62.5231C125.615 62.5766 125.646 62.6492 125.646 62.725C125.646 62.8007 125.615 62.8733 125.56 62.9268C125.505 62.9804 125.431 63.0105 125.353 63.0105H125.347Z" fill="#D1D3D4"/>
<path d="M124.335 66.5606L108.428 65.8903C108.391 65.8887 108.354 65.8799 108.32 65.8643C108.286 65.8488 108.255 65.8269 108.23 65.7998C108.204 65.7727 108.184 65.741 108.172 65.7064C108.159 65.6719 108.153 65.6352 108.155 65.5986C108.155 65.5611 108.163 65.524 108.178 65.4896C108.193 65.4552 108.215 65.4242 108.243 65.3986C108.271 65.3729 108.305 65.3532 108.341 65.3407C108.377 65.3281 108.415 65.3229 108.454 65.3255L124.361 65.9896C124.438 65.9896 124.513 66.0196 124.568 66.0732C124.623 66.1267 124.653 66.1993 124.653 66.2751C124.653 66.3508 124.623 66.4234 124.568 66.4769C124.513 66.5305 124.438 66.5606 124.361 66.5606H124.335Z" fill="#D1D3D4"/>
<path d="M47.0529 47.184C47.0529 47.184 41.5428 55.5006 41.1801 61.0244C40.4038 72.6801 75.3101 71.234 75.3101 71.234L78.8923 61.0244L64.5315 55.2834L47.0529 47.184Z" fill="#231F20"/>
<path d="M71.5304 71.6064C64.1178 71.6064 48.1153 70.9547 42.707 65.5613C42.0806 64.9767 41.593 64.2653 41.2787 63.4772C40.9643 62.6891 40.8307 61.8434 40.8872 60.9996C41.2563 55.4634 46.5819 47.3453 46.811 47.0164C46.8519 46.9528 46.9154 46.9062 46.9894 46.8856C47.0635 46.865 47.1427 46.8718 47.2118 46.9047L64.6968 55.0041L79.0385 60.7327C79.114 60.7631 79.1745 60.8207 79.2077 60.8935C79.2409 60.9662 79.2441 61.0487 79.2166 61.1237L75.6344 71.3333C75.6156 71.3935 75.5778 71.4463 75.5263 71.4842C75.4749 71.5221 75.4125 71.5432 75.3481 71.5444C75.1126 71.5568 73.6874 71.6064 71.5304 71.6064ZM47.1927 47.5812C46.3147 48.9528 41.8416 56.1709 41.5235 61.043C41.474 61.7989 41.5947 62.5562 41.8772 63.2617C42.1597 63.9672 42.5971 64.6038 43.1587 65.1269C49.6042 71.5568 72.6184 71.0106 75.1063 70.9299L78.5231 61.1982L64.4423 55.5689L47.1927 47.5812Z" fill="#231F20"/>
<path d="M78.9175 61.0244C78.9175 61.0244 94.4554 64.0097 91.9485 68.4722C89.4416 72.9346 61.299 90.2631 61.299 90.2631L57.1504 87.166L76.3215 68.4908L78.9175 61.0244Z" fill="white"/>
<path d="M61.2989 90.5175C61.237 90.5171 61.1769 90.4975 61.1271 90.4617L56.9786 87.4143C56.9452 87.3905 56.9176 87.3598 56.8977 87.3244C56.8779 87.289 56.8664 87.2497 56.864 87.2095C56.8617 87.1687 56.8679 87.1279 56.8821 87.0895C56.8963 87.0512 56.9183 87.016 56.9467 86.986L76.0351 68.3356L78.6375 60.9313C78.6582 60.8652 78.7039 60.8092 78.7653 60.7746C78.8267 60.74 78.8993 60.7295 78.9684 60.7451C79.4456 60.8382 90.6059 63.0167 92.2857 66.5419C92.4453 66.8618 92.5208 67.2154 92.5053 67.5708C92.4897 67.9262 92.3836 68.2723 92.1966 68.5777C89.6515 73.0153 62.6033 89.7603 61.4516 90.4741C61.4048 90.4998 61.3525 90.5147 61.2989 90.5175ZM57.5958 87.166L61.318 89.8969C63.6595 88.4383 89.3524 72.4443 91.6939 68.3046C91.8357 68.0773 91.9164 67.8188 91.9286 67.553C91.9409 67.2873 91.8842 67.0228 91.7639 66.784C90.3196 63.7925 80.7754 61.7195 79.1083 61.3533L76.5632 68.5839C76.5436 68.6213 76.5202 68.6566 76.4932 68.6894L57.5958 87.166Z" fill="#231F20"/>
<path d="M57.1505 87.166C57.1505 87.166 53.7146 88.9907 54.0773 90.2134C54.44 91.4361 64.824 98.7783 64.9449 97.4936C65.0658 96.2088 61.2991 90.2134 61.2991 90.2134L57.1505 87.166Z" fill="white"/>
<path d="M64.7413 97.9467C62.9279 97.9467 54.1345 91.4671 53.7973 90.3127C53.3964 88.9349 56.406 87.2591 57.0168 86.9364C57.0635 86.9077 57.1176 86.8925 57.1727 86.8925C57.2279 86.8925 57.2819 86.9077 57.3286 86.9364L61.4772 89.9838C61.5051 90.004 61.5289 90.0293 61.5471 90.0582C61.9416 90.6789 65.3648 96.1778 65.2312 97.506C65.2235 97.6143 65.175 97.7159 65.0952 97.7915C65.0153 97.8671 64.9097 97.9113 64.7985 97.9156L64.7413 97.9467ZM57.1059 87.526C55.7825 88.2522 54.1345 89.4872 54.3318 90.1575C54.6563 91.2685 63.2396 97.2577 64.6267 97.3819C64.5504 96.3454 62.4379 92.6401 61.0572 90.4244L57.1059 87.526Z" fill="#231F20"/>
<path d="M72.1096 111.588C73.8912 111.588 75.3355 110.18 75.3355 108.442C75.3355 106.704 73.8912 105.295 72.1096 105.295C70.328 105.295 68.8837 106.704 68.8837 108.442C68.8837 110.18 70.328 111.588 72.1096 111.588Z" fill="#231F20"/>
<path d="M72.1095 111.899C71.4085 111.899 70.7233 111.696 70.1405 111.316C69.5577 110.936 69.1034 110.396 68.8352 109.765C68.5669 109.133 68.4967 108.438 68.6335 107.767C68.7702 107.097 69.1078 106.481 69.6034 105.997C70.0991 105.514 70.7306 105.185 71.418 105.051C72.1055 104.918 72.8181 104.986 73.4657 105.248C74.1133 105.51 74.6668 105.953 75.0562 106.521C75.4457 107.09 75.6535 107.758 75.6535 108.442C75.6518 109.358 75.2779 110.236 74.6136 110.884C73.9494 111.532 73.0489 111.897 72.1095 111.899ZM72.1095 105.605C71.5343 105.605 70.9722 105.772 70.494 106.083C70.0158 106.395 69.6431 106.838 69.423 107.356C69.2029 107.875 69.1453 108.445 69.2575 108.995C69.3697 109.545 69.6467 110.051 70.0533 110.447C70.46 110.844 70.9781 111.114 71.5422 111.224C72.1062 111.333 72.6909 111.277 73.2222 111.062C73.7535 110.848 74.2077 110.484 74.5272 110.018C74.8467 109.551 75.0172 109.003 75.0172 108.442C75.0156 107.69 74.7087 106.97 74.1637 106.438C73.6188 105.906 72.8801 105.607 72.1095 105.605Z" fill="#231F20"/>
<path d="M72.1096 115.716C70.6278 115.717 69.179 115.289 67.9465 114.487C66.714 113.685 65.7531 112.544 65.1855 111.209C64.6179 109.874 64.469 108.405 64.7578 106.987C65.0465 105.57 65.7599 104.267 66.8077 103.245C67.8554 102.223 69.1904 101.527 70.6437 101.246C72.097 100.964 73.6033 101.109 74.972 101.663C76.3407 102.217 77.5103 103.154 78.3327 104.356C79.1551 105.558 79.5934 106.972 79.5922 108.417C79.5905 110.352 78.8016 112.208 77.3987 113.576C75.9958 114.945 74.0936 115.714 72.1096 115.716ZM72.1096 101.683C70.7441 101.683 69.4094 102.078 68.2741 102.818C67.1388 103.558 66.254 104.609 65.7314 105.84C65.2089 107.07 65.0722 108.424 65.3386 109.731C65.605 111.037 66.2625 112.237 67.2279 113.179C68.1934 114.12 69.4235 114.762 70.7627 115.022C72.1019 115.281 73.49 115.148 74.7515 114.638C76.0129 114.129 77.0911 113.266 77.8497 112.158C78.6083 111.051 79.0132 109.749 79.0132 108.417C79.0031 106.636 78.2717 104.932 76.9785 103.675C75.6853 102.418 73.9351 101.711 72.1096 101.708V101.683Z" fill="#231F20"/>
<path d="M97.3697 81.4375C97.1906 81.4371 97.0135 81.3999 96.8502 81.3283C96.6868 81.2566 96.5408 81.1521 96.4216 81.0216L92.2286 76.4599C92.1166 76.3376 92.0304 76.195 91.9749 76.0403C91.9194 75.8855 91.8958 75.7217 91.9052 75.558C91.9147 75.3943 91.9571 75.234 92.03 75.0864C92.103 74.9387 92.205 74.8064 92.3304 74.6972C92.4557 74.588 92.6019 74.5039 92.7605 74.4498C92.9192 74.3957 93.0872 74.3726 93.255 74.3818C93.4228 74.391 93.5871 74.4324 93.7385 74.5036C93.8899 74.5747 94.0254 74.6743 94.1374 74.7965L98.3432 79.3645C98.568 79.6092 98.6842 79.9308 98.6663 80.2588C98.6484 80.5869 98.4979 80.8947 98.2478 81.1147C98.0079 81.3275 97.6938 81.4429 97.3697 81.4375Z" fill="#FFBA7C"/>
<path d="M57.7298 1.63473C56.4106 0.941273 54.9598 0.518821 53.4667 0.393438C51.3034 0.151386 47.8229 0.331375 45.8886 1.52922C43.5853 2.9505 43.299 6.10339 41.3329 7.87844C39.2459 9.77761 35.9882 9.88933 33.2522 9.11973C34.254 10.3543 35.5177 11.363 36.9565 12.0768C38.3954 12.7905 39.9754 13.1924 41.5883 13.2549C43.2013 13.3173 44.809 13.039 46.3013 12.4388C47.7937 11.8386 49.1353 10.9308 50.2344 9.77761C52.226 7.68604 53.104 5.78686 56.1964 6.28337C57.558 6.50681 60.803 8.45564 61.4711 6.28337C61.9929 4.54556 58.9896 2.34227 57.7298 1.63473Z" fill="white"/>
<path d="M42.0136 13.5698H41.5746C39.9179 13.4977 38.2962 13.0811 36.8181 12.3478C35.3399 11.6146 34.0395 10.5817 33.0039 9.31833C32.9623 9.26679 32.9386 9.20373 32.9361 9.1382C32.9335 9.07267 32.9523 9.00804 32.9898 8.95358C33.0272 8.89912 33.0814 8.85763 33.1445 8.83508C33.2077 8.81252 33.2765 8.81005 33.3411 8.82802C36.4398 9.70934 39.3476 9.27489 41.1165 7.66741C41.9224 6.82988 42.5688 5.85889 43.0253 4.80003C43.6934 3.47184 44.3869 2.10642 45.7231 1.28096C47.632 0.0893188 51.1124 -0.171353 53.5112 0.0955252C55.0378 0.224964 56.5211 0.657966 57.8697 1.36785C59.1422 2.0878 62.3554 4.3904 61.7573 6.36406C61.7 6.58718 61.595 6.79597 61.4492 6.97673C61.3033 7.15749 61.12 7.30615 60.9111 7.41295C59.9503 7.88464 58.5123 7.41295 57.3607 6.97229C56.9605 6.81334 56.5477 6.68671 56.1263 6.5937C53.7657 6.20889 52.8494 7.2702 51.4496 8.87768C51.1379 9.23144 50.8134 9.61004 50.4443 9.98863C49.3605 11.1108 48.0545 12.0068 46.6054 12.6224C45.1563 13.2379 43.5942 13.5602 42.0136 13.5698ZM34.1556 9.64728C35.1775 10.6976 36.4092 11.5326 37.7747 12.1007C39.1403 12.6688 40.6106 12.958 42.0951 12.9505C43.5797 12.9429 45.0469 12.6388 46.4062 12.0568C47.7656 11.4748 48.9883 10.6273 49.9989 9.56659C50.3552 9.1942 50.6797 8.82182 50.9851 8.47425C52.4104 6.83575 53.5303 5.5448 56.2472 5.99167C56.7088 6.08725 57.1604 6.22438 57.5961 6.40129C58.6396 6.76748 59.9312 7.22676 60.6439 6.87299C60.775 6.8027 60.8893 6.70605 60.9793 6.58942C61.0692 6.4728 61.1327 6.33886 61.1656 6.19648C61.6046 4.75038 58.8814 2.65259 57.5706 1.91402C56.2857 1.2353 54.8715 0.821257 53.4157 0.697553C51.1251 0.449295 47.8419 0.697552 46.0413 1.78989C44.8578 2.52225 44.2342 3.75734 43.5789 5.0607C43.0964 6.19059 42.4039 7.22374 41.5364 8.10807C39.8057 9.69072 37.0952 10.2431 34.1556 9.64728Z" fill="#231F20"/>
<path d="M58.9958 3.00014C58.1242 3.45041 57.4338 4.17418 57.036 5.05449C56.7243 5.62506 56.5936 6.27319 56.6606 6.91643C56.7258 7.29995 56.8824 7.66319 57.1178 7.9769C57.3532 8.2906 57.6608 8.54599 58.0159 8.72251C58.3227 8.9042 58.6886 8.96626 59.0403 8.89629C59.3213 8.79951 59.5714 8.6326 59.7657 8.41218C61.2227 6.92263 63.2716 1.02028 58.9958 3.00014Z" fill="#231F20"/>
<path d="M58.7795 9.21903C58.4596 9.20701 58.1475 9.11971 57.8696 8.96457C57.4701 8.7647 57.124 8.47657 56.8589 8.12313C56.5938 7.7697 56.417 7.36074 56.3426 6.92885C56.2728 6.23009 56.4143 5.52669 56.7498 4.90554C57.1791 3.96334 57.9209 3.18946 58.8559 2.70845C60.1666 2.08781 61.0701 2.13125 61.5601 2.78914C62.5208 4.09249 61.0956 7.48122 59.9948 8.59839C59.7606 8.85863 59.4598 9.05353 59.1231 9.16318C59.0119 9.19788 58.8962 9.21669 58.7795 9.21903ZM60.4466 2.90706C59.9854 2.94293 59.5369 3.07185 59.1295 3.28565C58.3247 3.70266 57.6895 4.37472 57.3288 5.19104C57.0452 5.69935 56.9213 6.27783 56.9725 6.85437C57.0345 7.18906 57.1746 7.50535 57.382 7.77873C57.5895 8.0521 57.8586 8.27522 58.1687 8.43081C58.4058 8.56871 58.6849 8.6214 58.9577 8.57977C59.1835 8.49695 59.3831 8.35786 59.5367 8.17635C60.5484 7.15849 61.7191 4.08629 61.0383 3.16153C60.9687 3.075 60.8782 3.00653 60.775 2.96215C60.6718 2.91777 60.559 2.89885 60.4466 2.90706Z" fill="#231F20"/>
<path d="M63.1633 20.9865C62.2788 21.2534 61.3053 21.1168 60.0964 20.1983C59.1272 19.4055 58.3751 18.3904 57.9076 17.244C56.9658 15.0476 56.6712 12.6384 57.0567 10.2876C57.4423 7.93674 58.4928 5.73749 60.09 3.93732C63.3796 0.331368 70.0796 -1.15198 73.5219 3.10566C74.1001 3.82931 74.5086 4.66784 74.7185 5.56217C74.9285 6.4565 74.9349 7.38486 74.7372 8.28185C75.1018 8.36543 75.4332 8.55181 75.69 8.81778C75.9469 9.08375 76.1178 9.41756 76.1815 9.77761C76.6142 11.5961 75.7997 12.7567 74.3236 13.7187C71.893 15.3014 69.3033 16.6358 66.9491 18.3239C65.5748 19.3107 64.4676 20.5893 63.1633 20.9865Z" fill="white"/>
<path d="M62.3681 21.4147C61.4561 21.3704 60.5862 21.0271 59.8993 20.4403C58.8891 19.6163 58.1042 18.5607 57.6151 17.3681C56.6369 15.117 56.3275 12.6428 56.7225 10.2283C57.1174 7.81383 58.2006 5.55639 59.8484 3.7139C60.8984 2.59559 62.1769 1.70416 63.6016 1.097C65.0262 0.48984 66.5654 0.180409 68.12 0.188626C69.212 0.199799 70.2874 0.450497 71.2666 0.922147C72.2458 1.3938 73.1036 2.07431 73.7765 2.91326C74.3511 3.63324 74.766 4.46183 74.9949 5.34647C75.2238 6.23112 75.2618 7.15251 75.1063 8.05222C75.4573 8.19731 75.7669 8.42335 76.0085 8.71092C76.2501 8.99849 76.4165 9.33898 76.4934 9.70313C77.0406 12.0181 75.6154 13.2532 74.4955 13.9794C73.4966 14.6 72.4531 15.2207 71.4477 15.8413C70.0034 16.6978 68.5145 17.5791 67.1401 18.566C66.6947 18.8887 66.2684 19.2425 65.8676 19.5838C65.1267 20.3131 64.2412 20.8875 63.2652 21.272C62.9758 21.3659 62.673 21.4141 62.3681 21.4147ZM67.8273 0.821686C66.4114 0.849973 65.0162 1.15893 63.7266 1.72976C62.4369 2.30059 61.2798 3.12136 60.3256 4.14214C58.7781 5.90336 57.7605 8.04794 57.3854 10.3385C57.0103 12.629 57.2924 14.9761 58.2004 17.1199C58.645 18.2189 59.3647 19.1919 60.2938 19.95C61.3055 20.7258 62.2026 20.9555 63.068 20.6886C63.9561 20.3198 64.7638 19.789 65.4476 19.1246C65.8612 18.7708 66.2939 18.4046 66.7647 18.0757C68.1582 17.0702 69.6598 16.1765 71.1169 15.32C72.1158 14.6993 73.153 14.1097 74.1456 13.458C75.7108 12.434 76.2326 11.3541 75.8762 9.83968C75.8178 9.54548 75.6759 9.27318 75.4667 9.05375C75.2575 8.83431 74.9893 8.67654 74.6928 8.59838C74.6496 8.59199 74.6081 8.57714 74.571 8.55475C74.5338 8.53235 74.5016 8.50286 74.4764 8.46805C74.4511 8.43342 74.4334 8.39399 74.4246 8.35229C74.4159 8.3106 74.4162 8.26757 74.4255 8.226C74.6145 7.3744 74.6093 6.49269 74.4103 5.64326C74.2113 4.79383 73.8233 3.99745 73.2739 3.31048C72.6537 2.54294 71.8644 1.9213 70.9646 1.49156C70.0647 1.06183 69.0773 0.835005 68.0755 0.827891L67.8273 0.821686Z" fill="#231F20"/>
<path d="M72.4593 13.7063C72.4593 13.7063 73.7319 17.5791 73.0511 18.1315C72.3702 18.6839 71.0086 17.8026 71.0086 17.8026" fill="white"/>
<path d="M72.5042 18.6218C71.9154 18.574 71.3485 18.3819 70.8562 18.0632C70.8187 18.0424 70.7859 18.0142 70.7599 17.9806C70.7339 17.947 70.7152 17.9085 70.7049 17.8676C70.6946 17.8267 70.6929 17.7841 70.7 17.7426C70.7072 17.701 70.7229 17.6613 70.7462 17.6259C70.7696 17.5904 70.8001 17.56 70.8359 17.5364C70.8717 17.5129 70.9121 17.4967 70.9545 17.4888C70.997 17.4809 71.0406 17.4816 71.0828 17.4907C71.1249 17.4999 71.1648 17.5173 71.1998 17.5419C71.5879 17.7839 72.5042 18.1936 72.8669 17.8957C73.115 17.6412 72.7969 15.7234 72.1733 13.7994C72.1492 13.7204 72.1577 13.6353 72.1969 13.5623C72.2361 13.4893 72.303 13.4341 72.3833 13.4084C72.4234 13.3959 72.4656 13.3913 72.5076 13.3949C72.5495 13.3985 72.5903 13.4101 72.6276 13.4291C72.6648 13.4482 72.6979 13.4743 72.7247 13.5059C72.7516 13.5375 72.7718 13.5739 72.7841 13.6132C73.1786 14.8545 74.0122 17.7529 73.2804 18.3674C73.0615 18.5406 72.7859 18.6309 72.5042 18.6218Z" fill="#231F20"/>
<path d="M73.2549 9.26248C74.3302 10.7769 73.2549 13.0298 72.7586 14.5628C72.1096 16.7226 71.4054 18.868 70.6461 20.9989C70.1689 22.3519 66.5167 21.3589 65.9949 20.7693C65.4859 23.3015 65.4795 29.6569 62.4127 30.6189C61.7872 30.7737 61.125 30.6963 60.5547 30.4017C56.6225 28.6577 57.8251 25.1697 58.6014 22.1161C59.1867 19.8073 59.6958 17.4674 60.243 15.1462C60.243 15.1462 62.6417 15.8413 64.8942 13.4456C67.1466 11.0499 69.9589 12.2043 73.2549 9.26248Z" fill="white"/>
<path d="M61.8272 31.0161C61.3378 31.0053 60.8563 30.8932 60.4146 30.6872C56.4761 28.9432 57.3541 25.5793 58.1304 22.6188L58.2767 22.0416C58.6712 20.5024 59.0339 18.9383 59.3839 17.3991L59.9183 15.0779C59.9288 15.0365 59.9477 14.9975 59.9739 14.9634C60.0001 14.9293 60.0332 14.9007 60.0711 14.8793C60.1508 14.8486 60.2395 14.8486 60.3192 14.8793C60.4083 14.8793 62.5716 15.5 64.6459 13.2656C65.7912 12.0243 67.0765 11.6954 68.4636 11.3292C70.1689 10.982 71.7496 10.2004 73.0448 9.06386C73.0798 9.03528 73.1204 9.01394 73.1642 9.00114C73.2079 8.98834 73.2539 8.98434 73.2993 8.98939C73.3441 8.99338 73.3873 9.00718 73.4259 9.02974C73.4645 9.05231 73.4973 9.08306 73.522 9.11972C74.5082 10.5038 73.8656 12.3657 73.3438 13.8615C73.2484 14.1532 73.1529 14.4263 73.0702 14.6869C72.4339 16.8344 71.7086 19.0314 70.9514 21.1292C70.8594 21.3585 70.7033 21.558 70.5008 21.705C70.2984 21.852 70.0577 21.9407 69.8061 21.9609C68.5779 22.0909 67.3371 21.8755 66.2302 21.3403C66.1602 21.7685 66.103 22.265 66.033 22.8174C65.6639 25.9206 65.1486 30.1286 62.5207 30.9603C62.294 31.0143 62.0599 31.0332 61.8272 31.0161ZM60.4846 15.5C60.3256 16.1765 60.1729 16.8468 60.0138 17.5233C59.6638 19.0501 59.3012 20.6265 58.9067 22.1781L58.7603 22.7553C58.0095 25.6165 57.2396 28.577 60.6692 30.11C61.17 30.3646 61.7474 30.4372 62.298 30.3148C64.5377 29.6073 65.0468 25.4427 65.3776 22.6871C65.4731 21.905 65.5558 21.2285 65.6639 20.6948C65.6735 20.6369 65.7003 20.5831 65.741 20.5401C65.7818 20.497 65.8346 20.4666 65.893 20.4527C65.9513 20.441 66.0117 20.444 66.0684 20.4613C66.1252 20.4787 66.1765 20.5099 66.2175 20.552C67.2511 21.1601 68.4586 21.4258 69.6598 21.3092C70.0288 21.2409 70.2515 21.0982 70.3279 20.8872C71.0787 18.7708 71.7849 16.6109 72.4403 14.4635C72.5167 14.2028 72.6185 13.9173 72.7203 13.6194C73.1466 12.3781 73.6747 10.8513 73.1529 9.73416C71.8352 10.7958 70.2748 11.5324 68.6035 11.8816C67.2801 12.2416 66.1284 12.5519 65.104 13.638C63.2397 15.6613 61.2545 15.6241 60.4846 15.5124V15.5Z" fill="#231F20"/>
<path d="M71.0657 19.3728C71.0657 19.3728 69.0423 19.919 68.6351 17.9267L71.0657 19.3728Z" fill="white"/>
<path d="M70.4613 19.7514C70.0458 19.7572 69.6365 19.6521 69.2779 19.4473C69.0221 19.2838 68.8049 19.0692 68.6403 18.8178C68.4758 18.5664 68.3678 18.2839 68.3234 17.9888C68.3084 17.9074 68.3267 17.8235 68.3742 17.7551C68.4218 17.6867 68.4949 17.6391 68.578 17.6226C68.6189 17.6144 68.6611 17.6142 68.7021 17.622C68.7431 17.6297 68.7822 17.6453 68.8171 17.6677C68.8519 17.6902 68.8819 17.7192 68.9053 17.753C68.9287 17.7867 68.945 17.8247 68.9534 17.8646C68.9779 18.0741 69.0472 18.2762 69.1568 18.458C69.2664 18.6397 69.4139 18.797 69.5896 18.9197C70.0158 19.1322 70.5069 19.1852 70.9704 19.0687C71.0121 19.0577 71.0557 19.0548 71.0986 19.0602C71.1416 19.0657 71.183 19.0793 71.2205 19.1003C71.258 19.1214 71.2909 19.1494 71.3173 19.1828C71.3437 19.2163 71.3631 19.2545 71.3744 19.2952C71.3857 19.336 71.3886 19.3785 71.383 19.4204C71.3775 19.4622 71.3635 19.5026 71.342 19.5392C71.3204 19.5758 71.2916 19.6079 71.2574 19.6336C71.2231 19.6594 71.1839 19.6783 71.1422 19.6893C70.9186 19.7369 70.69 19.7577 70.4613 19.7514Z" fill="#231F20"/>
<path d="M65.9946 20.7568C65.9946 20.7568 64.1494 20.1362 63.6404 18.6342C63.6404 18.6342 63.0804 20.8437 65.6955 22.6064L65.9946 20.7568Z" fill="#231F20"/>
<path d="M65.6959 22.9291C65.6301 22.9288 65.5658 22.9094 65.5114 22.8732C62.75 21.0113 63.3099 18.6715 63.3353 18.5722C63.3517 18.5074 63.3889 18.4495 63.4417 18.407C63.4944 18.3645 63.5597 18.3397 63.628 18.3363C63.6984 18.3321 63.7682 18.3513 63.826 18.3907C63.8838 18.4302 63.9261 18.4876 63.9462 18.5535C64.3979 19.9003 66.0777 20.4651 66.0968 20.4713C66.1673 20.4952 66.2269 20.5425 66.2653 20.6048C66.3037 20.6672 66.3183 20.7408 66.3068 20.8127L66.0077 22.6746C65.9996 22.7258 65.9784 22.7743 65.9462 22.8155C65.914 22.8567 65.8717 22.8893 65.8232 22.9105C65.7826 22.9254 65.7392 22.9318 65.6959 22.9291ZM63.9716 19.8259C64.1843 20.7229 64.7108 21.5195 65.4605 22.0788L65.6387 20.9803C65.0033 20.7101 64.4348 20.3101 63.9716 19.8072V19.8259Z" fill="#231F20"/>
<path d="M72.0085 12.381C72.1638 11.9621 72.1531 11.5744 71.9847 11.5149C71.8162 11.4555 71.5537 11.7469 71.3984 12.1657C71.2431 12.5846 71.2537 12.9723 71.4222 13.0318C71.5907 13.0912 71.8531 12.7998 72.0085 12.381Z" fill="#231F20"/>
<path d="M67.6045 13.5449C67.6983 12.9839 67.6323 12.4085 67.4137 11.8816C67.3016 11.4583 67.1281 11.0528 66.8983 10.6775C66.7799 10.49 66.6203 10.3303 66.4311 10.2101C66.2418 10.0899 66.0276 10.0121 65.8039 9.98242C65.6049 9.97704 65.407 10.0124 65.2229 10.0861C65.0388 10.1599 64.8726 10.2704 64.7349 10.4107C64.4658 10.698 64.2639 11.039 64.1432 11.4099C63.8666 12.2142 63.8122 13.0753 63.9853 13.9067C64.1584 14.738 64.5531 15.5102 65.1294 16.1454L65.0403 15.9841" fill="white"/>
<path d="M65.1421 16.4558C65.0973 16.4561 65.053 16.4468 65.0124 16.4286C64.9717 16.4103 64.9356 16.3836 64.9067 16.3503C64.295 15.672 63.8762 14.8492 63.692 13.9639C63.5078 13.0786 63.5646 12.1616 63.8568 11.3044C63.9934 10.8945 64.2216 10.5193 64.5249 10.2059C64.6929 10.0318 64.8977 9.89552 65.1252 9.80656C65.3527 9.71759 65.5973 9.67806 65.842 9.69072C66.1133 9.72094 66.374 9.81096 66.6044 9.95397C66.8348 10.097 67.0289 10.2892 67.1718 10.5162C67.4226 10.9165 67.6093 11.3518 67.7254 11.8071C67.9704 12.3972 68.0366 13.0434 67.9163 13.6691C67.8925 13.7483 67.838 13.8154 67.7643 13.8559C67.6906 13.8965 67.6036 13.9074 67.5218 13.8863C67.441 13.8645 67.3724 13.8125 67.3307 13.7416C67.289 13.6708 67.2776 13.5867 67.2991 13.5077C67.3772 13.0046 67.3156 12.4902 67.1209 12.0181C67.0213 11.6222 66.8604 11.2434 66.6437 10.8948C66.5537 10.7465 66.4311 10.6195 66.2848 10.5229C66.1385 10.4263 65.9721 10.3626 65.7975 10.3362C65.6436 10.3325 65.4907 10.361 65.3491 10.4199C65.2075 10.4788 65.0805 10.5667 64.9767 10.6775C64.7382 10.9278 64.5599 11.2267 64.4549 11.5527C64.2178 12.2538 64.1582 13.0004 64.2812 13.7289C64.4042 14.4573 64.7061 15.1459 65.1612 15.7358C65.1997 15.7476 65.2353 15.7669 65.2659 15.7925C65.2965 15.8181 65.3215 15.8495 65.3394 15.8848L65.4221 16.0461C65.4471 16.0933 65.4593 16.1458 65.4576 16.1989C65.4558 16.2519 65.4402 16.3036 65.4121 16.3491C65.384 16.3945 65.3444 16.4322 65.2972 16.4585C65.2499 16.4848 65.1965 16.4988 65.1421 16.4992V16.4558Z" fill="#231F20"/>
<path d="M71.0086 34.3056C71.0086 31.2706 59.212 12.4464 51.4175 21.8244C48.2362 25.6848 47.5044 37.9612 42.7514 54.0607L64.5567 55.302C64.5567 55.302 71.0086 44.6704 71.0086 34.3056Z" fill="#FFBA7C"/>
<path d="M57.0678 23.978C53.1675 20.7196 51.3413 27.404 51.1186 29.9052C50.8352 34.0952 51.6383 38.2873 53.4538 42.0947C53.6769 42.6786 54.0571 43.1932 54.5545 43.5842C55.018 43.8404 55.5522 43.9483 56.0819 43.8926C56.6116 43.8369 57.11 43.6205 57.5069 43.2739C58.3006 42.5588 58.868 41.637 59.1421 40.6175C60.0583 37.8122 60.0838 34.8083 59.9375 31.8664C59.7911 28.9246 59.3012 25.8524 57.0678 23.978Z" fill="#231F20"/>
<path d="M55.7126 44.2297C55.2368 44.2352 54.7706 44.0988 54.3765 43.8387C53.8291 43.418 53.4091 42.8603 53.1612 42.225C51.32 38.3722 50.5079 34.1278 50.8006 29.8866C50.9469 28.0246 51.9713 23.8601 54.1919 22.9601C55.1527 22.5753 56.1899 22.836 57.2715 23.7422C59.6067 25.6972 60.0712 28.9432 60.2239 31.8602C60.3575 34.5911 60.3702 37.7874 59.4158 40.723C59.1268 41.7896 58.5358 42.7554 57.7106 43.5098C57.1474 43.9635 56.443 44.2173 55.7126 44.2297ZM55.0764 23.4132C54.858 23.4134 54.6418 23.4556 54.4401 23.5374C52.6203 24.2697 51.5896 28.0619 51.4432 29.93C51.1564 34.0668 51.9488 38.2071 53.7465 41.9643C53.9516 42.4934 54.2936 42.9616 54.7391 43.3236C55.143 43.5347 55.6036 43.62 56.0587 43.5679C56.5138 43.5157 56.9416 43.3286 57.2843 43.0319C58.014 42.3584 58.5345 41.498 58.7859 40.5493C59.7148 37.7005 59.7021 34.5786 59.5685 31.9037C59.4285 29.117 58.9895 26.0261 56.8389 24.2263C56.3643 23.759 55.7353 23.4709 55.0636 23.4132H55.0764Z" fill="#231F20"/>
<path d="M68.7879 38.4577C66.5546 36.5337 58.8238 22.4822 55.2733 23.1215C51.7229 23.7608 49.7186 29.3714 52.6137 32.8346C55.5088 36.2978 62.7433 44.3538 66.8854 46.0234C71.0276 47.6929 90.7522 49.1266 90.7522 49.1266H94.01C94.01 49.1266 93.7109 50.6161 94.7481 50.4734C95.7852 50.3307 99.202 47.3702 98.1967 45.3779C97.1914 43.3856 94.2518 42.8953 93.6155 42.7774C92.9792 42.6595 89.1615 44.9931 89.1615 44.9931C89.1615 44.9931 71.0276 40.3817 68.7879 38.4577Z" fill="white"/>
<path d="M94.6148 50.7403C94.4967 50.7452 94.379 50.7257 94.2693 50.6829C94.1596 50.6401 94.0605 50.575 93.9785 50.492C93.7312 50.1775 93.6215 49.7804 93.6731 49.3873H90.7462C89.919 49.3252 70.907 47.9536 66.7649 46.284C61.9355 44.3414 53.3458 34.169 52.385 33.0146C51.6478 32.0906 51.1688 30.9959 50.9948 29.8374C50.8209 28.6789 50.9578 27.4962 51.3924 26.4047C52.1177 24.4745 53.5494 23.1463 55.2101 22.8422C57.7997 22.3767 62.0373 28.5584 65.4478 33.5235C66.9621 35.733 68.2728 37.6446 68.9728 38.2405C71.0343 40.0217 87.5203 44.2545 89.111 44.6579C90.339 43.9007 93.005 42.3243 93.6667 42.4733L93.8322 42.5105C94.7357 42.6967 97.4717 43.2677 98.4452 45.2227C98.6157 45.6243 98.6828 46.0606 98.6407 46.4933C98.5985 46.9261 98.4484 47.3422 98.2034 47.7053C97.4017 49.1824 95.6201 50.641 94.7738 50.7589C94.7203 50.7578 94.667 50.7516 94.6148 50.7403ZM94.0103 48.8163C94.0534 48.8162 94.0959 48.8255 94.1348 48.8437C94.1736 48.8618 94.2078 48.8883 94.2347 48.9211C94.2616 48.9539 94.2806 48.9922 94.2902 49.0332C94.2998 49.0741 94.2999 49.1167 94.2903 49.1576C94.212 49.4754 94.2526 49.8099 94.4048 50.101C94.443 50.1444 94.5193 50.1941 94.7039 50.1693C95.2447 50.0948 96.9245 48.8473 97.7007 47.4074C97.8972 47.1283 98.0213 46.8068 98.0623 46.4706C98.1033 46.1344 98.06 45.7935 97.9362 45.4772C97.0835 43.7704 94.5575 43.2429 93.724 43.0691L93.5458 43.0318C93.145 42.976 91.0643 44.1304 89.3337 45.2041C89.3001 45.2252 89.2625 45.2394 89.2231 45.2458C89.1837 45.2522 89.1434 45.2507 89.1046 45.2413C88.3602 45.0489 70.8625 40.6175 68.5973 38.6687C67.8465 38.0481 66.5803 36.1861 64.9769 33.8401C62.0182 29.4955 57.5516 23.0036 55.3246 23.4008C53.8611 23.6677 52.5949 24.8593 51.9459 26.5971C51.5496 27.5966 51.4233 28.6787 51.5793 29.7395C51.7353 30.8003 52.1683 31.8041 52.8367 32.6546C53.7911 33.7966 62.2982 43.8697 66.9939 45.7627C71.047 47.395 90.5744 48.8039 90.7717 48.8225L94.0103 48.8163Z" fill="#231F20"/>
<path d="M92.3815 50.461C93.3092 50.461 94.0613 49.7274 94.0613 48.8225C94.0613 47.9176 93.3092 47.184 92.3815 47.184C91.4538 47.184 90.7017 47.9176 90.7017 48.8225C90.7017 49.7274 91.4538 50.461 92.3815 50.461Z" fill="#231F20"/>
<path d="M76.3217 68.8011C76.2537 68.8008 76.1877 68.7787 76.1337 68.7384C76.0797 68.6981 76.0407 68.6416 76.0227 68.5777C76.009 68.539 76.0037 68.498 76.007 68.4572C76.0103 68.4165 76.0222 68.3768 76.0419 68.3407C76.0616 68.3046 76.0887 68.2729 76.1215 68.2474C76.1543 68.222 76.1922 68.2034 76.2327 68.1929C76.3917 68.1432 80.2412 67.0012 82.4555 67.5722C82.4959 67.5823 82.5339 67.6001 82.5671 67.6247C82.6003 67.6494 82.6281 67.6803 82.6489 67.7156C82.6697 67.7509 82.683 67.7899 82.688 67.8303C82.693 67.8707 82.6897 67.9117 82.6782 67.9508C82.6678 67.9904 82.6495 68.0276 82.6244 68.0602C82.5992 68.0929 82.5677 68.1204 82.5316 68.1411C82.4956 68.1619 82.4557 68.1755 82.4142 68.1812C82.3728 68.1868 82.3306 68.1845 82.29 68.1742C80.2539 67.6405 76.4554 68.7949 76.4172 68.7949L76.3217 68.8011Z" fill="#231F20"/>
<path d="M25.6801 99.9638C25.6112 99.9642 25.5441 99.9424 25.4892 99.9017L11.9047 89.6486C11.8438 89.5966 11.8055 89.5238 11.7976 89.4452C11.7898 89.3666 11.813 89.288 11.8625 89.2255C11.9119 89.163 11.984 89.1212 12.064 89.1087C12.1439 89.0963 12.2258 89.114 12.2928 89.1583L25.8774 99.43C25.9286 99.4701 25.9659 99.5248 25.984 99.5864C26.0022 99.648 26.0003 99.7136 25.9787 99.7741C25.9571 99.8347 25.9168 99.8872 25.8633 99.9245C25.8098 99.9618 25.7458 99.982 25.6801 99.9824V99.9638Z" fill="#D1D3D4"/>
<path d="M27.5892 125.025H27.5192C27.4782 125.017 27.4393 125 27.4049 124.976C27.3705 124.953 27.3412 124.923 27.3187 124.888C27.2963 124.854 27.281 124.815 27.2739 124.775C27.2668 124.734 27.268 124.693 27.2774 124.653L30.4079 110.751C30.4264 110.668 30.4778 110.597 30.5506 110.551C30.6233 110.506 30.7116 110.49 30.796 110.509C30.8804 110.527 30.9539 110.577 31.0005 110.648C31.047 110.719 31.0627 110.805 31.0442 110.887L27.9137 124.746C27.9043 124.824 27.866 124.895 27.8061 124.946C27.7463 124.998 27.669 125.026 27.5892 125.025Z" fill="#D1D3D4"/>
<path d="M39.8881 102.297C39.8037 102.312 39.7168 102.294 39.6464 102.246C39.576 102.198 39.5279 102.125 39.5127 102.043C39.4975 101.961 39.5164 101.876 39.5654 101.807C39.6143 101.738 39.6892 101.692 39.7736 101.677L51.3029 97.3322C51.3422 97.3173 51.3841 97.3101 51.4262 97.311C51.4683 97.312 51.5098 97.3211 51.5483 97.3379C51.5868 97.3546 51.6214 97.3787 51.6503 97.4086C51.6792 97.4385 51.7017 97.4737 51.7165 97.5122C51.7317 97.55 51.739 97.5905 51.738 97.6311C51.7369 97.6718 51.7275 97.7118 51.7103 97.7488C51.6931 97.7859 51.6684 97.8192 51.6378 97.8467C51.6072 97.8743 51.5712 97.8956 51.532 97.9094L40.0026 102.254C39.9673 102.275 39.9285 102.289 39.8881 102.297Z" fill="#D1D3D4"/>
<path d="M114.008 124.908C113.96 124.909 113.911 124.899 113.868 124.877C113.831 124.859 113.797 124.834 113.769 124.803C113.741 124.772 113.72 124.737 113.707 124.698C113.693 124.66 113.687 124.619 113.69 124.578C113.693 124.537 113.703 124.497 113.722 124.461L120.791 110.595C120.829 110.522 120.895 110.467 120.975 110.441C121.055 110.416 121.142 110.422 121.217 110.459C121.255 110.477 121.289 110.502 121.316 110.532C121.344 110.563 121.365 110.599 121.378 110.638C121.391 110.677 121.396 110.718 121.392 110.758C121.389 110.799 121.377 110.839 121.357 110.875L114.295 124.74C114.267 124.791 114.226 124.833 114.175 124.862C114.125 124.892 114.067 124.908 114.008 124.908Z" fill="#D1D3D4"/>
<path d="M115.612 101.261C115.556 101.262 115.5 101.247 115.453 101.217L102.091 93.7325C102.027 93.6873 101.983 93.6207 101.967 93.5455C101.951 93.4703 101.964 93.3919 102.003 93.3255C102.043 93.2591 102.106 93.2094 102.181 93.1859C102.256 93.1625 102.337 93.1671 102.409 93.1987L115.771 100.684C115.831 100.718 115.877 100.771 115.903 100.834C115.93 100.896 115.934 100.966 115.916 101.031C115.898 101.097 115.858 101.154 115.804 101.196C115.749 101.237 115.681 101.26 115.612 101.261Z" fill="#D1D3D4"/>
<path d="M129.286 102.297C129.235 102.298 129.185 102.287 129.14 102.265C129.095 102.244 129.055 102.212 129.025 102.173C129 102.14 128.983 102.102 128.974 102.062C128.964 102.022 128.963 101.981 128.97 101.941C128.977 101.9 128.992 101.861 129.015 101.827C129.037 101.792 129.067 101.762 129.101 101.739L142.718 92.1746C142.786 92.1351 142.867 92.122 142.945 92.138C143.023 92.154 143.092 92.1978 143.138 92.261C143.185 92.3241 143.205 92.4019 143.195 92.479C143.186 92.5561 143.147 92.6269 143.087 92.6774L129.47 102.242C129.416 102.278 129.351 102.297 129.286 102.297Z" fill="#D1D3D4"/>
<path d="M74.5529 68.4163H74.4638L43.7889 60.1493C43.7484 60.1392 43.7105 60.1214 43.6772 60.0967C43.644 60.0721 43.6162 60.0412 43.5954 60.0059C43.5746 59.9706 43.5613 59.9316 43.5563 59.8912C43.5513 59.8508 43.5546 59.8098 43.5662 59.7707C43.5772 59.731 43.5962 59.6939 43.622 59.6614C43.6479 59.6289 43.6801 59.6018 43.7168 59.5816C43.7535 59.5614 43.794 59.5485 43.8358 59.5437C43.8777 59.5388 43.9201 59.5422 43.9606 59.5535L74.6356 67.8143C74.7169 67.8374 74.7856 67.8906 74.8272 67.9625C74.8688 68.0344 74.88 68.1193 74.8583 68.1991C74.8388 68.2629 74.7984 68.3187 74.7432 68.358C74.688 68.3972 74.6212 68.4177 74.5529 68.4163Z" fill="white"/>
</svg>
