<svg width="13" height="17" viewBox="0 0 13 17" fill="none" xmlns="http://www.w3.org/2000/svg">
<path opacity="0.5" d="M6.42702 0.103671C3.77831 0.103671 1.65874 2.22325 1.65874 4.87196V6.84442C0.771529 6.89528 0.103861 7.59652 0.103861 8.5V15.2378C0.103861 16.1761 0.82405 16.8963 1.76239 16.8963H11.0916C12.03 16.8963 12.7502 16.1761 12.7502 15.2378V8.5C12.7502 7.59652 12.0825 6.89528 11.1953 6.84442V4.87196C11.1953 2.22325 9.07573 0.103671 6.42702 0.103671ZM11.5063 8.5V15.2378C11.5063 15.3697 11.4628 15.4716 11.3941 15.5403C11.3255 15.6089 11.2236 15.6524 11.0916 15.6524H1.76239C1.63046 15.6524 1.52858 15.6089 1.45993 15.5403C1.39129 15.4716 1.34776 15.3697 1.34776 15.2378V8.5C1.34776 8.36807 1.39129 8.26618 1.45993 8.19754C1.52858 8.12889 1.63046 8.08537 1.76239 8.08537H2.28069H10.5734H11.0916C11.2236 8.08537 11.3255 8.12889 11.3941 8.19754C11.4628 8.26618 11.5063 8.36807 11.5063 8.5ZM2.90264 6.84147V4.87196C2.90264 2.90787 4.46293 1.34757 6.42702 1.34757C8.39111 1.34757 9.95141 2.90787 9.95141 4.87196V6.84147H2.90264Z" fill="#573353" stroke="#573353" stroke-width="0.2"/>
</svg>
