<svg width="16" height="13" viewBox="0 0 16 13" fill="none" xmlns="http://www.w3.org/2000/svg">
<path opacity="0.5" d="M1.35082 10.7587C1.35109 10.9637 1.43267 11.1603 1.57767 11.3053C1.7227 11.4504 1.91933 11.5319 2.12443 11.5322H13.8756C14.0807 11.5319 14.2773 11.4504 14.4223 11.3053C14.5674 11.1603 14.6489 10.9637 14.6492 10.7586V3.94709L8.33724 8.00459L8.33721 8.00461L8.28103 7.91721C8.19722 7.97113 8.09966 7.9998 8 7.9998C7.90034 7.9998 7.80278 7.97113 7.71897 7.91721L1.35082 10.7587ZM1.35082 10.7587C1.35082 10.7586 1.35082 10.7586 1.35082 10.7586L1.35082 3.94709L7.66276 8.00459L1.35082 10.7587ZM13.8758 0.103906H13.8757L2.1243 0.103906L2.12419 0.103906C1.58861 0.104486 1.07513 0.317503 0.696409 0.696219C0.317693 1.07493 0.104676 1.58842 0.104096 2.124V2.12411L0.104096 10.7587L0.104096 10.7588C0.104676 11.2944 0.317693 11.8079 0.696409 12.1866C1.07513 12.5653 1.58861 12.7783 2.12419 12.7789H2.1243H13.8757H13.8758C14.4114 12.7783 14.9249 12.5653 15.3036 12.1866C15.6823 11.8079 15.8953 11.2944 15.8959 10.7588V10.7587V2.12411V2.124C15.8953 1.58842 15.6823 1.07493 15.3036 0.696219C14.9249 0.317503 14.4114 0.104486 13.8758 0.103906ZM2.12443 1.35063H13.8756C13.8756 1.35063 13.8756 1.35063 13.8757 1.35063C14.0807 1.3509 14.2773 1.43248 14.4223 1.57748C14.5674 1.72251 14.6489 1.91914 14.6492 2.12424V2.46479L8 6.73919L1.35082 2.46479L1.35082 2.12424C1.35082 2.1242 1.35082 2.12417 1.35082 2.12414C1.35109 1.91907 1.43267 1.72248 1.57767 1.57748C1.72267 1.43248 1.91926 1.3509 2.12433 1.35063C2.12436 1.35063 2.12439 1.35063 2.12443 1.35063Z" fill="#573353" stroke="#573353" stroke-width="0.2"/>
</svg>
