<svg width="18" height="18" viewBox="0 0 18 18" fill="none" xmlns="http://www.w3.org/2000/svg">
<path d="M16.7179 3.19831L9.82036 0.17172C9.56163 0.0584656 9.28227 0 8.99987 0C8.71746 0 8.4381 0.0584656 8.17937 0.17172L1.28324 3.19831C0.860588 3.38874 0.509707 3.70916 0.281674 4.11294C0.0536417 4.51673 -0.0396388 4.98279 0.0154107 5.44329C0.186399 7.08615 0.607026 8.69326 1.26276 10.2091C2.6567 13.3498 4.99955 15.9744 7.96179 17.7136C8.27588 17.9013 8.63493 18.0002 9.00075 18C9.36657 17.9998 9.72549 17.9003 10.0393 17.7122C13.0011 15.9734 15.3435 13.3494 16.737 10.2091C17.3928 8.69328 17.8135 7.08616 17.9846 5.44329C18.0396 4.98293 17.9464 4.51702 17.7186 4.11328C17.4908 3.70954 17.1402 3.38902 16.7179 3.19831Z" fill="#FDA758"/>
<path d="M11.8419 7.57886L8.0524 10.8946L6.63135 9.1291" stroke="white" stroke-width="1.7" stroke-linecap="round" stroke-linejoin="round"/>
</svg>
