<svg width="15" height="11" viewBox="0 0 15 11" fill="none" xmlns="http://www.w3.org/2000/svg">
<path d="M5.25117 4.68367C6.88745 4.17532 7.97334 3.0816 8.74686 2.14193C9.52037 1.18685 9.9815 1.3409 10.2195 1.80303C10.4575 2.26517 10.7253 3.62076 9.20799 5.03798C8.13697 6.03927 7.75022 5.93143 8.10722 6.40897C8.46423 6.90192 9.803 6.40897 10.9484 4.93014C12.0938 3.45131 12.8822 1.0328 13.3136 0.370412C13.7449 -0.291982 14.9052 -0.122529 14.9945 1.3409C15.0837 2.80432 14.0722 5.59254 12.2425 7.1946C10.4129 8.79667 7.75021 9.81336 5.71231 10.0598C3.68927 10.3063 3.39176 9.96741 3.06451 9.2588C2.75213 8.5502 3.65952 8.05725 4.34378 7.99563C5.02804 7.93402 5.07267 7.57972 4.90904 7.27163C4.74542 6.96354 3.22814 7.5335 1.99349 7.41027C0.758848 7.27163 -0.0146645 7.14839 0.000210775 6.10088C0.015086 5.05338 0.684469 4.88393 2.17199 4.97635C3.65952 5.03797 3.95703 5.08419 5.25117 4.68367Z" fill="#FFF5FA"/>
</svg>
