<svg width="8" height="26" viewBox="0 0 8 26" fill="none" xmlns="http://www.w3.org/2000/svg">
<path d="M4.32978 26L3.38264 17.5617V17.5305C3.39767 17.4838 4.70563 12.6886 5.05141 11.0227C5.47236 8.98322 6.3744 3.67425 6.79535 1.24551C5.92338 3.5497 3.99903 8.60957 3.21727 10.4778C2.54074 12.0814 0.466054 16.3006 0.255579 16.7521L1.77401 25.9221L1.53347 25.9688L0 16.7054L0.0150349 16.6742C0.0451028 16.6275 2.28516 12.0659 2.99176 10.3844C4.01407 7.94011 6.97576 0.0778442 7.00582 0L7.24637 0.0622744C7.23133 0.140119 5.84821 8.42274 5.30699 11.085C4.97624 12.7042 3.74346 17.2036 3.63822 17.5772L4.58536 25.9688L4.32978 26Z" fill="#EA3D2A"/>
</svg>
