<svg width="168" height="154" viewBox="0 0 168 154" fill="none" xmlns="http://www.w3.org/2000/svg">
<path opacity="0.18" d="M158.763 142.858C150.709 151.608 138.197 153.63 126.635 153.911C115.558 154.302 104.09 153.45 93.3109 150.406C83.5969 147.68 73.3199 148.836 63.1817 148.965C48.3965 149.158 32.5833 149.038 20.2868 139.799C8.26372 130.791 1.84214 114.381 0.459094 98.1605C0.373419 97.1473 0.295903 96.1386 0.238786 95.1254C-1.10754 73.3457 3.15583 52.1416 15.1545 34.995C26.0475 19.4282 40.8571 6.92867 58.1595 2.37376C67.4777 -0.0810142 77.208 -0.223787 86.8118 0.163081C97.2071 0.572977 107.778 1.79345 117.679 5.31211C131.375 10.1802 145.548 21.0954 149.42 36.4688C153.737 53.6476 156.727 70.8955 161.688 88.0513C162.133 89.5987 162.582 91.1462 163.018 92.7029C165.184 100.408 167.077 108.219 167.302 116.228C167.571 125.849 165.127 135.949 158.763 142.858Z" fill="#FFBA7C"/>
<path opacity="0.48" d="M158.763 142.858C150.709 151.608 138.197 153.63 126.635 153.911C115.558 154.302 104.09 153.45 93.3109 150.406C83.5969 147.68 73.3199 148.836 63.1817 148.965C48.3965 149.158 32.5833 149.038 20.2868 139.799C8.26372 130.791 1.84214 114.381 0.459094 98.1605C0.373418 97.1473 0.295903 96.1386 0.238786 95.1254L163.022 92.6983C165.188 100.403 167.081 108.214 167.306 116.224C167.571 125.849 165.127 135.949 158.763 142.858Z" fill="#FFBA7C"/>
<path d="M6.30123 110.204C6.67249 112.023 8.22688 113.165 9.67929 114.054C13.7387 116.541 18.0102 118.559 22.2695 120.576L51.7092 134.498C56.197 136.626 60.7541 138.772 65.5519 139.795C70.4109 140.831 75.4005 140.716 80.3452 140.55C101.666 139.928 123.024 139.311 144.21 136.539C146.997 136.175 150.236 135.415 151.415 132.55C152.476 129.985 151.231 126.812 149.241 125.089C147.25 123.367 144.708 122.75 142.252 122.179L126.859 118.595C104.828 113.469 82.7972 108.339 60.5338 104.811C55.1811 103.964 3.12307 94.5727 6.30123 110.204Z" fill="url(#paint0_linear_729_5377)"/>
<path d="M23.9303 88.2401C38.2095 91.0633 53.6148 77.4262 65.8623 102.135C67.6084 106.073 68.1102 114.077 68.2367 122.156C53.6025 117.435 21.3682 105.603 20.7848 105.037C19.7567 104.046 19.7567 100.159 19.7975 96.6867C19.8138 95.3695 21.6293 92.1088 23.9303 88.2401Z" fill="#1A1A1A"/>
<path d="M24.5256 97.5572C25.8556 97.5986 30.0497 101.928 30.1517 107.39C30.2414 112.327 29.0338 116.601 27.8915 117.278L23.5261 117.665L24.0401 116.684C23.1018 115.256 22.3797 111.618 22.3022 107.372C22.2002 101.914 23.1956 97.5203 24.5256 97.5572Z" fill="#3F3D56"/>
<path d="M24.5256 97.5572C25.8556 97.5986 30.0497 101.928 30.1517 107.39C30.2414 112.327 29.0338 116.601 27.8915 117.278L23.5261 117.665L24.0401 116.684C23.1018 115.256 22.3797 111.618 22.3022 107.372C22.2002 101.914 23.1956 97.5203 24.5256 97.5572Z" fill="url(#paint1_linear_729_5377)"/>
<path d="M20.8333 107.712C20.9353 113.17 22.0981 117.628 23.4281 117.665C24.7581 117.702 25.7535 113.313 25.6516 107.855C25.5496 102.398 24.3909 97.9348 23.0568 97.898C21.7227 97.8611 20.7313 102.25 20.8333 107.712Z" fill="#3F3D56"/>
<path d="M21.4823 107.74C21.5435 110.964 22.233 113.612 23.0163 113.635C23.7997 113.658 24.3953 111.056 24.3382 107.823C24.2811 104.59 23.5875 101.951 22.8001 101.928C22.0127 101.905 21.4252 104.507 21.4823 107.74Z" fill="url(#paint2_linear_729_5377)"/>
<path d="M22.0371 107.763C22.0657 109.32 22.3962 110.596 22.7756 110.605C23.155 110.614 23.4406 109.361 23.412 107.805C23.3835 106.248 23.053 104.972 22.6736 104.958C22.2942 104.944 22.0371 106.202 22.0371 107.763Z" fill="#3F3D56"/>
<path d="M61.7372 99.952C64.0545 100.021 73.9766 107.957 74.1601 117.453C74.3193 126.052 72.9362 133.112 70.933 134.356L59.9788 134.968L60.8764 133.255C59.2445 130.768 57.9838 124.431 57.8451 117.043C57.686 107.542 59.4199 99.883 61.7372 99.952Z" fill="#3F3D56"/>
<path d="M61.7372 99.952C64.0545 100.021 73.9766 107.957 74.1601 117.453C74.3193 126.052 72.9362 133.112 70.933 134.356L59.9788 134.968L60.8764 133.255C59.2445 130.768 57.9838 124.431 57.8451 117.043C57.686 107.542 59.4199 99.883 61.7372 99.952Z" fill="url(#paint3_linear_729_5377)"/>
<path d="M55.3079 117.633C55.4834 127.139 57.5069 134.899 59.8242 134.968C62.1416 135.037 63.8755 127.387 63.696 117.882C63.5164 108.376 61.497 100.611 59.1837 100.542C56.8705 100.472 55.1325 108.127 55.3079 117.633Z" fill="#3F3D56"/>
<path d="M56.4376 117.674C56.5396 123.302 57.7391 127.903 59.1099 127.94C60.4807 127.977 61.5088 123.45 61.4068 117.808C61.3048 112.166 60.1054 107.579 58.7305 107.537C57.3556 107.496 56.3316 112.051 56.4376 117.674Z" fill="url(#paint4_linear_729_5377)"/>
<path d="M57.4252 117.72C57.4742 120.433 58.0535 122.653 58.7144 122.671C59.3754 122.69 59.869 120.507 59.8201 117.789C59.7711 115.072 59.1918 112.857 58.5309 112.838C57.8699 112.82 57.3722 115.003 57.4252 117.72Z" fill="#3F3D56"/>
<path d="M130.176 99.952C132.493 100.021 142.415 107.957 142.599 117.453C142.758 126.052 141.354 133.112 139.372 134.356L128.434 134.959L129.331 133.246C127.699 130.759 126.439 124.421 126.3 117.034C126.125 107.542 127.859 99.883 130.176 99.952Z" fill="#3F3D56"/>
<path d="M130.176 99.952C132.493 100.021 142.415 107.957 142.599 117.453C142.758 126.052 141.354 133.112 139.372 134.356L128.434 134.959L129.331 133.246C127.699 130.759 126.439 124.421 126.3 117.034C126.125 107.542 127.859 99.883 130.176 99.952Z" fill="url(#paint5_linear_729_5377)"/>
<path d="M123.746 117.633C123.926 127.139 125.945 134.899 128.262 134.968C130.58 135.037 132.314 127.387 132.134 117.882C131.955 108.376 129.935 100.634 127.622 100.542C125.309 100.449 123.571 108.127 123.746 117.633Z" fill="#3F3D56"/>
<path d="M124.876 117.674C124.982 123.302 126.178 127.903 127.549 127.94C128.919 127.977 129.952 123.45 129.846 117.808C129.739 112.166 128.544 107.579 127.169 107.537C125.794 107.496 124.77 112.051 124.876 117.674Z" fill="url(#paint6_linear_729_5377)"/>
<path d="M125.863 117.72C125.912 120.433 126.492 122.653 127.153 122.671C127.814 122.69 128.307 120.507 128.258 117.789C128.209 115.072 127.63 112.857 126.969 112.838C126.308 112.82 125.81 115.003 125.863 117.72Z" fill="#3F3D56"/>
<path d="M30.7882 98.0407C32.2406 98.0822 38.1318 102.95 38.2379 108.905C38.3358 114.294 37.4546 118.734 36.198 119.498L29.6703 119.982L30.2333 118.909C29.2052 117.352 28.4219 113.382 28.3362 108.749C28.2506 102.794 29.3358 97.9993 30.7882 98.0407Z" fill="#3F3D56"/>
<path d="M30.7882 98.0407C32.2406 98.0822 38.1318 102.95 38.2379 108.905C38.3358 114.294 37.4546 118.734 36.198 119.498L29.6703 119.982L30.2333 118.909C29.2052 117.352 28.4219 113.382 28.3362 108.749C28.2506 102.794 29.3358 97.9993 30.7882 98.0407Z" fill="url(#paint7_linear_729_5377)"/>
<path d="M26.7575 109.117C26.8717 115.077 28.1365 119.94 29.5889 119.982C31.0413 120.023 32.1265 115.233 32.0163 109.274C31.9062 103.314 30.6374 98.4553 29.189 98.4092C27.7407 98.3631 26.6473 103.162 26.7575 109.117Z" fill="#3F3D56"/>
<path d="M27.4674 109.149C27.5326 112.677 28.2833 115.56 29.1442 115.597C30.005 115.634 30.6455 112.783 30.5802 109.251C30.515 105.718 29.7643 102.844 28.9035 102.803C28.0426 102.761 27.4021 105.622 27.4674 109.149Z" fill="url(#paint8_linear_729_5377)"/>
<path d="M28.0872 109.177C28.1157 110.876 28.4952 112.267 28.9031 112.277C29.3111 112.286 29.6293 110.918 29.6008 109.218C29.5722 107.519 29.1928 106.128 28.7848 106.114C28.3768 106.101 28.0545 107.473 28.0872 109.177Z" fill="#3F3D56"/>
<path d="M65.8623 102.167C53.623 77.4584 38.2136 91.114 23.9303 88.2723C27.6878 81.9028 32.6692 73.8845 32.7835 70.1816C32.967 64.222 32.5183 56.1715 33.9136 55.1813C35.3088 54.1911 56.0382 36.6162 66.7069 30.8869C77.3755 25.1575 136.855 27.009 138.662 33.466C140.469 39.923 144.782 73.097 145.883 93.5181C146.679 108.099 146.581 109.384 146.454 121.193C146.454 121.193 85.6289 124.113 75.152 124.113C74.4748 124.113 71.9086 123.376 68.2368 122.188C68.1103 114.11 67.6085 106.105 65.8623 102.167Z" fill="#FFBA7C"/>
<path d="M73.5362 33.1436C75.6821 31.2139 134.933 31.656 136.72 32.181C137.464 32.3869 138.139 32.8334 138.662 33.466C139.158 34.5272 139.562 35.641 139.865 36.7912C140.771 40.269 141.485 43.8067 142.003 47.384C143.039 54.6885 144.398 66.1103 145.344 81.9673C145.45 83.8694 145.552 85.8452 145.646 87.8808C145.679 89.6954 145.614 93.2003 144.675 93.7207C143.407 94.4208 82.3974 95.0333 79.4967 92.666C76.596 90.2988 76.5022 88.1065 75.984 79.6921C75.4659 71.2777 73.9441 48.7473 73.1282 44.0127C72.3122 39.2782 71.4024 35.0733 73.5362 33.1436Z" fill="url(#paint9_linear_729_5377)"/>
<path d="M73.5362 33.1436C75.6821 31.2139 134.933 31.656 136.72 32.181C137.464 32.3869 138.139 32.8334 138.662 33.466C139.158 34.5272 139.562 35.641 139.865 36.7912C140.771 40.269 141.485 43.8067 142.003 47.384C143.039 54.6885 144.398 66.1103 145.344 81.9673C145.45 83.8694 145.552 85.8452 145.646 87.8808C145.679 89.6954 145.614 93.2003 144.675 93.7207C143.809 93.8721 142.933 93.9491 142.056 93.951C141.24 78.9783 141.758 74.8056 138.96 55.5221C136.785 44.22 133.297 45.2056 128.324 45.2056C129.352 62.5686 131.126 76.9058 131.893 94.2688C113.281 94.453 81.3775 94.1997 79.4967 92.666C76.5919 90.2988 76.5022 88.1065 75.984 79.6921C75.4659 71.2777 73.9441 48.7473 73.1282 44.0127C72.3122 39.2782 71.4024 35.0733 73.5362 33.1436Z" fill="url(#paint10_linear_729_5377)"/>
<path d="M73.5363 33.1436C75.6823 31.2139 134.933 31.656 136.72 32.181C137.464 32.3869 138.139 32.8334 138.662 33.466C139.159 34.5272 139.562 35.641 139.865 36.7912C140.22 38.0531 140.616 39.7434 141.036 41.8573L72.8428 42.4745C72.1329 38.3847 71.6229 34.8615 73.5363 33.1436Z" fill="url(#paint11_linear_729_5377)"/>
<path d="M138.943 110.043C138.943 110.043 142.684 109.016 144.394 102.149C146.287 98.2664 146.989 104.77 146.842 109.73C146.732 113.364 141.024 113.52 139.302 113.133C137.581 112.746 136.965 111.102 138.943 110.043Z" fill="#3F3D56"/>
<path d="M137.956 110.876L138.009 110.803C138.25 110.498 138.55 110.262 138.886 110.112C139.968 109.719 140.929 108.988 141.656 108.003C142.84 106.511 143.712 104.739 144.21 102.817C145.601 101.145 146.12 106.041 146.001 109.868C145.903 112.931 140.767 113.064 139.217 112.737C138.066 112.475 137.466 111.65 137.956 110.876Z" fill="#3F3D56"/>
<path d="M143.129 105.658C143.578 104.751 143.941 103.792 144.21 102.798C145.239 101.559 145.789 103.927 145.961 106.791C145.455 105.985 144.157 105.7 143.129 105.658Z" fill="#FFBA7C"/>
<path d="M128.364 29.4269C128.364 29.4269 75.3271 29.4269 67.1675 30.9421C62.6797 32.181 22.7427 58.8888 22.7427 58.8888L24.7214 55.149C24.7214 55.149 54.3284 30.3664 64.8135 25.6734C75.2985 20.9803 126.251 17.8393 128.364 29.4269Z" fill="#FFBA7C"/>
<path style="mix-blend-mode:multiply" opacity="0.5" d="M128.364 29.4269C128.364 29.4269 75.3271 29.4269 67.1675 30.9421C62.6797 32.181 22.7427 58.8888 22.7427 58.8888L24.7214 55.149C24.7214 55.149 54.3284 30.3664 64.8135 25.6734C75.2985 20.9803 126.251 17.8393 128.364 29.4269Z" fill="url(#paint12_linear_729_5377)"/>
<path d="M18.3856 101.702C18.4264 98.2296 18.92 76.1044 19.1036 70.1494C19.2872 64.1944 19.0832 61.6153 20.4785 60.6205C21.8738 59.6257 46.6585 40.0197 57.3271 34.3134C67.9957 28.6071 68.4935 30.2283 70.2967 36.6853C72.1 43.1423 74.1236 71.0751 74.7355 87.646C75.3067 103.199 75.1435 127.153 75.1435 127.153L64.0383 123.242C64.0955 121.833 64.1118 120.359 64.0832 118.844C63.8874 108.357 61.6598 99.7955 59.1018 99.7172C56.5438 99.6389 54.614 108.086 54.8303 118.572C54.8303 119.033 54.8547 119.526 54.8711 119.996C47.3316 117.324 39.0252 114.354 32.318 111.917C32.3425 111.116 32.3507 110.282 32.318 109.426C32.1997 102.909 30.8126 97.5894 29.2256 97.5433C27.6385 97.4973 26.4472 102.738 26.5696 109.255C26.5696 109.444 26.5696 109.633 26.5696 109.822L25.8189 109.545C25.8189 108.984 25.8189 108.408 25.8189 107.818C25.7088 102.02 24.4767 97.2854 23.0651 97.2256C21.6535 97.1657 20.6172 101.831 20.7029 107.57C20.1933 107.393 19.6979 107.168 19.2219 106.897C18.2428 105.926 18.3652 105.179 18.3856 101.702Z" fill="#FFBA7C"/>
<path d="M18.3856 101.702C18.4264 98.2296 18.92 76.1044 19.1036 70.1494C19.2872 64.1944 19.0832 61.6153 20.4785 60.6205C21.8738 59.6257 46.6585 40.0197 57.3271 34.3134C67.9957 28.6071 68.4935 30.2283 70.2967 36.6853C72.1 43.1423 74.1236 71.0751 74.7355 87.646C75.3067 103.199 75.1435 127.153 75.1435 127.153L64.0383 123.242C64.0955 121.833 64.1118 120.359 64.0832 118.844C63.8874 108.357 61.6598 99.7955 59.1018 99.7172C56.5438 99.6389 54.614 108.086 54.8303 118.572C54.8303 119.033 54.8547 119.526 54.8711 119.996C47.3316 117.324 39.0252 114.354 32.318 111.917C32.3425 111.116 32.3507 110.282 32.318 109.426C32.1997 102.909 30.8126 97.5894 29.2256 97.5433C27.6385 97.4973 26.4472 102.738 26.5696 109.255C26.5696 109.444 26.5696 109.633 26.5696 109.822L25.8189 109.545C25.8189 108.984 25.8189 108.408 25.8189 107.818C25.7088 102.02 24.4767 97.2854 23.0651 97.2256C21.6535 97.1657 20.6172 101.831 20.7029 107.57C20.1933 107.393 19.6979 107.168 19.2219 106.897C18.2428 105.926 18.3652 105.179 18.3856 101.702Z" fill="url(#paint13_linear_729_5377)"/>
<path d="M68.8442 84.8366C66.9063 73.1476 64.5809 64.1115 53.749 66.3682C46.4666 67.8973 28.0709 75.7129 19.6625 79.4389C19.6625 79.4389 19.6625 76.8229 19.7073 76.0768C19.9358 70.8541 19.7645 68.1874 21.1761 67.4229C22.5877 66.6584 46.9236 48.4756 57.6983 44.4825C68.473 40.4895 68.9218 42.1798 70.5986 48.9269C71.8225 53.8088 72.9322 69.979 73.5686 84.8504L68.8606 84.9425C68.8571 84.9068 68.8517 84.8715 68.8442 84.8366Z" fill="url(#paint14_linear_729_5377)"/>
<path d="M70.9494 84.9057L68.8606 84.9425C68.8625 84.9072 68.8625 84.8718 68.8606 84.8366C68.4453 82.0976 67.9005 79.3856 67.2287 76.7123C68.9259 78.7572 70.0641 81.5943 70.9494 84.9057Z" fill="url(#paint15_linear_729_5377)"/>
<g style="mix-blend-mode:multiply">
<path d="M47.7396 49.5993L47.9803 49.4611L48.4576 67.8834L48.2169 67.9617L47.7396 49.5993Z" fill="#CDCDCD"/>
<path d="M35.688 57.3413L35.9287 57.1755L36.1286 72.4936L35.8879 72.5903L35.688 57.3413Z" fill="#CDCDCD"/>
<path d="M26.3289 63.8259L26.5696 63.6555V76.4498L26.3289 76.5511V63.8259Z" fill="#CDCDCD"/>
</g>
<path d="M146.723 114.321C146.723 114.321 146.45 115.197 142.366 115.284C138.282 115.372 76.596 116.422 74.5153 115.1C74.4867 119.53 74.1726 127.148 75.1599 127.668C76.3838 128.318 139.249 127.295 142.154 126.853C145.059 126.411 146.148 125.891 146.511 122.823C146.874 119.756 146.723 114.321 146.723 114.321Z" fill="#FFBA7C"/>
<path d="M146.723 114.321C146.723 114.321 146.45 115.197 142.366 115.284C138.282 115.372 76.596 116.422 74.5153 115.1C74.4867 119.53 74.1726 127.148 75.1599 127.668C76.3838 128.318 139.249 127.295 142.154 126.853C145.059 126.411 146.148 125.891 146.511 122.823C146.874 119.756 146.723 114.321 146.723 114.321Z" fill="url(#paint16_linear_729_5377)"/>
<g style="mix-blend-mode:multiply">
<path d="M64.1773 84.6109L62.8351 42.7647L63.0758 42.7002L65.5237 117.905L73.9321 120.668C74.0871 104.231 73.5241 89.1336 73.3487 84.8366H73.5935C73.7975 89.7922 74.4707 108.164 74.0831 126.747L73.8424 126.655C73.8804 124.881 73.9076 123.114 73.924 121.354L65.5482 118.591L65.7154 123.818L65.4706 123.712L65.283 118.536H65.2585V118.186L64.1977 85.3202L52.6724 86.4716L53.1497 119.406L52.9049 119.3L52.4276 86.4946L42.5423 87.4848L42.9502 115.781L42.7095 115.685L42.3016 87.5078L33.4117 88.3967L33.7544 112.465L33.5096 112.355L33.171 88.4059L18.6307 89.8613V89.1612L64.1773 84.6109Z" fill="#CDCDCD"/>
</g>
<path opacity="0.6" d="M71.7369 84.8872C71.7369 84.6938 71.7043 84.5003 71.692 84.3069L70.8516 69.2006C70.6762 66.0412 71.2881 63.4068 72.2714 62.7252C72.7936 69.325 73.2424 77.2558 73.5687 84.8319L71.7369 84.8872Z" fill="#191919"/>
<path d="M144.676 93.7253C143.403 94.4254 82.3977 95.0379 79.497 92.6707C76.7431 90.4277 76.5187 88.3368 76.0618 80.9449C77.6488 79.7704 80.7413 78.8954 84.7762 78.2552C85.7309 78.1032 86.7386 77.9651 87.7912 77.8407C89.7005 77.615 91.7608 77.4262 93.9108 77.2788L95.1552 77.1959C96.7136 77.0977 98.3143 77.0178 99.9571 76.9564L101.715 76.8966C103.311 76.8505 104.938 76.8137 106.57 76.7906C107.435 76.7906 108.308 76.7676 109.177 76.763H110.422C114.909 76.763 119.397 76.8275 123.583 76.9518C135.296 77.3111 144.623 78.0848 145.116 78.5684C145.19 79.6829 145.263 80.8113 145.332 81.9765C145.441 83.8832 145.542 85.8544 145.634 87.8901C145.675 89.6955 145.61 93.2003 144.676 93.7253Z" fill="url(#paint17_linear_729_5377)"/>
<path d="M130.559 77.3157C125.182 77.1545 119.303 77.0762 113.547 77.1545L113.098 66.5939C113.098 63.02 116.933 60.1461 121.633 60.2014C126.333 60.2566 130.139 63.1766 130.123 66.7551L130.559 77.3157Z" fill="url(#paint18_linear_729_5377)"/>
<path d="M101.727 76.892C95.3997 77.09 89.4555 77.5091 84.776 78.2736L84.2537 66.032C84.2537 62.4581 88.0887 59.5842 92.7927 59.6349C97.4967 59.6855 101.295 62.6147 101.283 66.1932L101.727 76.892Z" fill="url(#paint19_linear_729_5377)"/>
<path d="M108.336 72.7285C108.198 73.0014 107.989 73.22 107.737 73.3549C106.276 74.3359 104.775 75.2385 103.249 76.0491C102.994 76.2136 102.707 76.3053 102.413 76.3162C101.971 76.2293 101.571 75.9662 101.287 75.5747C100.344 74.5615 99.3773 73.4976 98.904 72.1206C98.6165 71.1286 98.4665 70.0924 98.4593 69.0487C98.3619 67.5381 98.3701 66.0213 98.4838 64.5122C98.6348 63.1305 98.9938 62.1495 99.7771 62.8726C100.103 63.1719 102.633 71.508 102.91 71.2824L104.669 69.9421C105.068 69.5712 105.554 69.3391 106.068 69.2743C107.055 69.2743 107.7 70.3981 108.149 71.3929C108.264 71.5868 108.341 71.8067 108.373 72.0373C108.406 72.268 108.393 72.5039 108.336 72.7285Z" fill="#FFBA7C"/>
<path d="M107.737 73.3549C106.276 74.3359 104.775 75.2385 103.249 76.0491C102.994 76.2136 102.707 76.3053 102.413 76.3162C101.971 76.2293 101.571 75.9662 101.287 75.5747C100.344 74.5615 99.3773 73.4976 98.904 72.1206C98.6165 71.1286 98.4665 70.0924 98.4593 69.0486C98.3619 67.5381 98.3701 66.0213 98.4838 64.5122C98.6796 64.2911 98.9734 67.3446 99.2998 67.6578C99.6261 67.9709 102.103 73.2397 102.409 73.0002C102.992 72.5397 103.579 72.1021 104.167 71.66C104.566 71.289 105.052 71.057 105.566 70.9922C106.554 70.9922 107.198 72.116 107.643 73.1108C107.671 73.1983 107.712 73.2766 107.737 73.3549Z" fill="url(#paint20_linear_729_5377)"/>
<path d="M99.961 76.9518C98.329 77.0163 96.7284 77.0961 95.1591 77.1913L93.9147 77.2742C91.7524 77.4216 89.6921 77.6104 87.795 77.8361C87.795 77.2788 87.7379 73.5253 87.7624 72.9956C87.8889 70.4073 86.1876 65.9537 86.5997 63.4022C86.8037 62.1265 96.0688 59.3217 98.6106 61.408C99.1076 61.7688 99.507 62.2771 99.7651 62.8772C99.9495 63.5334 99.9901 64.2304 99.8834 64.9082C99.7121 66.8932 99.5448 68.869 99.3776 70.854C99.3327 71.3284 99.7651 74.5938 99.961 76.9518Z" fill="#FFBA7C"/>
<path d="M99.9611 76.9518C98.3292 77.0163 96.7286 77.0961 95.1592 77.1913L94.4249 77.2374L93.9149 77.2742C91.7526 77.4216 89.6923 77.6104 87.7952 77.8361C87.7952 77.2788 87.7381 73.5253 87.7626 72.9956C87.7669 72.0651 87.6724 71.1374 87.4811 70.2323C87.0486 67.8834 86.3143 65.1938 86.5998 63.4206C86.8038 62.1449 96.069 59.3401 98.6107 61.4264C99.1077 61.7872 99.5072 62.2955 99.7653 62.8956C99.9497 63.5519 99.9903 64.2488 99.8836 64.9267C99.7123 66.9117 99.545 68.8875 99.3777 70.8725C99.3328 71.3284 99.7653 74.5938 99.9611 76.9518Z" fill="url(#paint21_linear_729_5377)"/>
<path d="M94.4326 77.2374L93.9226 77.2742C91.7604 77.4216 89.7001 77.6104 87.803 77.8361C87.803 77.2788 87.7458 73.5253 87.7703 72.9956C87.7746 72.0651 87.6801 71.1374 87.4888 70.2323C87.6235 69.8961 87.7622 69.5599 87.8968 69.2283C88.0154 68.8093 88.1902 68.4132 88.4149 68.0539C88.8229 68.2841 88.5536 69.5046 88.6434 69.9836C88.7168 70.3659 89.5369 73.3365 90.0509 74.2253C90.1493 74.4234 90.2894 74.5911 90.4589 74.7135C90.7152 74.8404 90.9968 74.8881 91.2749 74.8517C92.4988 74.8056 93.7227 74.7504 94.9222 74.6721C95.0079 75.5333 94.5264 76.3577 94.4326 77.2374Z" fill="url(#paint22_linear_729_5377)"/>
<path d="M93.262 75.128C92.6868 75.5103 93.3803 76.6064 92.7113 76.6202C91.5648 76.6202 88.044 76.2241 86.8976 76.2472C85.6736 76.2472 84.4497 75.3261 83.6827 74.2437C83.4606 73.9007 83.3023 73.5104 83.2175 73.0964C83.1326 72.6824 83.123 72.2533 83.1891 71.835C83.3257 71.0001 83.5617 70.1898 83.8908 69.4263C84.2784 68.4223 86.0612 62.739 87.0648 63.1858C87.4728 63.3746 87.8196 64.0102 88.0644 64.8253C88.5135 66.4142 88.688 68.0856 88.5784 69.7487C88.4887 70.2507 87.4198 71.1304 87.7625 71.5034C87.8685 71.6021 87.9885 71.68 88.1174 71.7337C89.7086 72.5146 91.4175 72.9445 93.1519 73.0002C93.4742 73.6404 93.8414 74.7457 93.262 75.128Z" fill="#FFBA7C"/>
<path d="M92.7113 76.6202C91.5648 76.6202 88.044 76.2241 86.8976 76.2472C85.6736 76.2472 84.4497 75.326 83.6827 74.2437C83.4606 73.9007 83.3023 73.5104 83.2175 73.0964C83.1326 72.6824 83.123 72.2533 83.1891 71.835C83.3107 72.322 83.5295 72.771 83.8286 73.1478C84.1278 73.5246 84.4993 73.8192 84.9148 74.0089C86.457 74.6306 92.2584 74.9898 92.2584 74.9898L93.2498 75.128C92.6868 75.5103 93.3803 76.6064 92.7113 76.6202Z" fill="url(#paint23_linear_729_5377)"/>
<path d="M92.2867 75.303C92.3464 75.7174 92.5189 76.1005 92.7803 76.3992C92.8583 76.2998 92.908 76.1762 92.9231 76.0445C92.9904 75.7727 93.0052 75.4876 92.9665 75.2087C92.9278 74.9298 92.8365 74.6636 92.6987 74.428C92.2091 73.7049 92.2295 74.9484 92.2867 75.303Z" fill="#191919"/>
<path d="M91.83 59.9158C91.7892 60.8047 91.83 61.758 92.3441 62.4535C92.6375 62.8073 92.9951 63.0854 93.3926 63.2687C93.7604 63.4871 94.1684 63.6054 94.5839 63.6141C94.7912 63.6139 94.9945 63.5494 95.1715 63.4276C95.3485 63.3057 95.4925 63.1312 95.5875 62.9232C95.8305 62.2238 95.9051 61.4643 95.8037 60.7218C95.5671 59.8697 95.5304 58.9348 95.1428 58.1519C94.7552 57.3689 93.3763 57.2308 92.495 57.2952C92.0871 57.3275 91.8953 57.4748 91.8504 57.9262C91.8015 58.5618 91.8627 59.271 91.83 59.9158Z" fill="url(#paint24_linear_729_5377)"/>
<path d="M93.2865 61.1639C93.5304 61.8061 93.9434 62.348 94.4696 62.716C94.666 62.8549 94.8909 62.9342 95.1224 62.9463C95.2385 62.9515 95.3542 62.9264 95.4604 62.8729C95.5665 62.8194 95.6603 62.7389 95.7343 62.6377C95.8656 62.3831 95.9214 62.0878 95.8934 61.7949V59.6763C95.9029 59.5282 95.8805 59.3797 95.8282 59.2434C95.7666 59.1429 95.6867 59.0584 95.5938 58.9957C95.5009 58.9329 95.3972 58.8933 95.2896 58.8796C94.7103 58.7184 93.6006 58.419 93.1151 58.9809C92.6296 59.5428 93.058 60.5928 93.2865 61.1639Z" fill="url(#paint25_linear_729_5377)"/>
<path d="M98.5982 58.1703C98.537 59.2434 98.3045 60.4731 97.4722 60.9751C97.1472 61.1549 96.7933 61.2583 96.4319 61.2791C95.5455 61.4084 94.6446 61.2586 93.829 60.8461C92.9346 60.2942 92.2487 59.3939 91.8992 58.3131C91.559 57.2393 91.3932 56.105 91.4096 54.9648C91.4096 53.339 91.6952 51.4554 92.9477 50.6586C93.4465 50.3718 93.9956 50.2145 94.5552 50.198C95.8158 50.1105 98.6839 50 98.5207 52.0126C98.3575 54.0253 98.7369 56.0886 98.5982 58.1703Z" fill="url(#paint26_linear_729_5377)"/>
<path d="M98.737 49.5717C98.6168 49.1848 98.4236 48.832 98.1707 48.5377C97.9178 48.2435 97.6113 48.0148 97.2723 47.8676C96.6613 47.6563 96.0192 47.5843 95.3834 47.6558C94.7265 47.688 94.0697 47.7249 93.4128 47.7709C92.6759 47.7718 91.9465 47.9377 91.2669 48.2591C90.9242 48.428 90.6453 48.7282 90.4795 49.1065C90.4003 49.4089 90.3376 49.7166 90.2918 50.0277C90.1939 50.4237 89.9817 50.7738 89.8838 51.1606C89.7411 51.9296 89.7964 52.7287 90.0429 53.4634C90.3285 54.6148 90.659 55.8445 91.4953 56.5722C91.3159 55.948 91.339 55.2721 91.5606 54.6655C91.7419 54.8221 91.893 55.019 92.0045 55.2439C92.1161 55.4688 92.1858 55.7171 92.2093 55.9734C92.4133 55.9734 92.45 55.6372 92.4296 55.407C92.3328 54.7574 92.2904 54.0989 92.3031 53.4404C92.3117 53.11 92.3832 52.7856 92.5127 52.4891C92.6423 52.1927 92.8268 51.9313 93.0538 51.7225C93.7923 51.1238 94.804 51.4185 95.6975 51.5982C96.3911 51.7409 97.6803 52.0587 98.3575 51.7455C99.0348 51.4324 98.945 50.2349 98.737 49.5717Z" fill="#3F3D56"/>
<path d="M110.434 76.7538H109.189C108.875 73.1016 105.856 70.2323 102.193 70.2323C98.3821 70.2323 95.2569 73.3364 95.1672 77.1867C94.7592 77.2143 94.3512 77.2374 93.9229 77.2696C93.984 72.6088 97.6681 68.8322 102.193 68.8322C106.546 68.8552 110.124 72.3324 110.434 76.7538Z" fill="#191919"/>
<g opacity="0.5">
<mask id="mask0_729_5377" style="mask-type:luminance" maskUnits="userSpaceOnUse" x="19" y="42" width="55" height="43">
<path d="M68.8442 84.8366C66.9063 73.1476 64.5809 64.1115 53.749 66.3682C46.4666 67.8973 28.0709 75.7129 19.6625 79.4389C19.6625 79.4389 19.6625 76.8229 19.7073 76.0768C19.9358 70.8541 19.7645 68.1874 21.1761 67.4229C22.5877 66.6584 46.9236 48.4756 57.6983 44.4825C68.473 40.4895 68.9218 42.1798 70.5986 48.9269C71.8225 53.8088 72.9322 69.979 73.5686 84.8504L68.8606 84.9425C68.8571 84.9068 68.8517 84.8715 68.8442 84.8366Z" fill="white"/>
</mask>
<g mask="url(#mask0_729_5377)">
<path d="M73.5851 73.1154C74.0788 75.6254 76.698 77.5598 79.4355 77.4354C82.173 77.3065 83.9926 75.1695 83.5153 72.6595L81.4754 62.3292C80.9817 59.8191 78.3625 57.8848 75.625 58.0137C72.8875 58.1381 71.0679 60.2751 71.5452 62.7851L73.5851 73.1154Z" fill="#191919"/>
<path d="M62.945 73.6036C63.4387 76.1136 68.7954 88.0651 71.537 87.9361L73.5769 86.9828C76.3145 86.8538 76.1023 85.6748 75.6168 83.1648L70.8435 62.8219C70.3498 60.3073 67.7306 58.373 64.9931 58.5019C62.2514 58.6263 60.4359 60.7633 60.9133 63.2733L62.945 73.6036Z" fill="#191919"/>
<path d="M55.9969 74.8425C56.515 77.0302 58.0368 78.527 59.4198 78.2184C60.7906 77.9006 61.4801 75.8696 60.962 73.6819L58.8242 64.7102C58.306 62.5226 56.7843 61.0258 55.4012 61.3298C54.0304 61.6521 53.3409 63.6832 53.8591 65.8709L55.9969 74.8425Z" fill="#191919"/>
<path d="M50.665 76.0906C51.1872 78.2736 52.7049 79.7751 54.0879 79.4665C55.4587 79.1487 56.1523 77.113 55.6301 74.93L53.4964 65.9353C52.9782 63.7477 51.4565 62.2508 50.0694 62.5548C48.6985 62.8772 48.0295 64.9083 48.5272 67.0959L50.665 76.0906Z" fill="#191919"/>
<path d="M45.3856 76.763C45.8384 78.6743 47.1807 79.9869 48.3801 79.7198C49.5796 79.4389 50.1834 77.6565 49.7305 75.7452L47.862 67.8697C47.4051 65.9537 46.0628 64.6458 44.8634 64.9129C43.6639 65.1938 43.056 66.9716 43.5129 68.8875L45.3856 76.763Z" fill="#191919"/>
<path d="M40.657 78.2921C41.114 80.208 42.4521 81.516 43.6516 81.2489C44.8755 80.9679 45.4589 79.1902 45.002 77.2742L43.1335 69.3987C42.6806 67.4874 41.3384 66.1748 40.1348 66.4419C38.9354 66.7229 38.3316 68.5006 38.7844 70.4165L40.657 78.2921Z" fill="#191919"/>
<path d="M36.4221 80.7653C36.8871 82.7318 38.2661 84.0951 39.5023 83.8049C40.7262 83.5148 41.3586 81.6864 40.8894 79.7198L38.9678 71.6186C38.4987 69.6474 37.1197 68.2888 35.8835 68.5789C34.6596 68.8645 34.0272 70.6975 34.4964 72.6641L36.4221 80.7653Z" fill="#191919"/>
<path d="M31.5021 82.6351C31.9712 84.6017 33.3502 85.9604 34.5864 85.6748C35.8103 85.3847 36.4386 83.5562 35.9735 81.5897L34.0478 73.4885C33.5828 71.5219 32.1997 70.1632 30.9676 70.4488C29.7437 70.7389 29.1113 72.5673 29.5764 74.5339L31.5021 82.6351Z" fill="#191919"/>
<path d="M27.0184 83.7036C27.4263 85.3801 28.585 86.5314 29.6335 86.2874C30.6861 86.0433 31.2124 84.4912 30.8126 82.8194L29.1807 75.9386C28.7727 74.2668 27.6099 73.1108 26.5614 73.3549C25.5129 73.599 24.9866 75.1511 25.3824 76.8275L27.0184 83.7036Z" fill="#191919"/>
<path d="M22.1593 84.6155C22.3715 86.3288 23.4159 87.6368 24.4807 87.5354C25.5455 87.4341 26.2391 85.9649 26.0229 84.2471L25.1335 77.1959C24.9173 75.4827 23.8769 74.1747 22.808 74.276C21.7432 74.3773 21.0537 75.8511 21.2659 77.5644L22.1593 84.6155Z" fill="#191919"/>
</g>
</g>
<path d="M92.3277 110.112C92.3277 110.112 85.3921 108.445 80.8268 103.977C77.2285 100.468 75.2579 106.349 76.1636 110.812C77.0693 115.275 87.2035 114.234 90.4755 113.879C93.7475 113.525 94.2493 110.697 92.3277 110.112Z" fill="#3F3D56"/>
<path d="M91.5772 110.126C91.5772 110.126 85.0863 108.698 80.7902 104.875C77.4163 101.873 75.564 106.906 76.4167 110.725C77.2694 114.543 86.7712 113.649 89.8392 113.35C92.9072 113.05 93.3804 110.623 91.5772 110.126Z" fill="#3F3D56"/>
<path d="M76.4861 110.95C76.4587 110.877 76.4355 110.801 76.4167 110.725C75.564 106.906 77.4163 101.873 80.7902 104.875C81.1615 105.202 81.545 105.516 81.9448 105.797C79.2154 106.52 77.2286 108.325 76.4861 110.95Z" fill="#FFBA7C"/>
<path d="M79.8028 110.199C79.8028 111.715 80.7411 112.963 81.8957 112.963C83.0503 112.963 83.9886 111.733 83.9886 110.199C83.9886 108.666 83.0503 107.436 81.8957 107.436C80.7411 107.436 79.8028 108.684 79.8028 110.199Z" fill="#FFBA7C"/>
<path d="M85.5795 111.098C85.5795 112.244 86.2894 113.17 87.1625 113.17C88.0355 113.17 88.7413 112.249 88.7413 111.098C88.7413 109.946 88.0355 109.025 87.1625 109.025C86.2894 109.025 85.5795 109.951 85.5795 111.098Z" fill="#FFBA7C"/>
<path d="M146.018 109.154C146.018 110.342 145.287 111.305 144.386 111.305C143.484 111.305 142.754 110.342 142.754 109.154C142.754 107.966 143.484 106.999 144.386 106.999C145.287 106.999 146.018 107.966 146.018 109.154Z" fill="#FFBA7C"/>
<path d="M142.754 110.642C142.716 110.907 142.612 111.154 142.454 111.355C142.296 111.556 142.09 111.701 141.861 111.773C141.631 111.846 141.389 111.842 141.161 111.764C140.934 111.685 140.731 111.535 140.577 111.33C140.423 111.126 140.324 110.875 140.292 110.609C140.26 110.343 140.296 110.072 140.396 109.828C140.497 109.585 140.657 109.379 140.858 109.235C141.059 109.091 141.292 109.015 141.53 109.016C141.882 109.052 142.207 109.243 142.436 109.547C142.664 109.851 142.779 110.244 142.754 110.642Z" fill="#FFBA7C"/>
<path d="M143.129 105.658C143.578 104.751 143.941 103.792 144.21 102.798C145.239 101.559 145.789 103.927 145.961 106.791C145.455 105.985 144.157 105.7 143.129 105.658Z" fill="url(#paint27_linear_729_5377)"/>
<path d="M76.4861 110.95C76.4587 110.877 76.4355 110.801 76.4167 110.725C75.564 106.906 77.4163 101.873 80.7902 104.875C81.1615 105.202 81.545 105.516 81.9448 105.797C79.2154 106.52 77.2286 108.325 76.4861 110.95Z" fill="url(#paint28_linear_729_5377)"/>
<path d="M79.8028 110.199C79.8028 111.715 80.7411 112.963 81.8957 112.963C83.0503 112.963 83.9886 111.733 83.9886 110.199C83.9886 108.666 83.0503 107.436 81.8957 107.436C80.7411 107.436 79.8028 108.684 79.8028 110.199Z" fill="url(#paint29_linear_729_5377)"/>
<path d="M85.5795 111.098C85.5795 112.244 86.2894 113.17 87.1625 113.17C88.0355 113.17 88.7413 112.249 88.7413 111.098C88.7413 109.946 88.0355 109.025 87.1625 109.025C86.2894 109.025 85.5795 109.951 85.5795 111.098Z" fill="url(#paint30_linear_729_5377)"/>
<path d="M146.018 109.154C146.018 110.342 145.287 111.305 144.386 111.305C143.484 111.305 142.754 110.342 142.754 109.154C142.754 107.966 143.484 106.999 144.386 106.999C145.287 106.999 146.018 107.966 146.018 109.154Z" fill="url(#paint31_linear_729_5377)"/>
<path d="M142.754 110.642C142.716 110.907 142.612 111.154 142.454 111.355C142.296 111.556 142.09 111.701 141.861 111.773C141.631 111.846 141.389 111.842 141.161 111.764C140.934 111.685 140.731 111.535 140.577 111.33C140.423 111.126 140.324 110.875 140.292 110.609C140.26 110.343 140.296 110.072 140.396 109.828C140.497 109.585 140.657 109.379 140.858 109.235C141.059 109.091 141.292 109.015 141.53 109.016C141.882 109.052 142.207 109.243 142.436 109.547C142.664 109.851 142.779 110.244 142.754 110.642Z" fill="url(#paint32_linear_729_5377)"/>
<path d="M67.8083 94.6925C67.8083 94.8399 67.7634 94.955 67.7104 94.9458L66.3273 94.7524C66.2743 94.7524 66.2335 94.6188 66.2335 94.4714V93.8451C66.2335 93.6977 66.2743 93.5872 66.3273 93.5964L67.7144 93.7898C67.7675 93.7898 67.8083 93.9188 67.8083 94.0661V94.6925Z" fill="url(#paint33_linear_729_5377)"/>
<path d="M47.5153 112.327C47.5153 112.438 47.4827 112.521 47.4419 112.516L46.4138 112.373C46.373 112.373 46.3444 112.272 46.3444 112.166V111.705C46.3444 111.595 46.3771 111.512 46.4138 111.517L47.446 111.664C47.4827 111.664 47.5153 111.761 47.5153 111.871V112.327Z" fill="url(#paint34_linear_729_5377)"/>
<path d="M37.9725 110.246C37.9725 110.333 37.948 110.402 37.9154 110.398L37.0708 110.305C37.0382 110.305 37.0137 110.223 37.0137 110.135V109.753C37.0137 109.661 37.0382 109.596 37.0708 109.601L37.9154 109.716C37.948 109.716 37.9725 109.799 37.9725 109.886V110.246Z" fill="url(#paint35_linear_729_5377)"/>
<path opacity="0.18" d="M97.2927 31.6928L131.893 94.2688L144.675 93.7161L113.163 32.2547L97.2927 31.6928Z" fill="#FFBA7C"/>
<path opacity="0.18" d="M29.6827 61.8317L38.9642 71.6232L50.6772 67.2433L38.9397 55.301L29.6827 61.8317Z" fill="#FFBA7C"/>
<path d="M129.033 104.378H103.078V113.336H129.033V104.378Z" fill="url(#paint36_linear_729_5377)"/>
<path d="M79.5621 98.5289C79.4877 98.0106 79.5099 97.4804 79.6274 96.9723C81.5 103.065 96.3831 107.897 113.698 107.897C130.151 107.897 143.072 103.526 144.341 97.8657C144.407 98.0787 144.457 98.2975 144.492 98.5197C145.467 104.912 131.718 110.103 113.792 110.103C95.8649 110.103 80.5413 104.926 79.5621 98.5289Z" fill="url(#paint37_linear_729_5377)"/>
<path d="M105.481 69.1776C105.298 69.2953 105.138 69.4517 105.008 69.6382C104.877 69.9222 104.812 70.2392 104.82 70.5593C104.784 70.7885 104.82 71.0247 104.922 71.2271C105.048 71.4113 105.354 71.4344 105.428 71.2271C105.437 71.3502 105.47 71.4696 105.525 71.5763C105.58 71.6831 105.656 71.7747 105.746 71.8443C105.838 71.9102 105.949 71.9362 106.057 71.9176C106.165 71.899 106.263 71.8369 106.334 71.7429C106.291 71.979 106.321 72.2245 106.419 72.4384C106.542 72.6364 106.856 72.6779 106.946 72.4614C106.986 72.7101 107.068 73.0095 107.284 73.0693C107.361 73.0826 107.439 73.072 107.511 73.0387C107.583 73.0055 107.646 72.9508 107.692 72.8805C107.784 72.7376 107.861 72.583 107.921 72.4199C107.94 72.3727 107.969 72.3316 108.006 72.3002C108.057 72.2843 108.111 72.2843 108.161 72.3002C108.278 72.3141 108.396 72.3141 108.512 72.3002C108.569 72.2976 108.624 72.2733 108.667 72.2311C108.689 72.1891 108.702 72.1417 108.704 72.093C108.749 71.4159 108.296 70.8587 107.974 70.2507C107.736 69.7668 107.379 69.3715 106.946 69.1131C106.748 68.9506 106.518 68.8433 106.276 68.8C105.985 68.8368 105.708 68.9679 105.481 69.1776Z" fill="url(#paint38_linear_729_5377)"/>
<path d="M93.3028 73.0002C93.0558 73.1237 92.8361 73.3075 92.6597 73.5385C92.4833 73.7695 92.3546 74.0418 92.2829 74.3359C92.2231 74.6345 92.2708 74.9477 92.4153 75.2067C92.5599 75.4657 92.7895 75.6494 93.0539 75.7175C93.3089 75.7186 93.5623 75.6735 93.8046 75.584C94.3513 75.4504 94.9592 75.5149 95.4365 75.1741L95.5875 75.4182C95.7196 75.438 95.8539 75.4147 95.9747 75.351C96.0954 75.2874 96.1975 75.186 96.2688 75.0589C96.4279 74.8194 96.5177 74.5247 96.6768 74.276C96.8359 74.0273 97.0521 73.774 97.1908 73.4838C97.2629 73.3311 97.3072 73.1638 97.3214 72.9915C97.3355 72.8192 97.3191 72.6455 97.2732 72.4805C97.2272 72.3154 97.1526 72.1624 97.0537 72.0302C96.9549 71.898 96.8336 71.7894 96.6972 71.7107C96.53 71.6372 96.3514 71.6022 96.1721 71.6078C95.9927 71.6133 95.8162 71.6593 95.6528 71.7429C95.2733 71.9179 94.9959 72.268 94.6369 72.4568C94.2085 72.6825 93.7271 72.7377 93.3028 73.0002Z" fill="url(#paint39_linear_729_5377)"/>
<path d="M88.5782 69.7487C88.4885 70.2507 87.4196 71.1304 87.7623 71.5034C87.5308 71.44 87.3144 71.3201 87.1283 71.1522C86.9423 70.9844 86.791 70.7725 86.6852 70.5316C86.4567 69.9974 86.8688 69.2006 87.4481 67.8972C87.8206 66.9077 88.0174 65.8452 88.0274 64.7701L88.0764 64.8253C88.5214 66.415 88.6917 68.0864 88.5782 69.7487Z" fill="url(#paint40_linear_729_5377)"/>
<path d="M89.79 61.8317L91.1975 66.7781L93.4699 66.6353C93.4699 66.6353 91.887 60.7079 91.838 59.9158C91.7891 59.1236 89.6676 59.8697 89.79 61.8317Z" fill="white"/>
<path d="M96.1748 66.1978C96.9733 66.2577 97.775 66.2345 98.5697 66.1287C98.4718 64.4615 97.7986 62.9048 97.1336 61.4218C97.1191 61.379 97.0952 61.3409 97.0642 61.3113C97.0197 61.2825 96.9685 61.2696 96.9174 61.2744H96.285C96.1557 61.255 96.0243 61.2824 95.9097 61.3527C95.6649 61.5324 96.0157 63.1489 96.0443 63.5127C96.1136 64.3878 96.1585 65.2951 96.1748 66.1978Z" fill="white"/>
<defs>
<linearGradient id="paint0_linear_729_5377" x1="100.985" y1="52.1462" x2="48.3515" y2="179.01" gradientUnits="userSpaceOnUse">
<stop offset="0.01"/>
<stop offset="0.83" stop-opacity="0.07"/>
<stop offset="1" stop-opacity="0"/>
</linearGradient>
<linearGradient id="paint1_linear_729_5377" x1="30.1557" y1="107.611" x2="22.294" y2="107.611" gradientUnits="userSpaceOnUse">
<stop offset="0.01"/>
<stop offset="0.83" stop-opacity="0.07"/>
<stop offset="1" stop-opacity="0"/>
</linearGradient>
<linearGradient id="paint2_linear_729_5377" x1="24.3423" y1="107.782" x2="21.4823" y2="107.782" gradientUnits="userSpaceOnUse">
<stop stop-color="white"/>
<stop offset="0.43" stop-color="#FDFDFD"/>
<stop offset="0.68" stop-color="#F5F5F5"/>
<stop offset="0.87" stop-color="#E7E7E8"/>
<stop offset="0.97" stop-color="#DDDEDF"/>
</linearGradient>
<linearGradient id="paint3_linear_729_5377" x1="80.3532" y1="114.289" x2="44.4027" y2="120.038" gradientUnits="userSpaceOnUse">
<stop offset="0.01"/>
<stop offset="0.83" stop-opacity="0.07"/>
<stop offset="1" stop-opacity="0"/>
</linearGradient>
<linearGradient id="paint4_linear_729_5377" x1="61.415" y1="117.757" x2="56.4336" y2="117.757" gradientUnits="userSpaceOnUse">
<stop stop-color="white"/>
<stop offset="0.43" stop-color="#FDFDFD"/>
<stop offset="0.68" stop-color="#F5F5F5"/>
<stop offset="0.87" stop-color="#E7E7E8"/>
<stop offset="0.97" stop-color="#DDDEDF"/>
</linearGradient>
<linearGradient id="paint5_linear_729_5377" x1="148.792" y1="114.289" x2="112.841" y2="120.038" gradientUnits="userSpaceOnUse">
<stop offset="0.01"/>
<stop offset="0.83" stop-opacity="0.07"/>
<stop offset="1" stop-opacity="0"/>
</linearGradient>
<linearGradient id="paint6_linear_729_5377" x1="129.854" y1="117.757" x2="124.872" y2="117.757" gradientUnits="userSpaceOnUse">
<stop stop-color="white"/>
<stop offset="0.43" stop-color="#FDFDFD"/>
<stop offset="0.68" stop-color="#F5F5F5"/>
<stop offset="0.87" stop-color="#E7E7E8"/>
<stop offset="0.97" stop-color="#DDDEDF"/>
</linearGradient>
<linearGradient id="paint7_linear_729_5377" x1="38.246" y1="109.011" x2="28.3526" y2="109.011" gradientUnits="userSpaceOnUse">
<stop offset="0.01"/>
<stop offset="0.83" stop-opacity="0.07"/>
<stop offset="1" stop-opacity="0"/>
</linearGradient>
<linearGradient id="paint8_linear_729_5377" x1="30.5884" y1="109.195" x2="27.4633" y2="109.195" gradientUnits="userSpaceOnUse">
<stop stop-color="white"/>
<stop offset="0.43" stop-color="#FDFDFD"/>
<stop offset="0.68" stop-color="#F5F5F5"/>
<stop offset="0.87" stop-color="#E7E7E8"/>
<stop offset="0.97" stop-color="#DDDEDF"/>
</linearGradient>
<linearGradient id="paint9_linear_729_5377" x1="53.329" y1="52.8785" x2="183.27" y2="70.8344" gradientUnits="userSpaceOnUse">
<stop offset="0.01"/>
<stop offset="0.83" stop-opacity="0.07"/>
<stop offset="1" stop-opacity="0"/>
</linearGradient>
<linearGradient id="paint10_linear_729_5377" x1="104.975" y1="21.8968" x2="112.851" y2="84.6678" gradientUnits="userSpaceOnUse">
<stop offset="0.01"/>
<stop offset="0.83" stop-opacity="0.07"/>
<stop offset="1" stop-opacity="0"/>
</linearGradient>
<linearGradient id="paint11_linear_729_5377" x1="108.786" y1="50.9349" x2="102.114" y2="26.0051" gradientUnits="userSpaceOnUse">
<stop offset="0.01"/>
<stop offset="0.83" stop-opacity="0.07"/>
<stop offset="1" stop-opacity="0"/>
</linearGradient>
<linearGradient id="paint12_linear_729_5377" x1="59.3629" y1="39.0019" x2="105.231" y2="45.4068" gradientUnits="userSpaceOnUse">
<stop stop-color="#2B2B2B"/>
<stop offset="0.22" stop-color="#2E2E2E"/>
<stop offset="0.41" stop-color="#383939"/>
<stop offset="0.6" stop-color="#494A4B"/>
<stop offset="0.77" stop-color="#616264"/>
<stop offset="0.94" stop-color="#7F8184"/>
<stop offset="1" stop-color="#8D8F92"/>
</linearGradient>
<linearGradient id="paint13_linear_729_5377" x1="42.3257" y1="134.733" x2="53.9566" y2="61.5033" gradientUnits="userSpaceOnUse">
<stop offset="0.01"/>
<stop offset="0.83" stop-opacity="0.07"/>
<stop offset="1" stop-opacity="0"/>
</linearGradient>
<linearGradient id="paint14_linear_729_5377" x1="40.5795" y1="35.3819" x2="54.3629" y2="103.098" gradientUnits="userSpaceOnUse">
<stop offset="0.01"/>
<stop offset="0.83" stop-opacity="0.07"/>
<stop offset="1" stop-opacity="0"/>
</linearGradient>
<linearGradient id="paint15_linear_729_5377" x1="65.9517" y1="55.7201" x2="64.3485" y2="45.6278" gradientUnits="userSpaceOnUse">
<stop stop-color="white" stop-opacity="0"/>
<stop offset="0.12" stop-color="white" stop-opacity="0.04"/>
<stop offset="0.33" stop-color="white" stop-opacity="0.14"/>
<stop offset="0.59" stop-color="white" stop-opacity="0.3"/>
<stop offset="0.89" stop-color="white" stop-opacity="0.52"/>
<stop offset="1" stop-color="white" stop-opacity="0.6"/>
</linearGradient>
<linearGradient id="paint16_linear_729_5377" x1="114.579" y1="144.99" x2="102.669" y2="85.5836" gradientUnits="userSpaceOnUse">
<stop offset="0.01"/>
<stop offset="0.83" stop-opacity="0.07"/>
<stop offset="1" stop-opacity="0"/>
</linearGradient>
<linearGradient id="paint17_linear_729_5377" x1="76.0618" y1="85.5504" x2="145.651" y2="85.5504" gradientUnits="userSpaceOnUse">
<stop offset="0.01"/>
<stop offset="0.83" stop-opacity="0.07"/>
<stop offset="1" stop-opacity="0"/>
</linearGradient>
<linearGradient id="paint18_linear_729_5377" x1="113.078" y1="68.7585" x2="130.539" y2="68.7585" gradientUnits="userSpaceOnUse">
<stop offset="0.01"/>
<stop offset="0.83" stop-opacity="0.07"/>
<stop offset="1" stop-opacity="0"/>
</linearGradient>
<linearGradient id="paint19_linear_729_5377" x1="81.508" y1="60.579" x2="117.07" y2="85.8454" gradientUnits="userSpaceOnUse">
<stop offset="0.01"/>
<stop offset="0.83" stop-opacity="0.07"/>
<stop offset="1" stop-opacity="0"/>
</linearGradient>
<linearGradient id="paint20_linear_729_5377" x1="96.7948" y1="74.1424" x2="103.23" y2="69.9735" gradientUnits="userSpaceOnUse">
<stop offset="0.01"/>
<stop offset="0.83" stop-opacity="0.07"/>
<stop offset="1" stop-opacity="0"/>
</linearGradient>
<linearGradient id="paint21_linear_729_5377" x1="91.4752" y1="82.6167" x2="94.4021" y2="66.8088" gradientUnits="userSpaceOnUse">
<stop offset="0.01"/>
<stop offset="0.83" stop-opacity="0.07"/>
<stop offset="1" stop-opacity="0"/>
</linearGradient>
<linearGradient id="paint22_linear_729_5377" x1="86.0976" y1="81.3455" x2="94.4578" y2="70.5967" gradientUnits="userSpaceOnUse">
<stop offset="0.01"/>
<stop offset="0.83" stop-opacity="0.07"/>
<stop offset="1" stop-opacity="0"/>
</linearGradient>
<linearGradient id="paint23_linear_729_5377" x1="91.0018" y1="85.4998" x2="85.4873" y2="67.6771" gradientUnits="userSpaceOnUse">
<stop offset="0.01"/>
<stop offset="0.83" stop-opacity="0.07"/>
<stop offset="1" stop-opacity="0"/>
</linearGradient>
<linearGradient id="paint24_linear_729_5377" x1="91.8178" y1="60.4454" x2="95.8609" y2="60.4454" gradientUnits="userSpaceOnUse">
<stop stop-color="#E5C5D5"/>
<stop offset="0.42" stop-color="#EAD4D1"/>
<stop offset="1" stop-color="#F0E9CB"/>
</linearGradient>
<linearGradient id="paint25_linear_729_5377" x1="95.2692" y1="55.3885" x2="93.5375" y2="63.8256" gradientUnits="userSpaceOnUse">
<stop offset="0.01"/>
<stop offset="0.83" stop-opacity="0.07"/>
<stop offset="1" stop-opacity="0"/>
</linearGradient>
<linearGradient id="paint26_linear_729_5377" x1="91.4096" y1="55.7385" x2="98.6227" y2="55.7385" gradientUnits="userSpaceOnUse">
<stop stop-color="#E5C5D5"/>
<stop offset="0.42" stop-color="#EAD4D1"/>
<stop offset="1" stop-color="#F0E9CB"/>
</linearGradient>
<linearGradient id="paint27_linear_729_5377" x1="143.129" y1="104.627" x2="145.961" y2="104.627" gradientUnits="userSpaceOnUse">
<stop offset="0.02" stop-color="white" stop-opacity="0"/>
<stop offset="0.39" stop-color="white" stop-opacity="0.39"/>
<stop offset="1" stop-color="white"/>
</linearGradient>
<linearGradient id="paint28_linear_729_5377" x1="76.2086" y1="107.455" x2="81.9448" y2="107.455" gradientUnits="userSpaceOnUse">
<stop offset="0.02" stop-color="white" stop-opacity="0"/>
<stop offset="0.39" stop-color="white" stop-opacity="0.39"/>
<stop offset="1" stop-color="white"/>
</linearGradient>
<linearGradient id="paint29_linear_729_5377" x1="79.8028" y1="110.199" x2="83.9886" y2="110.199" gradientUnits="userSpaceOnUse">
<stop offset="0.02" stop-color="white" stop-opacity="0"/>
<stop offset="0.39" stop-color="white" stop-opacity="0.39"/>
<stop offset="1" stop-color="white"/>
</linearGradient>
<linearGradient id="paint30_linear_729_5377" x1="85.5795" y1="111.098" x2="88.7413" y2="111.098" gradientUnits="userSpaceOnUse">
<stop offset="0.02" stop-color="white" stop-opacity="0"/>
<stop offset="0.39" stop-color="white" stop-opacity="0.39"/>
<stop offset="1" stop-color="white"/>
</linearGradient>
<linearGradient id="paint31_linear_729_5377" x1="142.762" y1="109.154" x2="146.018" y2="109.154" gradientUnits="userSpaceOnUse">
<stop offset="0.02" stop-color="white" stop-opacity="0"/>
<stop offset="0.39" stop-color="white" stop-opacity="0.39"/>
<stop offset="1" stop-color="white"/>
</linearGradient>
<linearGradient id="paint32_linear_729_5377" x1="140.294" y1="110.642" x2="142.754" y2="110.642" gradientUnits="userSpaceOnUse">
<stop offset="0.02" stop-color="white" stop-opacity="0"/>
<stop offset="0.39" stop-color="white" stop-opacity="0.39"/>
<stop offset="1" stop-color="white"/>
</linearGradient>
<linearGradient id="paint33_linear_729_5377" x1="64.7241" y1="92.7663" x2="64.6539" y2="94.0358" gradientUnits="userSpaceOnUse">
<stop offset="0.01"/>
<stop offset="0.83" stop-opacity="0.07"/>
<stop offset="1" stop-opacity="0"/>
</linearGradient>
<linearGradient id="paint34_linear_729_5377" x1="44.4826" y1="110.59" x2="44.4305" y2="111.531" gradientUnits="userSpaceOnUse">
<stop offset="0.01"/>
<stop offset="0.83" stop-opacity="0.07"/>
<stop offset="1" stop-opacity="0"/>
</linearGradient>
<linearGradient id="paint35_linear_729_5377" x1="36.7567" y1="90.6396" x2="38.5807" y2="128.193" gradientUnits="userSpaceOnUse">
<stop offset="0.01"/>
<stop offset="0.83" stop-opacity="0.07"/>
<stop offset="1" stop-opacity="0"/>
</linearGradient>
<linearGradient id="paint36_linear_729_5377" x1="117.52" y1="143.083" x2="114.782" y2="92.9146" gradientUnits="userSpaceOnUse">
<stop offset="0.01"/>
<stop offset="0.83" stop-opacity="0.07"/>
<stop offset="1" stop-opacity="0"/>
</linearGradient>
<linearGradient id="paint37_linear_729_5377" x1="107.178" y1="85.0024" x2="126.65" y2="127.583" gradientUnits="userSpaceOnUse">
<stop offset="0.01"/>
<stop offset="0.83" stop-opacity="0.07"/>
<stop offset="1" stop-opacity="0"/>
</linearGradient>
<linearGradient id="paint38_linear_729_5377" x1="104.812" y1="70.937" x2="108.708" y2="70.937" gradientUnits="userSpaceOnUse">
<stop stop-color="#E5C5D5"/>
<stop offset="0.42" stop-color="#EAD4D1"/>
<stop offset="1" stop-color="#F0E9CB"/>
</linearGradient>
<linearGradient id="paint39_linear_729_5377" x1="92.2665" y1="73.6496" x2="97.301" y2="73.6496" gradientUnits="userSpaceOnUse">
<stop stop-color="#E5C5D5"/>
<stop offset="0.42" stop-color="#EAD4D1"/>
<stop offset="1" stop-color="#F0E9CB"/>
</linearGradient>
<linearGradient id="paint40_linear_729_5377" x1="91.1444" y1="70.6882" x2="86.3602" y2="67.837" gradientUnits="userSpaceOnUse">
<stop offset="0.01"/>
<stop offset="0.83" stop-opacity="0.07"/>
<stop offset="1" stop-opacity="0"/>
</linearGradient>
</defs>
</svg>
