<svg width="11" height="19" viewBox="0 0 11 19" fill="none" xmlns="http://www.w3.org/2000/svg">
<path d="M1.06406 10.3754H2.76952L0.623107 17.9171C0.585702 18.043 0.578272 18.176 0.601407 18.3054C0.624543 18.4348 0.677605 18.5569 0.756357 18.6621C0.835109 18.7674 0.93737 18.8527 1.05497 18.9114C1.17258 18.97 1.30227 19.0004 1.43369 19C1.54604 19.0005 1.65735 18.9784 1.76096 18.9349C1.86457 18.8915 1.95837 18.8276 2.03676 18.7471L10.1166 10.6413C10.2453 10.5134 10.333 10.3501 10.3686 10.1723C10.4042 9.99439 10.3861 9.80995 10.3166 9.6424C10.247 9.47485 10.1292 9.33176 9.97816 9.23135C9.82709 9.13093 9.64956 9.07773 9.46815 9.0785H7.87942L9.82481 2.21775C9.89781 1.95885 9.90994 1.68658 9.86027 1.42222C9.8106 1.15786 9.70046 0.90857 9.53846 0.693832C9.37647 0.479095 9.16701 0.30473 8.92645 0.184368C8.68589 0.0640048 8.42076 0.000904919 8.15177 0H3.93676C3.55876 0.00192538 3.19153 0.126133 2.88997 0.354055C2.58842 0.581978 2.36872 0.901375 2.26372 1.2645L0.0394901 9.04607C-0.00460802 9.20233 -0.0118869 9.36668 0.018225 9.52623C0.0483368 9.68577 0.11502 9.83616 0.213039 9.9656C0.311058 10.095 0.437744 10.2 0.583152 10.2722C0.728561 10.3445 0.888733 10.382 1.05109 10.3819L1.06406 10.3754Z" fill="#F65B4E"/>
</svg>
