<svg width="202" height="142" viewBox="0 0 202 142" fill="none" xmlns="http://www.w3.org/2000/svg">
<path d="M100.847 14.6274H44.4734V39.7332H100.847V14.6274Z" fill="#FFBC0E"/>
<path d="M100.855 40.5528H44.4733C44.2478 40.5528 44.0316 40.4638 43.8722 40.3053C43.7128 40.1469 43.6232 39.9319 43.6232 39.7078V14.6274C43.6232 14.4033 43.7128 14.1884 43.8722 14.0299C44.0316 13.8714 44.2478 13.7824 44.4733 13.7824H100.855C101.081 13.7824 101.297 13.8714 101.457 14.0299C101.616 14.1884 101.705 14.4033 101.705 14.6274V39.7078C101.705 39.9319 101.616 40.1469 101.457 40.3053C101.297 40.4638 101.081 40.5528 100.855 40.5528ZM45.3233 38.8628H100.005V15.4724H45.3233V38.8628Z" fill="#093F68"/>
<path d="M196.73 117.577H6.76619V86.311C6.76786 83.2127 7.14458 80.1259 7.88823 77.1171C8.35197 75.3131 8.93987 73.5428 9.64778 71.8188L18.8366 49.4848L20.2646 46.0202C21.0275 44.1596 22.3293 42.5663 24.0046 41.4425C25.6799 40.3186 27.6533 39.7149 29.6744 39.7078H116.215C117.572 39.7078 118.916 39.9785 120.166 40.504C121.415 41.0294 122.546 41.7989 123.492 42.7668L130.045 49.451L152.444 72.3174C154.399 74.3109 156.736 75.8956 159.317 76.9782C161.898 78.0608 164.671 78.6194 167.472 78.6213H184.472C186.684 78.6253 188.816 79.4408 190.46 80.9114C192.104 82.3819 193.144 84.404 193.381 86.5899L194.503 96.5528L196.73 117.577Z" fill="#FFBA7C"/>
<path d="M196.73 118.422H6.76604C6.5406 118.422 6.32439 118.333 6.16498 118.175C6.00557 118.016 5.91601 117.801 5.91601 117.577V86.311C5.92035 83.1445 6.30559 79.9899 7.06355 76.9143C7.53294 75.0582 8.13225 73.237 8.8571 71.4639L19.4824 45.6568C20.313 43.6489 21.7273 41.933 23.5445 40.7287C25.3616 39.5244 27.4988 38.8865 29.6827 38.8966H116.215C117.686 38.8992 119.141 39.1936 120.495 39.7624C121.85 40.3312 123.076 41.163 124.104 42.2091L153.055 71.785C154.935 73.7026 157.182 75.226 159.664 76.2652C162.146 77.3044 164.813 77.8383 167.506 77.8354H184.506C186.363 77.8386 188.18 78.3651 189.748 79.3538C191.316 80.3424 192.57 81.7527 193.364 83.421C193.844 84.4057 194.147 85.467 194.256 86.5561L197.571 117.45C197.585 117.569 197.573 117.689 197.536 117.802C197.499 117.916 197.439 118.021 197.359 118.109C197.282 118.203 197.187 118.279 197.078 118.333C196.97 118.387 196.851 118.418 196.73 118.422ZM7.61606 116.732H195.786L192.565 86.6997C192.469 85.802 192.219 84.9273 191.825 84.114C191.168 82.7339 190.131 81.5672 188.834 80.7491C187.537 79.931 186.034 79.495 184.498 79.4917H167.497C164.582 79.4919 161.696 78.9118 159.01 77.7856C156.324 76.6593 153.892 75.0098 151.857 72.9343L122.913 43.3583C122.042 42.4699 121 41.7639 119.85 41.2821C118.699 40.8002 117.464 40.5523 116.215 40.5528H29.6742C27.8283 40.5583 26.026 41.1113 24.4981 42.1409C22.9701 43.1706 21.7861 44.6302 21.0975 46.3328L10.4381 72.1315C9.74972 73.8336 9.18166 75.5814 8.7381 77.3622C8.0133 80.3022 7.64517 83.3178 7.64156 86.3448L7.61606 116.732Z" fill="#093F68"/>
<path d="M4.09696 111.949H18.1139V120.83H4.09696C3.66943 120.83 3.24609 120.747 2.8511 120.584C2.45612 120.421 2.09722 120.183 1.79491 119.882C1.4926 119.582 1.25279 119.225 1.08918 118.832C0.925576 118.44 0.841367 118.019 0.841367 117.594V115.186C0.841367 114.327 1.18437 113.504 1.79491 112.897C2.40545 112.29 3.23353 111.949 4.09696 111.949Z" fill="#FFBA7C"/>
<path d="M18.08 121.675H4.09712C3.00972 121.673 1.96761 121.242 1.1995 120.477C0.431383 119.712 -2.33059e-06 118.675 0 117.594V115.186C-2.33059e-06 114.105 0.431383 113.068 1.1995 112.303C1.96761 111.537 3.00972 111.106 4.09712 111.104H18.114C18.3395 111.104 18.5557 111.193 18.7151 111.352C18.8745 111.51 18.9641 111.725 18.9641 111.949V120.83C18.9642 120.944 18.9411 121.057 18.8963 121.162C18.8514 121.267 18.7858 121.361 18.7032 121.44C18.6206 121.519 18.5229 121.581 18.4158 121.621C18.3087 121.661 18.1945 121.68 18.08 121.675ZM4.09712 112.794C3.4606 112.796 2.85091 113.049 2.40162 113.498C1.95232 113.946 1.70005 114.553 1.70005 115.186V117.594C1.70005 118.227 1.95232 118.834 2.40162 119.282C2.85091 119.73 3.4606 119.983 4.09712 119.985H17.264V112.794H4.09712Z" fill="#093F68"/>
<path d="M183.92 111.949H197.903C198.766 111.949 199.594 112.29 200.205 112.897C200.815 113.504 201.158 114.327 201.158 115.186V117.594C201.158 118.452 200.815 119.275 200.205 119.882C199.594 120.489 198.766 120.83 197.903 120.83H183.92V111.949Z" fill="#FFBA7C"/>
<path d="M197.903 121.675H183.92C183.694 121.675 183.478 121.586 183.319 121.428C183.159 121.269 183.07 121.054 183.07 120.83V111.949C183.07 111.725 183.159 111.51 183.319 111.352C183.478 111.193 183.694 111.104 183.92 111.104H197.903C198.99 111.106 200.032 111.537 200.8 112.303C201.568 113.068 202 114.105 202 115.186V117.594C202 118.675 201.568 119.712 200.8 120.477C200.032 121.242 198.99 121.673 197.903 121.675ZM184.736 119.985H197.903C198.539 119.983 199.149 119.73 199.598 119.282C200.047 118.834 200.3 118.227 200.3 117.594V115.186C200.3 114.553 200.047 113.946 199.598 113.498C199.149 113.049 198.539 112.796 197.903 112.794H184.77L184.736 119.985Z" fill="#093F68"/>
<path d="M165.721 141.052C177.673 141.052 187.363 131.42 187.363 119.537C187.363 107.655 177.673 98.0231 165.721 98.0231C153.769 98.0231 144.079 107.655 144.079 119.537C144.079 131.42 153.769 141.052 165.721 141.052Z" fill="#093F68"/>
<path d="M165.721 141.888C161.272 141.888 156.923 140.577 153.224 138.12C149.525 135.662 146.643 132.17 144.94 128.084C143.238 123.998 142.793 119.501 143.662 115.164C144.531 110.826 146.674 106.842 149.82 103.716C152.966 100.589 156.975 98.46 161.338 97.5982C165.702 96.7364 170.224 97.1804 174.334 98.874C178.444 100.568 181.956 103.435 184.426 107.113C186.897 110.791 188.214 115.115 188.213 119.537C188.204 125.464 185.831 131.145 181.614 135.335C177.398 139.525 171.683 141.882 165.721 141.888ZM165.721 98.8681C161.609 98.8681 157.589 100.08 154.17 102.352C150.751 104.623 148.086 107.851 146.512 111.628C144.938 115.404 144.527 119.56 145.329 123.57C146.131 127.579 148.111 131.262 151.019 134.153C153.927 137.044 157.631 139.012 161.665 139.81C165.698 140.607 169.878 140.198 173.677 138.633C177.477 137.069 180.724 134.42 183.008 131.021C185.293 127.622 186.513 123.625 186.513 119.537C186.51 114.056 184.319 108.799 180.421 104.922C176.522 101.044 171.235 98.8641 165.721 98.8597V98.8681Z" fill="#093F68"/>
<path d="M165.721 129.965C171.514 129.965 176.21 125.296 176.21 119.537C176.21 113.778 171.514 109.11 165.721 109.11C159.928 109.11 155.232 113.778 155.232 119.537C155.232 125.296 159.928 129.965 165.721 129.965Z" fill="white"/>
<path d="M165.721 130.81C163.478 130.81 161.286 130.149 159.421 128.91C157.556 127.672 156.103 125.911 155.245 123.851C154.386 121.792 154.162 119.525 154.599 117.338C155.037 115.152 156.117 113.143 157.703 111.567C159.289 109.99 161.309 108.916 163.509 108.481C165.708 108.046 167.988 108.27 170.06 109.123C172.132 109.976 173.903 111.421 175.149 113.275C176.395 115.129 177.06 117.308 177.06 119.537C177.056 122.526 175.86 125.39 173.734 127.504C171.608 129.617 168.727 130.806 165.721 130.81ZM165.721 109.955C163.814 109.955 161.951 110.517 160.366 111.57C158.78 112.623 157.545 114.119 156.815 115.87C156.086 117.621 155.895 119.548 156.267 121.407C156.639 123.266 157.557 124.973 158.905 126.313C160.253 127.654 161.97 128.566 163.84 128.936C165.71 129.306 167.648 129.116 169.41 128.391C171.171 127.665 172.676 126.437 173.736 124.861C174.795 123.285 175.36 121.433 175.36 119.537C175.358 116.997 174.342 114.561 172.534 112.764C170.727 110.967 168.277 109.957 165.721 109.955Z" fill="#093F68"/>
<path d="M33.984 141.052C45.9363 141.052 55.6256 131.42 55.6256 119.537C55.6256 107.655 45.9363 98.0231 33.984 98.0231C22.0316 98.0231 12.3423 107.655 12.3423 119.537C12.3423 131.42 22.0316 141.052 33.984 141.052Z" fill="#093F68"/>
<path d="M33.9838 141.888C29.535 141.888 25.1862 140.577 21.4872 138.12C17.7883 135.662 14.9055 132.17 13.2034 128.084C11.5013 123.998 11.0564 119.501 11.925 115.164C12.7935 110.826 14.9365 106.842 18.0828 103.716C21.2292 100.589 25.2376 98.46 29.6011 97.5982C33.9647 96.7364 38.4872 97.1804 42.5969 98.874C46.7066 100.568 50.2187 103.435 52.6891 107.113C55.1595 110.791 56.4772 115.115 56.4755 119.537C56.4687 125.465 54.0967 131.147 49.8799 135.338C45.6631 139.528 39.9461 141.884 33.9838 141.888ZM33.9838 98.8681C29.8716 98.8681 25.8518 100.08 22.4326 102.352C19.0135 104.623 16.3485 107.851 14.7749 111.628C13.2012 115.404 12.7895 119.56 13.5917 123.57C14.394 127.579 16.3742 131.262 19.2819 134.153C22.1897 137.044 25.8944 139.012 29.9276 139.81C33.9608 140.607 38.1413 140.198 41.9404 138.633C45.7396 137.069 48.9868 134.42 51.2714 131.021C53.556 127.622 54.7754 123.625 54.7754 119.537C54.7732 114.056 52.5822 108.799 48.6837 104.922C44.7853 101.044 39.4982 98.8641 33.9838 98.8597V98.8681Z" fill="#093F68"/>
<path d="M33.9839 129.965C39.777 129.965 44.4732 125.296 44.4732 119.537C44.4732 113.778 39.777 109.11 33.9839 109.11C28.1908 109.11 23.4946 113.778 23.4946 119.537C23.4946 125.296 28.1908 129.965 33.9839 129.965Z" fill="white"/>
<path d="M33.9843 130.81C31.7415 130.81 29.5492 130.149 27.6845 128.91C25.8197 127.672 24.3663 125.911 23.5081 123.851C22.6498 121.792 22.4253 119.525 22.8628 117.338C23.3003 115.152 24.3803 113.143 25.9661 111.567C27.552 109.99 29.5724 108.916 31.7721 108.481C33.9717 108.046 36.2516 108.27 38.3236 109.123C40.3956 109.976 42.1666 111.421 43.4126 113.275C44.6585 115.129 45.3236 117.308 45.3236 119.537C45.3191 122.526 44.123 125.39 41.9974 127.504C39.8718 129.617 36.9903 130.806 33.9843 130.81ZM33.9843 109.955C32.0778 109.955 30.2141 110.517 28.629 111.57C27.0438 112.623 25.8083 114.119 25.0787 115.87C24.3491 117.621 24.1582 119.548 24.5302 121.407C24.9021 123.266 25.8202 124.973 27.1682 126.313C28.5163 127.654 30.2339 128.566 32.1037 128.936C33.9736 129.306 35.9117 129.116 37.673 128.391C39.4344 127.665 40.9398 126.437 41.999 124.861C43.0582 123.285 43.6235 121.433 43.6235 119.537C43.6213 116.997 42.605 114.561 40.7978 112.764C38.9905 110.967 36.5401 109.957 33.9843 109.955Z" fill="#093F68"/>
<path d="M71.0792 49.4763V77.1509H7.87985C8.34632 75.3356 8.93705 73.5541 9.64791 71.8188L18.8367 49.4848L71.0792 49.4763Z" fill="white"/>
<path d="M71.0791 77.996H7.88819C7.7562 78.0001 7.62505 77.9737 7.50513 77.9187C7.38521 77.8638 7.27983 77.7818 7.19733 77.6792C7.11484 77.5767 7.0575 77.4565 7.02987 77.3281C7.00225 77.1998 7.00509 77.0668 7.03817 76.9397C7.51009 75.0843 8.10935 73.2632 8.83172 71.4893L18.0205 49.1552C18.0848 48.9996 18.1944 48.8665 18.3352 48.7732C18.4761 48.6799 18.6418 48.6304 18.811 48.6313H71.0791C71.3045 48.6313 71.5207 48.7203 71.6801 48.8788C71.8395 49.0373 71.9291 49.2522 71.9291 49.4763V77.1509C71.9291 77.375 71.8395 77.59 71.6801 77.7485C71.5207 77.9069 71.3045 77.996 71.0791 77.996ZM9.02723 76.3059H70.229V50.3213H19.3975L10.4298 72.1315C9.87368 73.4955 9.3941 74.8891 8.99323 76.3059H9.02723Z" fill="#093F68"/>
<path d="M159.652 77.1509H81.4495V49.4763H129.994L152.393 72.3427C154.441 74.4397 156.916 76.0788 159.652 77.1509Z" fill="white"/>
<path d="M159.652 77.996H81.4493C81.2239 77.996 81.0077 77.9069 80.8483 77.7485C80.6889 77.59 80.5993 77.375 80.5993 77.1509V49.4763C80.5993 49.2522 80.6889 49.0373 80.8483 48.8788C81.0077 48.7203 81.2239 48.6313 81.4493 48.6313H129.994C130.107 48.6317 130.218 48.6544 130.322 48.6979C130.425 48.7414 130.519 48.8049 130.598 48.8848L152.996 71.7512C154.957 73.7561 157.32 75.3282 159.932 76.3651C160.116 76.4374 160.269 76.5714 160.365 76.744C160.46 76.9165 160.492 77.1167 160.455 77.31C160.417 77.5034 160.313 77.6777 160.16 77.8029C160.008 77.9282 159.816 77.9964 159.618 77.996H159.652ZM82.2994 76.3059H156.082C154.527 75.3614 153.099 74.2258 151.831 72.9258L129.688 50.3213H82.3504L82.2994 76.3059Z" fill="#093F68"/>
<path d="M138.07 112.794H63.5989C63.3735 112.794 63.1573 112.705 62.9979 112.547C62.8385 112.388 62.7489 112.173 62.7489 111.949C62.7489 111.725 62.8385 111.51 62.9979 111.352C63.1573 111.193 63.3735 111.104 63.5989 111.104H138.036C138.261 111.104 138.477 111.193 138.637 111.352C138.796 111.51 138.886 111.725 138.886 111.949C138.886 112.173 138.796 112.388 138.637 112.547C138.477 112.705 138.261 112.794 138.036 112.794H138.07Z" fill="#093F68"/>
<path d="M75.7459 109.245C75.5204 109.245 75.3042 109.156 75.1448 108.998C74.9854 108.839 74.8958 108.624 74.8958 108.4V81.6127C74.8958 81.3886 74.9854 81.1736 75.1448 81.0151C75.3042 80.8567 75.5204 80.7676 75.7459 80.7676C75.9713 80.7676 76.1875 80.8567 76.3469 81.0151C76.5063 81.1736 76.5959 81.3886 76.5959 81.6127V108.4C76.5959 108.624 76.5063 108.839 76.3469 108.998C76.1875 109.156 75.9713 109.245 75.7459 109.245Z" fill="#093F68"/>
<path d="M95.8998 86.8941H86.7111C86.4856 86.8941 86.2694 86.8051 86.11 86.6466C85.9506 86.4881 85.861 86.2732 85.861 86.0491C85.861 85.8249 85.9506 85.61 86.11 85.4515C86.2694 85.2931 86.4856 85.204 86.7111 85.204H95.8998C96.1253 85.204 96.3415 85.2931 96.5009 85.4515C96.6603 85.61 96.7499 85.8249 96.7499 86.0491C96.7499 86.2732 96.6603 86.4881 96.5009 86.6466C96.3415 86.8051 96.1253 86.8941 95.8998 86.8941Z" fill="#093F68"/>
<path d="M64.7803 86.8941H55.6255C55.4001 86.8941 55.1839 86.8051 55.0245 86.6466C54.8651 86.4881 54.7755 86.2732 54.7755 86.0491C54.7755 85.8249 54.8651 85.61 55.0245 85.4515C55.1839 85.2931 55.4001 85.204 55.6255 85.204H64.7803C65.0058 85.204 65.222 85.2931 65.3814 85.4515C65.5408 85.61 65.6303 85.8249 65.6303 86.0491C65.6303 86.2732 65.5408 86.4881 65.3814 86.6466C65.222 86.8051 65.0058 86.8941 64.7803 86.8941Z" fill="#093F68"/>
<path d="M6.76631 83.8267H1.85316V98.0316H6.76631V83.8267Z" fill="#FFBC0E"/>
<path d="M6.76615 98.8597H1.853C1.62756 98.8597 1.41136 98.7706 1.25195 98.6122C1.09253 98.4537 1.00298 98.2388 1.00298 98.0146V83.8267C1.00298 83.6025 1.09253 83.3876 1.25195 83.2291C1.41136 83.0707 1.62756 82.9816 1.853 82.9816H6.76615C6.99159 82.9816 7.2078 83.0707 7.36721 83.2291C7.52662 83.3876 7.61617 83.6025 7.61617 83.8267V98.0146C7.61617 98.2388 7.52662 98.4537 7.36721 98.6122C7.2078 98.7706 6.99159 98.8597 6.76615 98.8597ZM2.70303 97.1696H5.91612V84.6717H2.70303V97.1696Z" fill="#093F68"/>
<path d="M194.503 96.5528H187.363C186.427 96.5528 185.53 96.1833 184.868 95.5256C184.207 94.868 183.835 93.976 183.835 93.0459V87.249C183.835 86.3189 184.207 85.4269 184.868 84.7693C185.53 84.1116 186.427 83.7421 187.363 83.7421H192.59C193.036 84.645 193.323 85.6165 193.44 86.6152L194.503 96.5528Z" fill="#FFBC0E"/>
<path d="M194.503 97.3978H187.363C186.202 97.3956 185.09 96.9363 184.27 96.1207C183.449 95.305 182.987 94.1994 182.985 93.0459V87.249C182.987 86.0955 183.449 84.9899 184.27 84.1742C185.09 83.3586 186.202 82.8994 187.363 82.8971H192.59C192.751 82.8976 192.907 82.943 193.043 83.0283C193.178 83.1135 193.286 83.235 193.355 83.3788C193.835 84.3669 194.137 85.4308 194.248 86.5223L195.353 96.4683C195.365 96.5854 195.352 96.7039 195.316 96.8159C195.279 96.928 195.219 97.0312 195.14 97.1189C195.06 97.2075 194.962 97.2782 194.852 97.3263C194.742 97.3743 194.623 97.3987 194.503 97.3978ZM187.388 84.5872C186.678 84.5872 185.997 84.8676 185.495 85.3668C184.993 85.866 184.711 86.543 184.711 87.249V93.0459C184.711 93.7519 184.993 94.4289 185.495 94.9281C185.997 95.4273 186.678 95.7077 187.388 95.7077H193.559L192.59 86.6997C192.507 85.9759 192.33 85.2658 192.063 84.5872H187.388Z" fill="#093F68"/>
<path d="M24.7359 72.0047C24.604 72.0047 24.4738 71.9742 24.3558 71.9155C24.2378 71.8568 24.1351 71.7717 24.0559 71.6667C23.9207 71.4874 23.8626 71.2621 23.8944 71.0402C23.9263 70.8183 24.0456 70.6181 24.2259 70.4837L45.6635 54.5042C45.7528 54.4376 45.8545 54.3892 45.9626 54.3617C46.0707 54.3341 46.1833 54.328 46.2938 54.3437C46.4043 54.3594 46.5106 54.3966 46.6066 54.4531C46.7027 54.5097 46.7866 54.5845 46.8536 54.6732C46.9206 54.762 46.9693 54.863 46.997 54.9705C47.0247 55.078 47.0308 55.1899 47.015 55.2997C46.9993 55.4096 46.9619 55.5153 46.905 55.6108C46.8481 55.7063 46.7729 55.7897 46.6836 55.8563L25.2459 71.8188C25.101 71.9346 24.9218 71.9999 24.7359 72.0047Z" fill="#DFEAEF"/>
<path d="M49.5226 69.4189C49.3463 69.4197 49.1741 69.3659 49.0299 69.265C48.8856 69.1641 48.7765 69.0211 48.7177 68.8559C48.6589 68.6906 48.6532 68.5112 48.7015 68.3426C48.7497 68.174 48.8496 68.0245 48.9871 67.9148L64.2451 55.4844C64.3315 55.4138 64.4311 55.3608 64.5382 55.3285C64.6453 55.2961 64.7577 55.2852 64.869 55.2962C64.9804 55.3072 65.0885 55.3399 65.1871 55.3925C65.2857 55.4451 65.3728 55.5166 65.4436 55.6028C65.5147 55.6887 65.568 55.7877 65.6005 55.8941C65.633 56.0006 65.6441 56.1124 65.633 56.2231C65.6219 56.3338 65.589 56.4412 65.5361 56.5392C65.4832 56.6372 65.4113 56.7239 65.3246 56.7942L50.0666 69.2246C49.9137 69.3506 49.7212 69.4193 49.5226 69.4189Z" fill="#DFEAEF"/>
<path d="M91.2844 72.0047C91.1664 72.0055 91.0496 71.9819 90.9413 71.9353C90.833 71.8888 90.7356 71.8203 90.6554 71.7343C90.5795 71.6519 90.5208 71.5554 90.4826 71.4503C90.4445 71.3452 90.4277 71.2336 90.4333 71.122C90.4388 71.0104 90.4665 70.901 90.5149 70.8002C90.5632 70.6993 90.6312 70.609 90.7149 70.5344L110.35 52.6283C110.517 52.477 110.738 52.3978 110.963 52.4081C111.189 52.4184 111.401 52.5173 111.553 52.6832C111.705 52.849 111.785 53.0682 111.775 53.2924C111.764 53.5167 111.665 53.7276 111.498 53.8789L91.8624 71.8188C91.6994 71.9495 91.4935 72.0157 91.2844 72.0047Z" fill="#DFEAEF"/>
<path d="M117.405 69.419C117.181 69.4158 116.967 69.3247 116.81 69.1654C116.652 69.0071 116.563 68.7929 116.563 68.5697C116.563 68.3465 116.652 68.1323 116.81 67.974L126.161 58.6787C126.32 58.5213 126.535 58.4329 126.76 58.4329C126.984 58.4329 127.2 58.5213 127.359 58.6787C127.517 58.837 127.606 59.0512 127.606 59.2744C127.606 59.4976 127.517 59.7118 127.359 59.8701L118.009 69.1654C117.93 69.2453 117.836 69.3088 117.733 69.3523C117.629 69.3958 117.518 69.4185 117.405 69.419Z" fill="#DFEAEF"/>
<path d="M110.928 40.5528H33.8481C33.7103 40.5596 33.573 40.533 33.448 40.4753C33.3229 40.4176 33.2138 40.3305 33.1302 40.2216C33.0465 40.1126 32.9908 39.9851 32.9677 39.8499C32.9447 39.7148 32.9551 39.5761 32.998 39.4458L36.6701 28.2492C36.7278 28.0728 36.8422 27.92 36.9959 27.8147C37.1495 27.7093 37.3337 27.6571 37.5202 27.6662H107.222C107.401 27.6663 107.576 27.7228 107.721 27.8275C107.866 27.9322 107.974 28.0798 108.03 28.2492L111.702 39.4458C111.744 39.5729 111.755 39.7081 111.735 39.8404C111.714 39.9726 111.662 40.098 111.583 40.2064C111.507 40.3095 111.409 40.3943 111.296 40.4543C111.182 40.5143 111.057 40.548 110.928 40.5528ZM35.0381 38.8628H109.764L106.644 29.3562H38.1577L35.0381 38.8628Z" fill="#093F68"/>
<path d="M92.4403 0.904183H55.4812V14.6274H92.4403V0.904183Z" fill="#F56132"/>
<path d="M92.4317 15.4724H55.4811C55.2556 15.4724 55.0394 15.3834 54.88 15.2249C54.7206 15.0665 54.631 14.8515 54.631 14.6274V0.904178C54.631 0.680063 54.7206 0.465126 54.88 0.306653C55.0394 0.14818 55.2556 0.0591509 55.4811 0.0591509H92.4317C92.6571 0.0591509 92.8733 0.14818 93.0327 0.306653C93.1921 0.465126 93.2817 0.680063 93.2817 0.904178V14.6274C93.2817 14.8515 93.1921 15.0665 93.0327 15.2249C92.8733 15.3834 92.6571 15.4724 92.4317 15.4724ZM56.3311 13.7824H91.5816V1.7492H56.3311V13.7824Z" fill="#093F68"/>
<path d="M56.6713 40.5528C56.5896 40.5647 56.5065 40.5647 56.4248 40.5528C56.21 40.4883 56.0295 40.3419 55.9228 40.1456C55.8161 39.9493 55.7918 39.719 55.8553 39.505L67.4666 0.63377C67.5316 0.420178 67.6788 0.240772 67.8763 0.134704C68.0737 0.0286369 68.3054 0.00451223 68.5207 0.0675971C68.7371 0.130349 68.9196 0.276003 69.028 0.47251C69.1364 0.669017 69.1618 0.900285 69.0987 1.11544L57.4873 39.9867C57.4284 40.1543 57.3179 40.2992 57.1714 40.4009C57.0249 40.5025 56.8499 40.5557 56.6713 40.5528Z" fill="#093F68"/>
<path d="M91.7774 40.5528C91.5877 40.5603 91.401 40.5045 91.2469 40.3942C91.0929 40.284 90.9804 40.1256 90.9274 39.9444L79.6051 1.07318C79.5445 0.859181 79.5712 0.630081 79.6794 0.435526C79.7876 0.240971 79.9686 0.096638 80.1831 0.0338044C80.2902 0.00273267 80.4025 -0.00705589 80.5135 0.00500547C80.6244 0.0170668 80.7319 0.0507383 80.8298 0.104097C80.9277 0.157455 81.014 0.229453 81.0839 0.315985C81.1538 0.402517 81.2059 0.501891 81.2371 0.608423L92.5595 39.4797C92.6226 39.6948 92.5971 39.9261 92.4887 40.1226C92.3803 40.3191 92.1979 40.4647 91.9814 40.5275C91.915 40.5454 91.8463 40.554 91.7774 40.5528Z" fill="#093F68"/>
<path d="M53.0247 18.8779H48.7066C48.4811 18.8779 48.2649 18.7889 48.1055 18.6304C47.9461 18.4719 47.8565 18.257 47.8565 18.0329C47.8565 17.8088 47.9461 17.5938 48.1055 17.4353C48.2649 17.2769 48.4811 17.1878 48.7066 17.1878H53.0247C53.2501 17.1878 53.4663 17.2769 53.6257 17.4353C53.7852 17.5938 53.8747 17.8088 53.8747 18.0329C53.8747 18.257 53.7852 18.4719 53.6257 18.6304C53.4663 18.7889 53.2501 18.8779 53.0247 18.8779Z" fill="#093F68"/>
<path d="M61.0486 4.96875H58.371C58.1456 4.96875 57.9294 4.87972 57.7699 4.72125C57.6105 4.56278 57.521 4.34784 57.521 4.12373C57.521 3.89961 57.6105 3.68467 57.7699 3.5262C57.9294 3.36773 58.1456 3.2787 58.371 3.2787H61.0486C61.274 3.2787 61.4902 3.36773 61.6496 3.5262C61.809 3.68467 61.8986 3.89961 61.8986 4.12373C61.8986 4.34784 61.809 4.56278 61.6496 4.72125C61.4902 4.87972 61.274 4.96875 61.0486 4.96875Z" fill="#093F68"/>
</svg>
