<svg width="172" height="172" viewBox="0 0 172 172" fill="none" xmlns="http://www.w3.org/2000/svg">
<circle opacity="0.2" cx="86" cy="66" r="32" fill="#FC9D45"/>
<g filter="url(#filter0_d_0_18)">
<circle cx="86" cy="66" r="26" fill="#FC9D45"/>
</g>
<path d="M92.891 63.1849C93.3311 63.1849 93.719 63.3446 94.0453 63.6261C94.3263 63.933 94.5001 64.3174 94.5001 64.7455V66.8062C94.5001 67.2522 94.3369 67.6322 94.0461 67.9257C93.7374 68.2128 93.3487 68.391 92.9152 68.391H89.4243C88.842 68.391 88.4152 68.8729 88.4152 69.4001V72.9152C88.4152 73.3613 88.252 73.7413 87.9613 74.0348C87.6525 74.3219 87.2638 74.5001 86.8304 74.5001H84.7698C84.3237 74.5001 83.9437 74.3369 83.6502 74.0461C83.3631 73.7373 83.1849 73.3487 83.1849 72.9152V69.4243C83.1849 68.842 82.7031 68.4152 82.1759 68.4152H78.6849C78.2389 68.4152 77.8589 68.252 77.5654 67.9613C77.2783 67.6525 77.1001 67.2638 77.1001 66.8304V64.7698C77.1001 64.3237 77.2633 63.9437 77.5541 63.6502C77.8628 63.3631 78.2515 63.1849 78.6849 63.1849H82.1516C82.734 63.1849 83.1607 62.7031 83.1607 62.1759V58.6849C83.1607 58.2389 83.3239 57.8589 83.6147 57.5654C83.9234 57.2783 84.3121 57.1001 84.7455 57.1001H86.8062C87.2522 57.1001 87.6322 57.2633 87.9257 57.5541C88.2128 57.8628 88.391 58.2515 88.391 58.6849V62.1759C88.391 62.7582 88.8729 63.1849 89.4001 63.1849H92.891Z" fill="#573353" stroke="#FC9D45"/>
<defs>
<filter id="filter0_d_0_18" x="0" y="0" width="172" height="172" filterUnits="userSpaceOnUse" color-interpolation-filters="sRGB">
<feFlood flood-opacity="0" result="BackgroundImageFix"/>
<feColorMatrix in="SourceAlpha" type="matrix" values="0 0 0 0 0 0 0 0 0 0 0 0 0 0 0 0 0 0 127 0" result="hardAlpha"/>
<feOffset dy="20"/>
<feGaussianBlur stdDeviation="30"/>
<feColorMatrix type="matrix" values="0 0 0 0 0.816667 0 0 0 0 0.495169 0 0 0 0 0.197361 0 0 0 0.5 0"/>
<feBlend mode="normal" in2="BackgroundImageFix" result="effect1_dropShadow_0_18"/>
<feBlend mode="normal" in="SourceGraphic" in2="effect1_dropShadow_0_18" result="shape"/>
</filter>
</defs>
</svg>
