<svg width="24" height="12" viewBox="0 0 24 12" fill="none" xmlns="http://www.w3.org/2000/svg">
<path d="M13.0979 10.487C17.1185 9.44612 20.4039 7.00698 22.3242 4.44355C24.2295 1.88012 24.3195 0.34207 23.5394 0.0313513C22.7593 -0.279367 21.7991 1.78691 20.1939 3.24729C18.5737 4.70766 18.1986 4.58338 18.2886 3.86873C18.3786 3.15407 18.9187 2.92103 19.5638 2.01995C20.2089 1.11886 19.4438 0.109031 18.6637 0.652788C17.8836 1.21208 17.1335 2.50156 15.3332 3.54247C13.5479 4.58338 11.1776 5.42231 7.037 6.16804C2.8964 6.91376 1.96627 5.46892 1.66623 6.58751C1.36619 7.7061 2.91141 8.28092 4.47163 8.24985C6.03186 8.21878 6.3469 8.12556 6.37691 8.63825C6.40691 9.15093 4.65166 9.36844 2.40133 9.36844C0.15101 9.36844 -0.0740211 9.75684 0.0159918 10.5336C0.0910026 11.3104 4.44163 12.7242 13.0979 10.487Z" fill="#FFF5FA"/>
</svg>
