<svg width="14" height="13" viewBox="0 0 14 13" fill="none" xmlns="http://www.w3.org/2000/svg">
<g clip-path="url(#clip0_425_58)">
<path d="M10.7872 4.65708C10.6819 4.65708 10.5764 4.61697 10.496 4.53654C10.3353 4.37571 10.3353 4.11491 10.496 3.95408L12.1218 2.32869L10.496 0.703091C10.3353 0.542257 10.3353 0.281459 10.496 0.120625C10.6568 -0.0402084 10.9176 -0.0402084 11.0784 0.120625L12.9953 2.03747C13.0725 2.11469 13.1158 2.21956 13.1158 2.32872C13.1158 2.43789 13.0725 2.54276 12.9953 2.61997L11.0784 4.5366C10.998 4.61697 10.8925 4.65708 10.7872 4.65708Z" fill="#FC9D45"/>
<path d="M1.31703 6.97385C1.08972 6.97385 0.905273 6.78941 0.905273 6.56209V4.08038C0.905273 2.88733 1.8757 1.9169 3.06875 1.9169H12.704C12.9313 1.9169 13.1157 2.10135 13.1157 2.32866C13.1157 2.55597 12.9313 2.74042 12.704 2.74042H3.06872C2.3299 2.74042 1.72879 3.34156 1.72879 4.08035V6.56209C1.72879 6.78944 1.54435 6.97385 1.31703 6.97385Z" fill="#FC9D45"/>
<path d="M11.068 11.106H1.41176C1.18444 11.106 1 10.9216 1 10.6943C1 10.467 1.18444 10.2825 1.41176 10.2825H11.068C11.807 10.2825 12.4081 9.68139 12.4081 8.94259V6.41176C12.4081 6.18445 12.5926 6 12.8199 6C13.0472 6 13.2317 6.18445 13.2317 6.41176V8.94259C13.2317 10.1356 12.261 11.106 11.068 11.106Z" fill="#FC9D45"/>
<path d="M3.32864 13.0229C3.22334 13.0229 3.11783 12.9828 3.03739 12.9023L1.12054 10.9855C1.04333 10.9083 1 10.8034 1 10.6942C1 10.5851 1.04333 10.4802 1.12054 10.403L3.03739 8.48635C3.19823 8.32551 3.45903 8.32551 3.61986 8.48635C3.78048 8.64718 3.78048 8.90798 3.61986 9.06881L1.99404 10.6942L3.61986 12.3198C3.78048 12.4806 3.78048 12.7414 3.61986 12.9023C3.53946 12.9828 3.43394 13.0229 3.32864 13.0229Z" fill="#FC9D45"/>
</g>
<defs>
<clipPath id="clip0_425_58">
<rect width="14" height="13" fill="white"/>
</clipPath>
</defs>
</svg>
