<svg width="18" height="18" viewBox="0 0 18 18" fill="none" xmlns="http://www.w3.org/2000/svg">
<path d="M9 0C7.21997 0 5.47991 0.527841 3.99987 1.51677C2.51983 2.50571 1.36628 3.91131 0.685088 5.55585C0.00389956 7.20038 -0.17433 9.00998 0.172937 10.7558C0.520203 12.5016 1.37737 14.1053 2.63604 15.364C3.89471 16.6226 5.49836 17.4798 7.24419 17.8271C8.99002 18.1743 10.7996 17.9961 12.4442 17.3149C14.0887 16.6337 15.4943 15.4802 16.4832 14.0001C17.4722 12.5201 18 10.78 18 9C17.9973 6.61389 17.0482 4.3263 15.3609 2.63906C13.6737 0.951831 11.3861 0.0027393 9 0ZM12.1974 11.605L8.59743 9.80505C8.44794 9.73029 8.32222 9.61537 8.23437 9.47318C8.14651 9.33099 8.09998 9.16714 8.1 9V4.5C8.1 4.2613 8.19482 4.03239 8.36361 3.8636C8.53239 3.69482 8.76131 3.6 9 3.6C9.2387 3.6 9.46762 3.69482 9.6364 3.8636C9.80518 4.03239 9.9 4.2613 9.9 4.5V8.44362L13.0026 9.99486C13.2161 10.1016 13.3785 10.2888 13.4539 10.5153C13.5294 10.7418 13.5119 10.989 13.4051 11.2025C13.2983 11.416 13.1111 11.5784 12.8846 11.6539C12.6581 11.7294 12.411 11.7118 12.1974 11.605Z" fill="#FDA758"/>
</svg>
