<svg width="18" height="18" viewBox="0 0 18 18" fill="none" xmlns="http://www.w3.org/2000/svg">
<path d="M13.9091 0H4.09091C3.00633 0.00129915 1.96655 0.432719 1.19963 1.19963C0.432722 1.96653 0.00129916 3.00631 0 4.09088V10.6363C0.00119007 11.579 0.327347 12.4925 0.923497 13.2228C1.51965 13.953 2.34934 14.4555 3.27273 14.6454V17.1817C3.27271 17.3298 3.3129 17.4752 3.38901 17.6023C3.46513 17.7293 3.57431 17.8333 3.70492 17.9032C3.83553 17.9731 3.98265 18.0062 4.1306 17.999C4.27856 17.9918 4.42178 17.9446 4.545 17.8624L9.24545 14.7272H13.9091C14.9937 14.7259 16.0335 14.2945 16.8004 13.5275C17.5673 12.7606 17.9987 11.7209 18 10.6363V4.09088C17.9987 3.00631 17.5673 1.96653 16.8004 1.19963C16.0335 0.432719 14.9937 0.00129915 13.9091 0ZM12.2727 9.81811H5.72727C5.51028 9.81811 5.30217 9.73191 5.14873 9.57848C4.99529 9.42504 4.90909 9.21693 4.90909 8.99994C4.90909 8.78294 4.99529 8.57484 5.14873 8.4214C5.30217 8.26796 5.51028 8.18176 5.72727 8.18176H12.2727C12.4897 8.18176 12.6978 8.26796 12.8513 8.4214C13.0047 8.57484 13.0909 8.78294 13.0909 8.99994C13.0909 9.21693 13.0047 9.42504 12.8513 9.57848C12.6978 9.73191 12.4897 9.81811 12.2727 9.81811ZM13.9091 6.54541H4.09091C3.87391 6.54541 3.66581 6.45921 3.51237 6.30577C3.35893 6.15233 3.27273 5.94423 3.27273 5.72723C3.27273 5.51024 3.35893 5.30213 3.51237 5.1487C3.66581 4.99526 3.87391 4.90906 4.09091 4.90906H13.9091C14.1261 4.90906 14.3342 4.99526 14.4876 5.1487C14.6411 5.30213 14.7273 5.51024 14.7273 5.72723C14.7273 5.94423 14.6411 6.15233 14.4876 6.30577C14.3342 6.45921 14.1261 6.54541 13.9091 6.54541Z" fill="#FDA758"/>
</svg>
