<svg width="15" height="22" viewBox="0 0 15 22" fill="none" xmlns="http://www.w3.org/2000/svg">
<path d="M8.20755 6.29717V5.55424C9.23873 5.63906 10.244 5.9213 11.1686 6.38561C11.2762 6.43611 11.3947 6.45871 11.5133 6.45133C11.6319 6.44395 11.7467 6.40682 11.8472 6.34337C11.9476 6.27993 12.0305 6.1922 12.0881 6.08829C12.1457 5.98438 12.1763 5.86764 12.1769 5.74882V0.707547C12.1769 0.519894 12.1023 0.339927 11.9697 0.207236C11.837 0.0745449 11.657 0 11.4693 0H3.53066C3.34301 0 3.16304 0.0745449 3.03035 0.207236C2.89766 0.339927 2.82311 0.519894 2.82311 0.707547V5.74882C2.82347 5.86846 2.85416 5.98606 2.91232 6.09062C2.97048 6.19518 3.0542 6.28329 3.15566 6.3467C3.22834 6.39628 3.31046 6.43035 3.39689 6.44678C3.48332 6.46321 3.57221 6.46166 3.65802 6.44222H3.67925C3.73687 6.42655 3.79356 6.40765 3.84906 6.38561C4.76679 5.91973 5.76659 5.63733 6.79245 5.55424V6.29717C3.39623 6.59788 0.191038 9.07429 0 13.7264C0.424528 23.6781 14.5755 23.671 15 13.7264C14.809 9.07429 11.6038 6.59788 8.20755 6.29717Z" fill="#FDA758"/>
<path d="M9.17329 14.101L10.2472 13.0189C10.3071 12.9609 10.3498 12.8863 10.3705 12.8038C10.3912 12.7213 10.3889 12.6344 10.3638 12.5532C10.3388 12.4721 10.2921 12.4001 10.2292 12.3456C10.1663 12.2912 10.0898 12.2566 10.0088 12.2459L8.5397 12.0219L7.88035 10.6327C7.84472 10.5582 7.78987 10.4954 7.72196 10.4516C7.65405 10.4077 7.57577 10.3845 7.4959 10.3845C7.41604 10.3845 7.33775 10.4077 7.26984 10.4516C7.20193 10.4954 7.14708 10.5582 7.11146 10.6327L6.4521 12.0219L4.98304 12.2459C4.90376 12.2579 4.82927 12.2928 4.76801 12.3467C4.70674 12.4005 4.66113 12.4712 4.63633 12.5507C4.61153 12.6301 4.60853 12.7152 4.62767 12.7964C4.64681 12.8776 4.68733 12.9515 4.74464 13.0099L5.80778 14.0921L5.55649 15.6201C5.54116 15.7041 5.54918 15.7909 5.57963 15.8703C5.61008 15.9497 5.66167 16.0184 5.72831 16.0682C5.79328 16.1174 5.87019 16.1467 5.95029 16.1526C6.03039 16.1586 6.11049 16.141 6.18148 16.1018L7.4959 15.3804L8.80602 16.1018C8.87699 16.1406 8.95694 16.158 9.03686 16.1519C9.11677 16.1458 9.19346 16.1165 9.25825 16.0673C9.32304 16.0181 9.37336 15.951 9.40351 15.8736C9.43366 15.7961 9.44244 15.7114 9.42887 15.6291L9.17329 14.101Z" fill="#F7F5F7"/>
</svg>
