<svg width="8" height="26" viewBox="0 0 8 26" fill="none" xmlns="http://www.w3.org/2000/svg">
<path d="M4.3298 26.0001L3.38266 17.5617V17.5306C3.39769 17.4839 4.70565 12.6887 5.05143 11.0228C5.47239 8.98326 6.37443 3.67426 6.79538 1.24551C5.92341 3.54971 3.99905 8.60961 3.21728 10.4779C2.54075 12.0815 0.466057 16.3007 0.25558 16.7522L1.77402 25.9222L1.53347 25.969L0 16.7054L0.0150349 16.6743C0.045103 16.6276 2.28517 12.0659 2.99177 10.3845C4.01409 7.94015 6.97579 0.0778446 7.00586 0L7.2464 0.0622747C7.23137 0.140119 5.84824 8.42278 5.30701 11.0851C4.97626 12.7042 3.74347 17.2037 3.63824 17.5773L4.58538 25.969L4.3298 26.0001Z" fill="#EA3D2A"/>
</svg>
