<svg width="18" height="18" viewBox="0 0 18 18" fill="none" xmlns="http://www.w3.org/2000/svg">
<path d="M8.99997 0C4.0412 0 0 4.0412 0 8.99997C0 10.3588 0.315087 11.7087 0.908786 12.9331L0.413963 15.147C0.261034 15.8396 0.387157 16.4882 0.765085 16.9558C1.22387 17.5412 2.00698 17.7749 2.85292 17.586L5.06688 17.0999C6.29119 17.6853 7.64118 17.9999 8.99997 17.9999C13.9587 17.9999 17.9999 13.9587 17.9999 8.99997C17.9999 4.0412 13.9587 0 8.99997 0Z" fill="#FDA758"/>
<path d="M10.3245 13.0002C11.2547 13.0002 12.0392 12.6013 12.6075 11.8485L13.0002 11.3267L10.5092 8.76244L9.95592 9.30753C9.90187 9.36901 9.82529 9.39975 9.73295 9.39975C9.61734 9.39975 9.5021 9.34577 9.41764 9.26104L8.74085 8.5855C8.65639 8.50902 8.61022 8.4093 8.60271 8.30958C8.60271 8.22485 8.62561 8.15587 8.69468 8.09439L9.23296 7.54931L6.68082 5.00007L6.15042 5.3997C5.08174 6.20571 4.73565 7.47208 5.20486 8.88541C5.858 10.8273 8.11811 13.0002 10.317 13.0002H10.3245Z" fill="white"/>
</svg>
