<svg width="18" height="4" viewBox="0 0 18 4" fill="none" xmlns="http://www.w3.org/2000/svg">
<g clip-path="url(#clip0_0_6)">
<path d="M1.79861 3.6253C2.79195 3.6253 3.59722 2.82003 3.59722 1.82669C3.59722 0.833342 2.79195 0.0280762 1.79861 0.0280762C0.805265 0.0280762 0 0.833342 0 1.82669C0 2.82003 0.805265 3.6253 1.79861 3.6253Z" fill="#FC9D45"/>
<path d="M8.99295 3.6253C9.9863 3.6253 10.7916 2.82003 10.7916 1.82669C10.7916 0.833342 9.9863 0.0280762 8.99295 0.0280762C7.9996 0.0280762 7.19434 0.833342 7.19434 1.82669C7.19434 2.82003 7.9996 3.6253 8.99295 3.6253Z" fill="#FC9D45"/>
<path d="M16.1873 3.6253C17.1806 3.6253 17.9859 2.82003 17.9859 1.82669C17.9859 0.833342 17.1806 0.0280762 16.1873 0.0280762C15.1939 0.0280762 14.3887 0.833342 14.3887 1.82669C14.3887 2.82003 15.1939 3.6253 16.1873 3.6253Z" fill="#FC9D45"/>
</g>
<defs>
<clipPath id="clip0_0_6">
<rect width="18" height="3.62529" fill="white"/>
</clipPath>
</defs>
</svg>
