<svg width="270" height="264" viewBox="0 0 270 264" fill="none" xmlns="http://www.w3.org/2000/svg">
<path d="M57.8793 99.2219C55.0681 98.3991 52.9425 99.9761 55.3423 102.307C57.7422 104.639 61.719 107.244 59.5249 108.89C57.3308 110.535 36.8295 106.147 22.5677 100.182C8.30592 94.2166 7.14029 91.4053 2.34065 95.3136C-2.45898 99.2219 -0.127734 104.364 11.6657 109.713C23.459 115.061 48.0058 120.546 57.4679 119.586C66.93 118.626 69.7412 117.461 67.8214 114.649C65.9015 111.838 64.7359 109.164 68.0957 109.438C71.4554 109.713 82.7688 110.741 85.7857 109.027C88.8027 107.313 88.3227 107.038 83.0431 105.941C77.7635 104.844 63.0218 100.662 57.8793 99.2219Z" fill="url(#paint0_linear_485_0)"/>
<path d="M41.7664 93.8737C36.8296 92.091 31.4815 89.0741 29.6987 92.091C27.9846 95.1079 36.5554 99.2904 42.1092 99.0162C47.6631 98.7419 48.8287 96.4107 41.7664 93.8737Z" fill="url(#paint1_linear_485_0)"/>
<path d="M97.7162 96.8221C94.6307 96.685 94.6993 104.227 100.459 105.256C117.326 108.273 139.542 103.267 154.146 98.8105C156.477 98.0563 156.82 101.622 152.638 104.639C148.455 107.656 141.599 109.37 145.918 111.907C150.238 114.444 173.002 106.696 180.064 99.9761C187.127 93.2567 180.887 92.1596 176.91 91.9539C172.933 91.7482 171.836 87.9085 178.35 84.5487C184.932 81.2576 202.074 72.0011 200.703 69.0528C199.331 66.1044 177.527 79.612 155.243 86.6057C123.429 96.8221 112.184 97.3021 97.7162 96.8221Z" fill="url(#paint2_linear_485_0)"/>
<path d="M183.356 181.021C185.413 179.65 187.469 180.267 186.235 182.804C185.001 185.341 182.396 188.426 184.59 189.181C186.784 189.935 202.074 180.884 211.879 172.245C221.684 163.605 221.89 161.069 226.826 162.92C231.763 164.771 231.215 169.502 223.193 176.976C215.17 184.45 196.932 195.42 189.115 197.203C181.23 198.986 178.693 198.78 179.447 196.037C180.201 193.295 180.476 190.826 177.87 191.923C175.265 193.02 166.42 196.929 163.54 196.312C160.66 195.694 160.934 195.352 164.911 193.089C168.888 190.826 179.653 183.558 183.356 181.021Z" fill="url(#paint3_linear_485_0)"/>
<path d="M194.874 172.451C198.371 169.708 201.868 165.8 204.062 167.788C206.256 169.776 200.497 175.399 195.971 176.633C191.377 177.867 189.869 176.359 194.874 172.451Z" fill="#FAE1ED"/>
<path d="M150.718 189.798C153.186 188.907 155.106 194.872 150.786 197.272C138.033 204.197 118.903 206.185 105.944 206.459C103.887 206.528 104.573 209.476 108.755 210.779C112.938 212.082 118.903 211.602 116.16 214.825C113.418 218.047 93.0536 217.91 85.5799 214.413C78.1062 210.916 82.7687 208.379 85.9228 207.145C89.0768 205.911 88.9397 202.551 82.7687 201.591C76.5978 200.7 60.3476 197.889 60.6904 195.146C61.0332 192.403 82.1516 197.409 101.899 197.066C130.079 196.723 139.267 194.049 150.718 189.798Z" fill="url(#paint4_linear_485_0)"/>
<path d="M204.405 81.3947C206.119 81.0519 212.907 83.3831 203.102 89.417C198.645 92.1596 193.366 95.6565 191.377 93.5995C189.389 91.5425 194.737 83.3146 204.405 81.3947Z" fill="url(#paint5_linear_485_0)"/>
<path d="M244.174 147.424C249.59 143.859 255.418 147.767 246.436 154.898C242.322 158.12 235.946 163.126 233.683 161.274C231.489 159.423 236.014 152.841 244.174 147.424Z" fill="url(#paint6_linear_485_0)"/>
<path d="M234.437 94.5594C234.574 91.7482 230.666 93.3938 224.769 97.3021C218.873 101.279 209.753 112.935 177.596 118.763C145.37 124.591 141.599 123.357 140.707 130.351C139.816 137.345 159.769 131.859 173.55 127.677C187.332 123.494 196.04 123.357 195.354 128.637C194.669 133.916 175.539 146.601 136.113 145.504C96.6877 144.407 79.5462 131.791 70.2897 138.785C61.0333 145.778 84.0716 161.549 116.023 162.097C147.975 162.646 168.751 159.354 194.532 143.653C220.313 127.951 222.644 118.832 219.833 116.843C217.09 114.855 212.565 121.986 207.216 122.809C201.868 123.631 201.937 121.506 205.297 118.763C208.656 116.021 234.232 99.5648 234.437 94.5594Z" fill="url(#paint7_linear_485_0)"/>
<path d="M22.7732 145.23C19.2078 144.133 14.8195 151.264 20.442 155.72C26.0644 160.109 57.0563 166.622 58.5648 169.159C60.0732 171.696 59.5933 173.753 53.3537 174.302C47.1142 174.85 38.8863 172.382 41.7661 177.73C44.6458 183.078 73.1694 189.181 84.7571 186.575C96.2762 183.97 90.5166 178.964 86.4712 176.29C82.4258 173.616 83.7286 168.885 92.5736 169.502C101.487 170.119 125.074 171.216 125.485 167.308C125.897 163.4 94.6992 164.017 67.2041 157.297C39.7091 150.578 38.132 149.892 22.7732 145.23Z" fill="url(#paint8_linear_485_0)"/>
<path d="M38.6121 137.893C40.3262 139.196 40.1205 143.036 33.9496 141.527C27.7786 140.019 13.3111 135.013 13.5854 131.517C13.8597 128.02 29.0814 130.694 38.6121 137.893Z" fill="url(#paint9_linear_485_0)"/>
<path d="M62.0617 81.4633C56.165 83.3832 74.4036 91.1312 90.9281 91.954C106.561 92.7768 111.429 89.2799 109.715 87.6343C108.001 85.9887 99.0189 87.7029 85.9913 85.5087C72.9637 83.3146 66.3128 80.0234 62.0617 81.4633Z" fill="url(#paint10_linear_485_0)"/>
<path d="M118.149 85.9886C115.749 86.9485 116.023 90.3083 119.109 89.8283C122.194 89.3483 131.451 87.8399 134.125 86.0571C136.799 84.2744 134.742 82.286 131.108 82.766C127.405 83.3145 121.646 84.5487 118.149 85.9886Z" fill="#F47D56"/>
<path d="M125.211 199.329C122.4 202.346 78.0377 177.456 72.141 170.394C72.0039 170.188 71.8668 169.982 71.7296 169.845C68.027 163.674 63.8445 103.336 70.084 102.856C78.7919 102.239 122.811 117.735 124.046 127.06C124.183 128.157 124.457 131.311 124.663 135.699C125.828 154.555 127.543 196.792 125.211 199.329Z" fill="url(#paint11_linear_485_0)"/>
<path d="M125.211 199.329C122.4 202.346 78.0378 177.456 72.1411 170.394C75.2266 168.542 78.9292 166.348 83.386 163.674C103.75 151.675 122.263 130.077 122.263 130.077L124.663 135.631C125.828 154.555 127.543 196.792 125.211 199.329Z" fill="url(#paint12_linear_485_0)"/>
<path d="M124.937 199.603C124.937 199.603 152.295 197.135 167.996 194.392C183.698 191.649 192.063 191.169 193.366 187.947C194.669 184.724 194.943 160.177 193.914 142.35C192.886 124.591 192.475 117.323 188.978 115.061C185.481 112.798 121.577 121.232 121.371 123.357C121.166 125.483 119.932 128.294 120.754 142.35C121.577 156.406 122.057 183.97 122.468 187.878C122.811 191.786 122.194 199.397 124.937 199.603Z" fill="url(#paint13_linear_485_0)"/>
<path d="M70.084 102.856C70.084 102.856 89.0083 109.027 100.047 114.032C111.087 119.038 120.069 122.809 121.372 123.357C122.606 123.906 155.655 120.203 165.597 119.655C175.539 119.106 188.224 117.872 189.869 115.952C191.515 114.032 145.507 98.8791 139.13 97.5078C132.754 95.9993 72.9638 99.222 70.084 102.856Z" fill="url(#paint14_linear_485_0)"/>
<path d="M183.15 123.289C183.15 123.289 151.541 127.06 141.187 127.471C126.857 128.088 126.857 130.42 126.857 131.242C126.857 132.065 128.571 175.468 128.16 181.776C127.748 188.084 128.571 192.678 128.571 192.678C128.571 192.678 180.064 185.958 182.944 185.341C185.824 184.724 188.909 183.695 188.909 183.01C188.909 182.393 189.115 155.309 188.704 141.459C188.292 127.745 189.321 122.877 183.15 123.289Z" fill="#BF2726"/>
<path d="M180.887 126.374C180.887 126.374 152.089 129.802 142.627 130.214C129.6 130.762 129.6 132.888 129.6 133.642C129.6 134.396 131.177 173.959 130.765 179.719C130.422 185.478 131.108 189.661 131.108 189.661C131.108 189.661 178.007 183.558 180.613 182.941C183.218 182.393 186.098 181.433 186.098 180.816C186.098 180.199 186.304 155.583 185.892 142.967C185.618 130.42 186.51 126.031 180.887 126.374Z" fill="url(#paint15_linear_485_0)"/>
<path d="M174.853 149.892C174.853 149.892 194.874 146.875 196.177 147.013C197.48 147.15 199.605 148.384 199.948 152.018C200.359 155.583 200.496 160.452 198.302 161.617C194.805 163.537 178.144 164.84 176.567 165.183C173.756 165.868 172.179 161.069 172.041 157.503C171.904 153.938 172.521 150.784 174.853 149.892Z" fill="#D02527"/>
<path d="M174.921 149.138C174.921 149.138 194.942 146.121 196.245 146.258C197.548 146.396 199.673 147.63 200.016 151.264C200.359 154.898 199.811 158.6 197.616 159.766C194.12 161.686 178.212 163.057 176.635 163.4C173.824 164.086 172.247 160.315 172.11 156.749C171.973 153.252 172.59 150.098 174.921 149.138Z" fill="url(#paint16_linear_485_0)"/>
<path d="M174.304 150.03C173.139 150.647 173.961 151.127 177.87 150.578C181.709 150.03 195.628 148.041 196.52 147.767C197.411 147.561 197.274 146.601 196.177 146.601C195.08 146.601 184.932 148.041 182.326 148.315C179.652 148.658 175.196 149.55 174.304 150.03Z" fill="url(#paint17_linear_485_0)"/>
<path d="M218.187 165.32C218.187 165.32 217.021 168.131 216.267 168.131C215.993 168.131 214.827 166.623 213.25 164.634C210.439 161.069 206.188 155.926 203.377 154.692C198.988 152.772 194.806 154.143 193.503 157.915C192.132 161.686 195.149 166.623 197.206 169.228C198.234 170.531 199.537 172.245 200.634 173.685C201.731 175.193 202.622 176.359 202.622 176.359C202.622 176.359 202.622 178.416 201.114 178.622C199.605 178.827 199.194 177.73 199.194 177.73L194.189 170.599C194.189 170.599 184.864 157.092 194.737 152.086C206.119 146.258 218.187 165.32 218.187 165.32Z" fill="#F1AD66"/>
<path d="M213.868 161.892L213.319 164.634C210.508 161.069 206.257 155.926 203.446 154.692C199.057 152.772 194.875 154.144 193.572 157.915C192.201 161.686 195.218 166.623 197.275 169.228C198.303 170.531 199.606 172.245 200.703 173.685L200.291 173.959C200.291 173.959 198.852 174.165 196.452 170.737C194.052 167.308 191.995 163.057 192.338 159.286C192.612 155.515 196.178 151.881 201.8 152.909C207.354 154.006 213.868 161.892 213.868 161.892Z" fill="#E59745"/>
<path d="M221.89 199.809C215.102 202.963 210.851 201.111 209.068 199.946C208.382 199.466 208.04 199.123 208.04 199.123C208.04 199.123 194.532 180.199 194.738 177.182C194.738 177.182 196.863 171.628 205.023 166.211C213.182 160.794 216.542 159.56 218.667 160.657C220.793 161.754 236.22 178.279 237.043 180.267C237.18 180.61 237.317 181.021 237.317 181.501C237.797 186.644 230.529 195.832 221.89 199.809Z" fill="url(#paint18_linear_485_0)"/>
<path d="M221.89 199.809C215.102 202.963 210.851 201.111 209.068 199.946C209 199.329 208.862 194.735 217.365 186.712C226.484 178.073 235.603 178.553 237.043 180.953C237.112 181.09 237.249 181.296 237.317 181.433C237.797 186.644 230.529 195.832 221.89 199.809Z" fill="#E59745"/>
<path d="M195.697 177.525C195.697 177.525 197.686 173.068 198.92 172.794C200.154 172.519 213.045 187.878 212.565 189.044C212.153 190.209 209.753 194.529 208.999 195.832C208.313 197.135 208.931 198.986 207.559 197.203C206.257 195.42 195.286 179.513 195.697 177.525Z" fill="#EFA453"/>
<path d="M217.57 162.097C215.719 161.892 216.747 164.223 221.341 169.228C225.935 174.165 229.364 177.867 230.872 176.77C232.381 175.673 229.089 172.519 225.318 168.68C221.547 164.84 219.284 162.303 217.57 162.097Z" fill="#FDC07C"/>
<path d="M213.319 172.931C213.319 172.931 214.142 170.188 211.81 169.777C209.479 169.365 208.451 171.148 208.725 172.862C208.999 174.576 211.673 174.508 211.673 174.508C211.673 174.508 213.867 181.159 214.827 181.296C215.787 181.433 219.833 178.073 219.833 177.319C219.833 176.565 213.319 172.931 213.319 172.931Z" fill="#E59745"/>
<path d="M213.593 172.656C213.593 172.656 214.416 170.119 212.154 169.708C209.959 169.365 208.999 170.942 209.274 172.588C209.548 174.233 212.016 174.096 212.016 174.096C212.016 174.096 214.073 180.336 214.965 180.404C215.856 180.473 219.627 177.387 219.627 176.702C219.627 176.016 213.593 172.656 213.593 172.656Z" fill="url(#paint19_linear_485_0)"/>
<path d="M149.003 129.46C149.003 129.46 149.689 166.005 149.895 175.673C150.1 185.341 149.346 187.192 150.1 186.987C150.855 186.781 151.403 187.672 151.746 186.575C152.089 185.478 151.952 129.185 150.923 128.637C149.895 128.088 149.209 128.705 149.003 129.46Z" fill="#BF2726"/>
<path d="M168.682 126.58C168.682 126.58 169.368 163.126 169.573 172.794C169.779 182.53 169.025 184.313 169.779 184.107C170.465 183.901 171.082 184.793 171.425 183.696C171.768 182.599 171.63 126.306 170.602 125.757C169.505 125.209 168.888 125.826 168.682 126.58Z" fill="#BF2726"/>
<path d="M149.004 127.06L148.798 120.82L151.472 120.615V127.334C151.403 127.471 149.278 128.5 149.004 127.06Z" fill="#BF2726"/>
<path d="M168.819 125.551L168.613 119.449L171.287 119.243L171.219 125.894C171.219 125.894 169.093 126.991 168.819 125.551Z" fill="#BF2726"/>
<path d="M149.689 195.9L149.483 188.632L152.157 188.427V196.312C152.157 196.312 149.963 197.615 149.689 195.9Z" fill="#BF2726"/>
<path d="M169.093 193.089L168.888 185.958L171.562 185.753L171.493 193.501C171.493 193.501 169.368 194.803 169.093 193.089Z" fill="#BF2726"/>
<path d="M148.729 121.026L93.3276 99.1535L95.1789 98.8792L151.54 120.752L148.729 121.026Z" fill="#BF2726"/>
<path d="M168.614 119.38L113.692 97.645L115.887 97.5764L171.357 119.106L168.614 119.38Z" fill="#BF2726"/>
<path d="M66.9302 121.437L120.823 146.807L120.755 149.824L66.9302 124.729V121.437Z" fill="#BF2726"/>
<path d="M68.3696 149.549L121.714 174.919L121.646 178.004L68.5068 152.909L68.3696 149.549Z" fill="#BF2726"/>
<path d="M192.269 153.595C192.269 153.595 192.955 153.184 194.189 154.281C195.423 155.378 194.189 156.818 194.189 156.818L200.154 154.555C200.154 154.555 200.154 152.018 199.949 150.51C199.743 149.001 198.852 148.59 198.852 148.59L191.721 151.812L192.269 153.595Z" fill="url(#paint20_linear_485_0)"/>
<path d="M192.543 153.664C192.543 153.664 193.503 153.389 194.257 154.418C195.011 155.446 194.531 156.201 194.531 156.201L194.257 156.543C194.257 156.543 194.6 156.68 195.149 156.132C195.629 155.583 195.834 154.212 194.669 153.321C193.503 152.429 192.817 152.704 192.2 153.184C191.583 153.664 191.652 154.555 191.652 154.555L192.543 153.664Z" fill="#BA2026"/>
<path d="M148.181 229.978C144.958 226.618 143.176 218.733 147.769 214.962C152.363 211.191 158.466 215.442 160.797 218.664C163.745 222.71 164.98 228.538 160.66 232.103C156.34 235.6 151.403 233.337 148.181 229.978ZM158.466 229.841C161.071 227.715 159.906 223.121 158.123 220.653C156.752 218.664 152.638 215.51 149.895 217.773C147.152 220.036 148.524 225.452 150.512 227.509C152.501 229.566 155.86 232.035 158.466 229.841Z" fill="url(#paint21_linear_485_0)"/>
<path d="M162.031 220.241L185.892 203.1C186.578 202.62 186.715 201.66 186.235 200.974L186.029 200.631C185.549 199.946 184.589 199.74 183.904 200.288L159.494 217.773C158.945 218.184 158.671 218.87 158.945 219.487C159.151 220.036 159.768 220.584 161.277 220.515C161.482 220.515 161.825 220.378 162.031 220.241Z" fill="url(#paint22_linear_485_0)"/>
<path d="M184.589 202.894L188.292 207.968L186.578 209.134L185.275 207.488L180.818 210.574L182.19 212.493L180.407 213.659L176.979 208.517L184.589 202.894Z" fill="url(#paint23_linear_485_0)"/>
<path d="M267.898 228.743C264.195 224.63 261.041 227.235 256.447 231.006C251.647 234.983 249.796 238.274 254.253 242.731C257.956 246.434 262.001 243.554 265.224 240.537C270.229 235.737 271.6 232.857 267.898 228.743ZM263.029 237.863C261.315 239.508 259.464 241.497 257.544 239.44C255.693 237.383 256.721 235.806 259.258 233.68C261.727 231.623 263.235 229.635 265.224 231.829C267.212 234.023 265.704 235.326 263.029 237.863Z" fill="url(#paint24_linear_485_0)"/>
<path d="M255.624 232.172L234.78 209.065C234.163 208.379 234.231 207.351 234.917 206.734L235.26 206.459C235.946 205.842 236.974 205.911 237.591 206.597L258.915 230.183C259.395 230.732 259.464 231.486 259.121 232.103C258.778 232.652 258.024 233.063 256.515 232.652C256.173 232.583 255.898 232.377 255.624 232.172Z" fill="url(#paint25_linear_485_0)"/>
<path d="M236.22 209.202L232.174 212.768C231.694 213.179 231.626 213.933 232.106 214.413C232.517 214.825 233.203 214.893 233.683 214.482L234.574 213.727L237.523 216.95C238.003 217.499 238.894 217.567 239.511 217.156L241.911 215.373L236.22 209.202Z" fill="url(#paint26_linear_485_0)"/>
<path d="M195.012 216.607C195.012 216.607 196.04 215.99 196.863 216.676C197.686 217.361 196.863 218.116 196.863 218.116L191.309 226.892C191.309 226.892 191.789 227.715 192.063 227.235C192.337 226.755 197.48 218.459 197.48 218.459C197.48 218.459 198.44 218.664 198.44 219.761C198.508 220.858 187.881 238 187.881 238L182.944 235.052L195.012 216.607Z" fill="url(#paint27_linear_485_0)"/>
<path d="M176.704 235.257L172.384 242.8C171.425 244.514 171.973 246.639 173.619 247.668L180.818 252.193C182.532 253.29 184.726 252.742 185.823 251.096L190.555 243.622C191.652 241.908 191.103 239.645 189.389 238.548L181.709 233.954C179.995 232.857 177.664 233.475 176.704 235.257ZM177.664 240.194L185.275 244.994C185.755 245.268 185.892 245.885 185.549 246.365L184.178 248.491C183.904 248.97 183.286 249.039 182.807 248.765L175.333 243.965C174.921 243.691 174.784 243.142 174.99 242.662L176.224 240.537C176.567 240.057 177.184 239.92 177.664 240.194Z" fill="url(#paint28_linear_485_0)"/>
<path d="M218.05 248.011C213.868 246.365 209.137 248.491 207.491 252.673C205.845 256.856 207.971 261.587 212.153 263.232C216.336 264.878 221.067 262.752 222.713 258.57C224.358 254.387 222.233 249.656 218.05 248.011ZM213.251 260.353C210.645 259.324 209.342 256.376 210.302 253.77C211.331 251.165 214.279 249.862 216.885 250.822C219.49 251.85 220.793 254.799 219.833 257.404C218.873 260.078 215.925 261.381 213.251 260.353Z" fill="url(#paint29_linear_485_0)"/>
<path d="M213.936 248.902L216.404 217.841C216.473 216.813 217.433 216.059 218.461 216.196C219.421 216.333 220.107 217.156 220.038 218.184L217.57 248.971L213.936 248.902Z" fill="url(#paint30_linear_485_0)"/>
<path d="M217.091 230.321L211.948 229.841C211.057 229.772 210.371 228.949 210.508 228.058L210.645 226.138C210.714 225.521 211.194 225.041 211.811 225.109L213.457 225.178L213.525 224.012L211.948 223.875C211.331 223.807 210.851 223.258 210.92 222.641L211.125 220.31C211.194 219.693 211.674 219.213 212.291 219.281L217.571 219.556V224.492H217.296L217.091 226.481V230.321Z" fill="url(#paint31_linear_485_0)"/>
<path d="M119.726 15.3655C121.166 14.7484 121.989 13.1713 121.646 11.6629C121.235 9.81159 121.577 7.41178 125.349 6.04046C132.068 3.57207 137.485 8.5774 135.291 16.8053C133.097 25.0333 123.086 22.5649 119.658 26.6103C117.601 29.0787 117.258 32.8498 117.326 35.4554C117.395 37.1009 118.492 38.4723 120.069 38.8837L124.251 39.9122C126.377 40.4607 128.434 39.0208 128.777 36.8952C129.12 34.564 130.011 31.9585 132.617 31.1357C137.69 29.5587 146.536 23.3191 146.261 14.1998C145.987 5.01196 136.936 -1.02186 128.708 0.143763C120.48 1.30939 117.189 6.93182 115.749 10.223C115.544 10.6344 115.406 11.1144 115.269 11.5258C114.515 14.1313 117.189 16.4625 119.726 15.3655Z" fill="url(#paint32_linear_485_0)"/>
<path d="M121.783 55.6824C125.116 55.6824 127.817 52.981 127.817 49.6486C127.817 46.3162 125.116 43.6147 121.783 43.6147C118.451 43.6147 115.75 46.3162 115.75 49.6486C115.75 52.981 118.451 55.6824 121.783 55.6824Z" fill="url(#paint33_linear_485_0)"/>
<path d="M80.2319 29.8329C80.9861 28.9415 81.0547 27.5702 80.3004 26.6788C79.4091 25.5818 78.792 23.799 80.9861 21.5364C84.7572 17.6281 90.174 19.2737 91.4082 25.6503C92.6423 32.027 84.9629 33.6726 83.9344 37.5809C83.3173 39.9807 84.3458 42.6547 85.2372 44.4375C85.7857 45.5345 87.0199 46.1516 88.2541 45.8774L91.4767 45.1917C93.1223 44.8489 94.0822 43.2033 93.5337 41.6263C92.9852 39.9121 92.7795 37.7865 94.2879 36.3467C97.2363 33.5354 101.282 26.336 98.0591 20.165C94.8365 13.9255 86.4714 13.7884 81.1918 17.2852C75.9122 20.8507 75.6379 24.759 75.7065 27.5016C75.7065 27.8444 75.7751 28.1873 75.8436 28.5301C76.1865 30.7242 78.8605 31.4785 80.2319 29.8329Z" fill="url(#paint34_linear_485_0)"/>
<path d="M93.0539 57.328C95.5911 57.328 97.6478 55.2712 97.6478 52.734C97.6478 50.1969 95.5911 48.1401 93.0539 48.1401C90.5167 48.1401 88.46 50.1969 88.46 52.734C88.46 55.2712 90.5167 57.328 93.0539 57.328Z" fill="url(#paint35_linear_485_0)"/>
<defs>
<linearGradient id="paint0_linear_485_0" x1="65.0968" y1="113.025" x2="11.1387" y2="98.5399" gradientUnits="userSpaceOnUse">
<stop stop-color="#F1CCDE"/>
<stop offset="0.9946" stop-color="#FBECF4"/>
</linearGradient>
<linearGradient id="paint1_linear_485_0" x1="51.9989" y1="98.1157" x2="34.4354" y2="94.4943" gradientUnits="userSpaceOnUse">
<stop stop-color="#F1CCDE"/>
<stop offset="0.9946" stop-color="#FBECF4"/>
</linearGradient>
<linearGradient id="paint2_linear_485_0" x1="189.203" y1="76.1162" x2="142.488" y2="97.4821" gradientUnits="userSpaceOnUse">
<stop stop-color="#F1CCDE"/>
<stop offset="0.9946" stop-color="#FBECF4"/>
</linearGradient>
<linearGradient id="paint3_linear_485_0" x1="195.684" y1="198.523" x2="195.973" y2="162.196" gradientUnits="userSpaceOnUse">
<stop stop-color="#F1CCDE"/>
<stop offset="0.9946" stop-color="#FBECF4"/>
</linearGradient>
<linearGradient id="paint4_linear_485_0" x1="59.4261" y1="203.913" x2="111.574" y2="203.551" gradientUnits="userSpaceOnUse">
<stop stop-color="#F1CCDE"/>
<stop offset="0.9946" stop-color="#FBECF4"/>
</linearGradient>
<linearGradient id="paint5_linear_485_0" x1="200.386" y1="93.0969" x2="198.721" y2="82.2352" gradientUnits="userSpaceOnUse">
<stop stop-color="#F1CCDE"/>
<stop offset="0.9946" stop-color="#FBECF4"/>
</linearGradient>
<linearGradient id="paint6_linear_485_0" x1="243.594" y1="159.384" x2="240.421" y2="147.99" gradientUnits="userSpaceOnUse">
<stop stop-color="#F1CCDE"/>
<stop offset="0.9946" stop-color="#FBECF4"/>
</linearGradient>
<linearGradient id="paint7_linear_485_0" x1="217.301" y1="78.1907" x2="186.882" y2="101.005" gradientUnits="userSpaceOnUse">
<stop stop-color="#F1CCDE"/>
<stop offset="0.9946" stop-color="#FBECF4"/>
</linearGradient>
<linearGradient id="paint8_linear_485_0" x1="31.789" y1="163.342" x2="118.701" y2="180" gradientUnits="userSpaceOnUse">
<stop stop-color="#FDC07C"/>
<stop offset="0.9946" stop-color="#F1AD66"/>
</linearGradient>
<linearGradient id="paint9_linear_485_0" x1="14.2861" y1="137.388" x2="38.9216" y2="134.4" gradientUnits="userSpaceOnUse">
<stop stop-color="#FDC07C"/>
<stop offset="0.9946" stop-color="#F1AD66"/>
</linearGradient>
<linearGradient id="paint10_linear_485_0" x1="142.183" y1="87.0771" x2="95.1051" y2="86.715" gradientUnits="userSpaceOnUse">
<stop stop-color="#8B1D56"/>
<stop offset="1" stop-color="#C84799"/>
</linearGradient>
<linearGradient id="paint11_linear_485_0" x1="101.802" y1="194.379" x2="89.5665" y2="73.4677" gradientUnits="userSpaceOnUse">
<stop stop-color="#C53027"/>
<stop offset="0.9946" stop-color="#D95530"/>
</linearGradient>
<linearGradient id="paint12_linear_485_0" x1="108.938" y1="176.392" x2="90.945" y2="136.327" gradientUnits="userSpaceOnUse">
<stop stop-color="#BF2726"/>
<stop offset="0.9892" stop-color="#D95530"/>
</linearGradient>
<linearGradient id="paint13_linear_485_0" x1="152.734" y1="194.414" x2="157.532" y2="154.35" gradientUnits="userSpaceOnUse">
<stop stop-color="#C53027"/>
<stop offset="0.9946" stop-color="#DA6330"/>
</linearGradient>
<linearGradient id="paint14_linear_485_0" x1="201.541" y1="164.081" x2="125.97" y2="106.143" gradientUnits="userSpaceOnUse">
<stop stop-color="#C53027"/>
<stop offset="0.9946" stop-color="#D95530"/>
</linearGradient>
<linearGradient id="paint15_linear_485_0" x1="147.058" y1="214.185" x2="157.522" y2="159.078" gradientUnits="userSpaceOnUse">
<stop stop-color="#C53027"/>
<stop offset="0.9946" stop-color="#DA6330"/>
</linearGradient>
<linearGradient id="paint16_linear_485_0" x1="186.864" y1="138.408" x2="185.065" y2="177.034" gradientUnits="userSpaceOnUse">
<stop stop-color="#C53027"/>
<stop offset="0.9946" stop-color="#D95530"/>
</linearGradient>
<linearGradient id="paint17_linear_485_0" x1="184.231" y1="155.098" x2="185.428" y2="148.791" gradientUnits="userSpaceOnUse">
<stop stop-color="#C53027"/>
<stop offset="0.9946" stop-color="#DA6330"/>
</linearGradient>
<linearGradient id="paint18_linear_485_0" x1="228.767" y1="197.662" x2="214.133" y2="178.709" gradientUnits="userSpaceOnUse">
<stop stop-color="#E59745"/>
<stop offset="0.9946" stop-color="#F1AD66"/>
</linearGradient>
<linearGradient id="paint19_linear_485_0" x1="210.508" y1="167.319" x2="214.955" y2="175.674" gradientUnits="userSpaceOnUse">
<stop stop-color="#2C3178"/>
<stop offset="0.9946" stop-color="#1C194E"/>
</linearGradient>
<linearGradient id="paint20_linear_485_0" x1="196.367" y1="145.037" x2="195.537" y2="162.862" gradientUnits="userSpaceOnUse">
<stop stop-color="#C53027"/>
<stop offset="0.9946" stop-color="#D95530"/>
</linearGradient>
<linearGradient id="paint21_linear_485_0" x1="151.708" y1="227.001" x2="184.946" y2="181.107" gradientUnits="userSpaceOnUse">
<stop stop-color="#8B1D56"/>
<stop offset="1" stop-color="#C84799"/>
</linearGradient>
<linearGradient id="paint22_linear_485_0" x1="150.25" y1="225.024" x2="196.235" y2="195.069" gradientUnits="userSpaceOnUse">
<stop stop-color="#8B1D56"/>
<stop offset="1" stop-color="#C84799"/>
</linearGradient>
<linearGradient id="paint23_linear_485_0" x1="152.202" y1="228.021" x2="198.187" y2="198.066" gradientUnits="userSpaceOnUse">
<stop stop-color="#8B1D56"/>
<stop offset="1" stop-color="#C84799"/>
</linearGradient>
<linearGradient id="paint24_linear_485_0" x1="242.696" y1="210.154" x2="261.698" y2="236.695" gradientUnits="userSpaceOnUse">
<stop stop-color="#F3704A"/>
<stop offset="1" stop-color="#F7915D"/>
</linearGradient>
<linearGradient id="paint25_linear_485_0" x1="236.212" y1="204.735" x2="261.887" y2="240.596" gradientUnits="userSpaceOnUse">
<stop stop-color="#F3704A"/>
<stop offset="1" stop-color="#F7915D"/>
</linearGradient>
<linearGradient id="paint26_linear_485_0" x1="231.895" y1="207.835" x2="257.514" y2="243.619" gradientUnits="userSpaceOnUse">
<stop stop-color="#F3704A"/>
<stop offset="1" stop-color="#F7915D"/>
</linearGradient>
<linearGradient id="paint27_linear_485_0" x1="174.18" y1="249.385" x2="200.731" y2="215.492" gradientUnits="userSpaceOnUse">
<stop stop-color="#FDC07C"/>
<stop offset="0.9946" stop-color="#F1AD66"/>
</linearGradient>
<linearGradient id="paint28_linear_485_0" x1="175.535" y1="250.447" x2="202.086" y2="216.553" gradientUnits="userSpaceOnUse">
<stop stop-color="#FDC07C"/>
<stop offset="0.9946" stop-color="#F1AD66"/>
</linearGradient>
<linearGradient id="paint29_linear_485_0" x1="211.187" y1="325.225" x2="208.929" y2="365.323" gradientUnits="userSpaceOnUse">
<stop stop-color="#292A69"/>
<stop offset="0.9946" stop-color="#1C194E"/>
</linearGradient>
<linearGradient id="paint30_linear_485_0" x1="237.912" y1="432.137" x2="242.126" y2="472.076" gradientUnits="userSpaceOnUse">
<stop stop-color="#292A69"/>
<stop offset="0.9946" stop-color="#1C194E"/>
</linearGradient>
<linearGradient id="paint31_linear_485_0" x1="235.745" y1="429.677" x2="239.903" y2="469.09" gradientUnits="userSpaceOnUse">
<stop stop-color="#292A69"/>
<stop offset="0.9946" stop-color="#1C194E"/>
</linearGradient>
<linearGradient id="paint32_linear_485_0" x1="129.404" y1="34.0896" x2="131.599" y2="-1.36226" gradientUnits="userSpaceOnUse">
<stop stop-color="#292A69"/>
<stop offset="0.9946" stop-color="#1C194E"/>
</linearGradient>
<linearGradient id="paint33_linear_485_0" x1="122.759" y1="33.763" x2="124.924" y2="-1.20196" gradientUnits="userSpaceOnUse">
<stop stop-color="#292A69"/>
<stop offset="0.9946" stop-color="#1C194E"/>
</linearGradient>
<linearGradient id="paint34_linear_485_0" x1="306.837" y1="287.805" x2="342.307" y2="329.938" gradientUnits="userSpaceOnUse">
<stop stop-color="#FDC07C"/>
<stop offset="0.9946" stop-color="#F1AD66"/>
</linearGradient>
<linearGradient id="paint35_linear_485_0" x1="297.531" y1="295.64" x2="333.001" y2="337.773" gradientUnits="userSpaceOnUse">
<stop stop-color="#FDC07C"/>
<stop offset="0.9946" stop-color="#F1AD66"/>
</linearGradient>
</defs>
</svg>
