<svg width="64" height="65" viewBox="0 0 64 65" fill="none" xmlns="http://www.w3.org/2000/svg">
<rect opacity="0.1" x="10" y="11" width="44" height="44" rx="22" fill="#573353"/>
<path d="M37.6907 27.537L37.6907 27.537C37.4299 27.267 37.0484 27.1285 36.6591 27.1285C36.2699 27.1285 35.8826 27.267 35.6112 27.5382L37.6907 27.537ZM37.6907 27.537L37.692 27.5382L38.4596 28.3052C38.786 28.6313 38.9455 29.0203 38.9455 29.4026C38.9455 29.7848 38.7862 30.1682 38.4607 30.4839L38.4595 30.4851L29.6943 39.2828L26.131 39.8793M37.6907 27.537L26.131 39.8793M26.131 39.8793L26.8247 36.337L35.6111 27.5382L26.131 39.8793ZM30.1257 41.3109L30.1258 41.3111L30.1315 41.3095C30.5274 41.2055 30.9287 41.0168 31.2475 40.6982L40.0555 31.898C41.4478 30.5069 41.4482 28.1231 40.0565 26.7316L39.3099 25.9454L39.3099 25.9454L39.3081 25.9435C37.9155 24.5522 35.5088 24.5522 34.1162 25.9435L34.1161 25.9436L25.3082 34.7639L25.3789 34.8347L25.3081 34.764L25.3081 34.764C25.01 35.0619 24.8007 35.4827 24.6963 35.879L24.6962 35.8789L24.6951 35.884L23.9275 39.5575L23.9273 39.5574L23.9264 39.5634C23.8211 40.2787 24.0317 40.9771 24.5405 41.4854C24.9449 41.8894 25.5368 42.1 26.0455 42.1C26.2224 42.1 26.2892 42.0843 26.4063 42.0567C26.4315 42.0508 26.459 42.0443 26.4905 42.0373C26.4908 42.0372 26.4911 42.0371 26.4915 42.0371L30.1257 41.3109Z" fill="#573353" stroke="#573353" stroke-width="0.2"/>
</svg>
