<svg width="212" height="158" viewBox="0 0 212 158" fill="none" xmlns="http://www.w3.org/2000/svg">
<path d="M148.373 157.732C181.187 157.732 207.788 156.355 207.788 154.658C207.788 152.96 181.187 151.584 148.373 151.584C115.559 151.584 88.9574 152.96 88.9574 154.658C88.9574 156.355 115.559 157.732 148.373 157.732Z" fill="#E6E7E8"/>
<path d="M73.7467 153.875C68.2175 153.875 67.3957 137.299 66.7757 112.023C66.6531 106.829 66.5306 101.928 66.3287 97.7537C65.8097 87.2029 63.611 85.8821 63.4452 85.8005C63.2034 85.7403 62.9914 85.5774 62.8527 85.3454C62.7141 85.1134 62.6595 84.8301 62.7002 84.5539C62.7409 84.2777 62.8738 84.0298 63.0714 83.8612C63.2691 83.6926 63.5164 83.6163 63.7624 83.648C64.6635 83.7784 67.6408 85.1564 68.2535 97.6314C68.4554 101.839 68.5779 106.755 68.7077 111.957C68.9384 121.587 69.1835 131.526 69.9981 139.337C71.1587 150.491 73.0042 151.698 73.7467 151.698C77.9422 151.698 78.6703 129.789 78.9154 122.598C78.9803 120.527 79.038 118.896 79.1101 117.918C79.5282 112.593 80.7104 109.291 82.628 108.133C83.0778 107.851 83.5805 107.695 84.0945 107.676C84.6085 107.658 85.119 107.778 85.5836 108.027C85.7874 108.175 85.9346 108.405 85.9961 108.67C86.0575 108.935 86.0287 109.216 85.9153 109.458C85.8019 109.7 85.6123 109.885 85.384 109.977C85.1557 110.068 84.9053 110.059 84.6825 109.952C84.4929 109.869 84.2893 109.837 84.087 109.857C83.8847 109.876 83.689 109.948 83.5147 110.066C82.7938 110.539 81.4962 112.21 81.0349 118.121C80.9628 119.051 80.9051 120.657 80.8402 122.696C80.7127 129.033 80.2844 135.359 79.557 141.645C78.4324 149.953 76.5798 153.875 73.7467 153.875Z" fill="white"/>
<path d="M73.7466 154.217C67.9074 154.217 67.0928 138.261 66.4512 111.998V111.9C66.3286 106.747 66.2061 101.888 66.0042 97.7374C65.4996 87.3497 63.3369 86.1185 63.3153 86.1103C63.0116 86.025 62.7467 85.815 62.5722 85.5212C62.3977 85.2274 62.326 84.8707 62.3709 84.5204C62.3915 84.3296 62.4451 84.1453 62.5287 83.9781C62.6123 83.8108 62.7243 83.6639 62.8583 83.5457C62.9922 83.4275 63.1455 83.3404 63.3093 83.2894C63.4731 83.2384 63.6442 83.2244 63.8127 83.2484C65.0454 83.4196 67.9795 85.1645 68.585 97.5743C68.7941 101.765 68.9094 106.649 69.0392 111.819V111.917C69.2771 121.53 69.5222 131.485 70.3296 139.256C71.5262 150.711 73.3933 151.29 73.7538 151.29C76.9617 151.29 78.1512 135.66 78.5909 122.549C78.6558 120.576 78.7135 118.863 78.7928 117.852C79.2181 112.389 80.458 108.998 82.4765 107.758C82.9744 107.45 83.5297 107.278 84.0972 107.259C84.6647 107.239 85.2283 107.371 85.7421 107.644C86.0452 107.826 86.272 108.136 86.3727 108.507C86.4734 108.878 86.4398 109.279 86.2792 109.621C86.1997 109.791 86.0914 109.941 85.9605 110.064C85.8296 110.186 85.6787 110.278 85.5163 110.334C85.1885 110.448 84.8341 110.41 84.531 110.229C84.3914 110.178 84.2439 110.162 84.0984 110.182C83.9528 110.202 83.8128 110.257 83.6876 110.343C83.1469 110.693 81.8349 112.153 81.3663 118.105C81.2942 119.026 81.2438 120.633 81.1717 122.655C81.0455 129.006 80.6148 135.346 79.8813 141.645C78.7279 150.23 76.7743 154.217 73.7466 154.217ZM63.6541 85.4906C64.3318 85.9472 66.1844 88.0672 66.653 97.7211C66.8621 101.879 66.9774 106.747 67.1072 111.9V111.998C67.7055 136.296 68.549 153.492 73.7466 153.492C76.3922 153.492 78.1368 149.709 79.2325 141.579C79.9584 135.302 80.3844 128.984 80.5085 122.655C80.5806 120.616 80.631 119.01 80.7031 118.064C81.1573 112.292 82.3972 110.343 83.356 109.723C83.5704 109.575 83.8123 109.486 84.0624 109.462C84.3126 109.438 84.5643 109.48 84.7978 109.585C84.8719 109.632 84.9536 109.662 85.0382 109.673C85.1228 109.685 85.2085 109.677 85.2904 109.65C85.3722 109.624 85.4486 109.579 85.515 109.519C85.5815 109.458 85.6366 109.384 85.6772 109.299C85.7162 109.216 85.7402 109.124 85.7478 109.03C85.7555 108.936 85.7467 108.842 85.7219 108.751C85.6971 108.661 85.6568 108.578 85.6034 108.505C85.55 108.433 85.4844 108.373 85.4105 108.329C84.995 108.108 84.5389 108.002 84.0799 108.02C83.621 108.039 83.1726 108.181 82.7721 108.435C80.9554 109.552 79.8308 112.748 79.4271 117.942C79.3478 118.937 79.2902 120.633 79.2253 122.598C78.5549 142.696 76.8103 152.057 73.7321 152.057C72.4778 152.057 70.7477 149.855 69.6591 139.37C68.8373 131.55 68.5994 121.595 68.3615 111.965V111.868C68.2318 106.698 68.1164 101.822 67.9074 97.6395C67.2946 85.1482 64.3029 84.0964 63.7118 84.0148C63.629 84.0018 63.5447 84.0082 63.4641 84.0334C63.3835 84.0586 63.3083 84.1023 63.2432 84.1616C63.1762 84.2168 63.1202 84.2875 63.0792 84.3691C63.0382 84.4506 63.013 84.5411 63.0053 84.6345C62.9776 84.8158 63.0132 85.0021 63.1047 85.1543C63.1962 85.3064 63.3363 85.4124 63.4955 85.4499C63.548 85.4508 63.5997 85.4647 63.6469 85.4906H63.6541Z" fill="#231F20"/>
<path d="M87.1913 104.228H83.9329V112.341H87.1913V104.228Z" fill="#231F20"/>
<path d="M87.1911 112.756H83.9327C83.8371 112.756 83.7455 112.713 83.6779 112.637C83.6103 112.561 83.5723 112.457 83.5723 112.349V104.195C83.5723 104.087 83.6103 103.983 83.6779 103.907C83.7455 103.83 83.8371 103.787 83.9327 103.787H87.1911C87.2862 103.789 87.3768 103.833 87.444 103.909C87.5112 103.985 87.5497 104.088 87.5516 104.195V112.349C87.5497 112.456 87.5112 112.559 87.444 112.635C87.3768 112.711 87.2862 112.754 87.1911 112.756ZM84.3076 111.941H86.8451V104.603H84.3076V111.941Z" fill="#231F20"/>
<path d="M99.6771 65.0006C99.6771 65.0006 89.4549 63.9977 87.2922 68.3518C85.1296 72.7058 87.0399 75.3883 89.1016 76.0569C91.1634 76.7255 97.2332 74.891 97.2332 74.891L99.6771 65.0006Z" fill="#231F20"/>
<path d="M90.2912 76.6114C89.8541 76.624 89.4176 76.5692 88.9936 76.4483C88.3866 76.2607 87.8253 75.9196 87.352 75.4506C86.8786 74.9817 86.5058 74.3972 86.2615 73.7413C85.8578 72.6324 85.6631 70.7653 86.9823 68.148C89.2604 63.6227 99.2879 64.5522 99.7132 64.593C99.766 64.6011 99.8169 64.6211 99.8627 64.6519C99.9086 64.6827 99.9484 64.7237 99.9799 64.7724C100.01 64.822 100.03 64.8782 100.038 64.9373C100.047 64.9964 100.044 65.057 100.03 65.1148L97.5794 74.997C97.5622 75.0649 97.53 75.1267 97.4859 75.1766C97.4417 75.2265 97.3871 75.2629 97.3271 75.2824C95.0274 75.9928 92.6701 76.4381 90.2912 76.6114ZM97.1973 65.3105C94.1047 65.3105 89.008 65.7589 87.6023 68.5719C86.6724 70.4147 86.4417 72.1025 86.9247 73.4641C87.1304 74.0055 87.4415 74.4876 87.8346 74.8743C88.2277 75.2611 88.6929 75.5427 89.1955 75.6982C90.94 76.2608 95.8781 74.8828 96.9306 74.5812L99.2086 65.4083C98.7833 65.3513 98.1056 65.3105 97.1973 65.3105Z" fill="#231F20"/>
<path d="M99.6772 66.7781C99.6772 66.7781 90.1471 65.9628 88.0998 69.5096C86.0524 73.0564 87.8547 75.2171 89.7866 75.7797C91.7186 76.3423 97.3848 74.8258 97.3848 74.8258L99.6772 66.7781Z" fill="white"/>
<path d="M90.8966 76.269C90.4946 76.2787 90.093 76.2349 89.7 76.1385C89.1209 75.9973 88.58 75.7016 88.1223 75.2761C87.6646 74.8506 87.3034 74.3077 87.0687 73.6924C86.7587 72.7955 86.6362 71.3034 87.7896 69.2732C89.9523 65.5796 99.2733 66.3379 99.6698 66.3705C99.7202 66.3774 99.7687 66.3962 99.8121 66.4257C99.8556 66.4552 99.8931 66.4947 99.9221 66.5417C99.9477 66.5888 99.9641 66.6415 99.9703 66.6964C99.9765 66.7512 99.9724 66.8068 99.9582 66.8597L97.6658 74.9073C97.649 74.9684 97.6181 75.0232 97.5763 75.0663C97.5344 75.1093 97.4832 75.1388 97.4279 75.1519C95.2849 75.7458 93.099 76.1196 90.8966 76.269ZM97.3846 67.0717C94.5011 67.0717 89.7216 67.4305 88.4024 69.7135C87.595 71.1159 87.3571 72.4042 87.7175 73.456C87.9159 73.9529 88.2152 74.3898 88.591 74.7312C88.9667 75.0726 89.4084 75.309 89.8802 75.421C91.5238 75.8858 96.1663 74.7606 97.1395 74.5078L99.2445 67.1206C98.8264 67.0962 98.1632 67.0717 97.3846 67.0717Z" fill="#231F20"/>
<path d="M197.076 65.0006C197.076 65.0006 207.27 63.9977 209.461 68.3518C211.653 72.7058 209.721 75.3883 207.659 76.0569C205.597 76.7255 199.527 74.891 199.527 74.891L197.076 65.0006Z" fill="#231F20"/>
<path d="M206.462 76.6114C204.086 76.4394 201.731 75.9941 199.434 75.2824C199.374 75.2629 199.319 75.2265 199.275 75.1766C199.231 75.1267 199.198 75.0649 199.181 74.997L196.73 65.1148C196.715 65.0572 196.711 64.9963 196.72 64.9369C196.729 64.8775 196.75 64.8212 196.781 64.7724C196.812 64.723 196.851 64.6816 196.897 64.6507C196.943 64.6198 196.994 64.6001 197.047 64.593C197.466 64.5522 207.493 63.6227 209.778 68.148C211.09 70.7653 210.889 72.6324 210.499 73.7413C210.252 74.3968 209.878 74.9807 209.403 75.4494C208.929 75.9182 208.367 76.2596 207.76 76.4483C207.336 76.5699 206.899 76.6248 206.462 76.6114ZM199.816 74.5485C200.868 74.8584 205.813 76.2282 207.558 75.6656C208.059 75.5096 208.523 75.2277 208.915 74.8409C209.307 74.4541 209.617 73.9724 209.822 73.4315C210.312 72.0861 210.074 70.3983 209.151 68.5393C207.342 64.9517 199.484 65.2371 197.545 65.3594L199.816 74.5485Z" fill="#231F20"/>
<path d="M197.076 66.7781C197.076 66.7781 206.599 65.9628 208.654 69.5096C210.708 73.0564 208.892 75.2171 206.967 75.7797C205.042 76.3423 199.369 74.8258 199.369 74.8258L197.076 66.7781Z" fill="white"/>
<path d="M205.842 76.2689C203.633 76.1303 201.44 75.7674 199.289 75.1845C199.234 75.1706 199.183 75.1408 199.142 75.0979C199.1 75.055 199.069 75.0005 199.051 74.9399L196.759 66.8923C196.744 66.839 196.741 66.7827 196.748 66.7276C196.756 66.6725 196.774 66.6201 196.802 66.5743C196.83 66.5275 196.866 66.488 196.908 66.4584C196.95 66.4289 196.998 66.41 197.047 66.403C197.444 66.403 206.794 65.5877 208.927 69.3057C210.103 71.336 209.987 72.8281 209.648 73.725C209.413 74.3395 209.051 74.8818 208.594 75.3071C208.136 75.7324 207.596 76.0285 207.017 76.1711C206.63 76.2535 206.236 76.2864 205.842 76.2689ZM199.621 74.5077C200.601 74.7523 205.237 75.8857 206.887 75.4209C207.359 75.3089 207.801 75.0726 208.177 74.7311C208.552 74.3897 208.852 73.9528 209.05 73.4559C209.41 72.4041 209.173 71.1158 208.329 69.7134C206.649 66.7944 199.318 67.0146 197.473 67.1206L199.621 74.5077Z" fill="#231F20"/>
<path d="M89.765 73.089C89.7178 73.0897 89.6709 73.0791 89.6274 73.0581C89.584 73.037 89.5449 73.0059 89.5127 72.9667C89.4789 72.9288 89.4521 72.8837 89.4338 72.8341C89.4155 72.7844 89.4061 72.7311 89.4061 72.6773C89.4061 72.6235 89.4155 72.5702 89.4338 72.5205C89.4521 72.4708 89.4789 72.4257 89.5127 72.3878L93.182 68.311C93.2149 68.273 93.2542 68.2429 93.2975 68.2223C93.3408 68.2017 93.3874 68.1911 93.4344 68.1911C93.4814 68.1911 93.5279 68.2017 93.5712 68.2223C93.6145 68.2429 93.6538 68.273 93.6867 68.311C93.7211 68.3476 93.7486 68.3918 93.7674 68.4409C93.7862 68.49 93.7959 68.5429 93.7959 68.5964C93.7959 68.6499 93.7862 68.7028 93.7674 68.7519C93.7486 68.801 93.7211 68.8452 93.6867 68.8818L90.0173 72.9586C89.9858 72.9992 89.947 73.0319 89.9035 73.0544C89.8601 73.0768 89.8128 73.0887 89.765 73.089Z" fill="#D1D3D4"/>
<path d="M202.101 72.1676C202.026 72.1689 201.952 72.1435 201.89 72.0952C201.828 72.0468 201.782 71.9779 201.756 71.898C201.731 71.818 201.728 71.7311 201.748 71.6494C201.769 71.5676 201.811 71.4951 201.87 71.442L205.035 68.4904C205.07 68.4554 205.112 68.4289 205.157 68.4124C205.202 68.3959 205.249 68.3897 205.296 68.3943C205.343 68.3988 205.389 68.414 205.431 68.4389C205.472 68.4638 205.509 68.498 205.539 68.5393C205.6 68.6231 205.63 68.7305 205.622 68.8387C205.614 68.9469 205.569 69.0472 205.496 69.1182L202.331 72.0698C202.267 72.1315 202.185 72.166 202.101 72.1676Z" fill="#D1D3D4"/>
<path d="M206.015 72.502C205.959 72.5026 205.904 72.4882 205.854 72.4598C205.803 72.4315 205.76 72.39 205.727 72.3389C205.672 72.2507 205.65 72.1419 205.665 72.0354C205.679 71.929 205.73 71.8331 205.806 71.7682L207.313 70.537C207.352 70.5057 207.395 70.4834 207.442 70.4714C207.488 70.4594 207.536 70.4579 207.583 70.4669C207.63 70.476 207.675 70.4956 207.715 70.5244C207.755 70.5532 207.79 70.5907 207.817 70.6348C207.872 70.7217 207.894 70.8293 207.879 70.9344C207.864 71.0395 207.814 71.1339 207.738 71.1974L206.239 72.4286C206.172 72.4778 206.095 72.5034 206.015 72.502Z" fill="#D1D3D4"/>
<path d="M210.96 99.1724C209.879 93.8563 208.43 92.0136 208.43 92.0136C208.43 92.0136 206.801 82.2292 205.547 78.9189C204.832 76.9992 203.561 75.4119 201.942 74.4181C201.942 74.4181 190.004 44.5432 188.555 41.8851C187.106 39.227 183.848 38.8194 183.848 38.8194C175.918 36.7728 148.395 36.7728 148.395 36.7728C148.395 36.7728 120.9 36.7728 112.941 38.8194C112.941 38.8194 109.683 39.227 108.241 41.8851C106.799 44.5432 94.8544 74.4181 94.8544 74.4181C93.2374 75.414 91.9667 77.0006 91.2499 78.9189C89.9812 82.1803 88.3664 92.0136 88.3664 92.0136C88.3664 92.0136 86.9246 93.8563 85.8289 99.1724C84.7331 104.489 84.9278 113.083 85.8289 117.583H210.96C211.869 113.107 212.049 104.489 210.96 99.1724Z" fill="#FFBA7C"/>
<path d="M210.961 117.999H85.7856C85.711 117.999 85.6387 117.97 85.5809 117.916C85.5231 117.863 85.4834 117.788 85.4685 117.706C84.5746 113.286 84.3583 104.562 85.4685 99.1317C86.4489 94.3292 87.7176 92.3153 88.0132 91.8913C88.1934 90.815 89.7001 81.952 90.8967 78.8455C91.6352 76.8866 92.9251 75.2585 94.5661 74.2143C95.5104 71.8579 106.511 44.3557 107.924 41.7629C109.438 38.9825 112.732 38.5014 112.869 38.5014C120.734 36.4793 148.085 36.4549 148.359 36.4549C148.633 36.4549 175.983 36.4549 183.891 38.5096C183.992 38.5096 187.287 38.9662 188.8 41.771C190.206 44.3639 201.214 71.866 202.158 74.2224C203.795 75.2704 205.082 76.8976 205.821 78.8537C207.039 81.9928 208.546 90.8558 208.704 91.8995C209 92.3234 210.268 94.3455 211.249 99.1399C212.359 104.57 212.136 113.286 211.249 117.714C211.233 117.789 211.196 117.857 211.145 117.908C211.093 117.959 211.029 117.991 210.961 117.999ZM86.0524 117.184H210.701C211.523 112.748 211.703 104.44 210.643 99.2459C209.584 94.052 208.2 92.2664 208.185 92.2501C208.145 92.1995 208.117 92.1375 208.106 92.0707C208.106 91.9728 206.469 82.2863 205.222 79.0249C204.525 77.1918 203.308 75.674 201.762 74.7116C201.726 74.6952 201.694 74.6709 201.667 74.6401C201.639 74.6093 201.618 74.5726 201.603 74.5323C201.481 74.2306 189.658 44.6492 188.238 42.0401C186.89 39.594 183.812 39.1537 183.776 39.1455C175.911 37.1235 148.633 37.099 148.359 37.099C148.085 37.099 120.814 37.099 112.978 39.1374C112.913 39.1374 109.827 39.5695 108.486 42.0401C107.045 44.6492 95.2365 74.2306 95.1211 74.5323C95.087 74.6129 95.0281 74.6767 94.9553 74.7116C93.4125 75.6754 92.1975 77.1931 91.5023 79.0249C90.2624 82.2211 88.6187 91.9402 88.6187 92.0707C88.61 92.1369 88.585 92.199 88.5466 92.2501C88.5466 92.2501 87.1049 94.1172 86.0884 99.2459C85.072 104.374 85.2234 112.781 86.0524 117.184Z" fill="#231F20"/>
<path d="M86.0522 120.29H102.431V148.926C102.431 150.489 101.882 151.989 100.904 153.094C99.9268 154.2 98.6011 154.821 97.2188 154.821H91.2714C89.8891 154.821 88.5634 154.2 87.586 153.094C86.6085 151.989 86.0594 150.489 86.0594 148.926V120.29H86.0522Z" fill="#231F20"/>
<path d="M97.2119 155.229H91.2718C89.7932 155.229 88.3751 154.565 87.3289 153.383C86.2827 152.201 85.694 150.598 85.6921 148.926V120.29C85.6921 120.182 85.7301 120.079 85.7977 120.002C85.8653 119.926 85.957 119.883 86.0526 119.883H102.431C102.527 119.883 102.618 119.926 102.686 120.002C102.754 120.079 102.792 120.182 102.792 120.29V148.926C102.79 150.598 102.201 152.201 101.155 153.383C100.109 154.565 98.6905 155.229 97.2119 155.229ZM86.3986 120.698V148.926C86.4005 150.382 86.9132 151.778 87.8242 152.807C88.7352 153.835 89.97 154.413 91.2574 154.413H97.1975C98.4849 154.413 99.7196 153.835 100.631 152.807C101.542 151.778 102.054 150.382 102.056 148.926V120.698H86.3986Z" fill="#231F20"/>
<path d="M90.1758 92.5599C90.1758 92.5599 91.6175 80.0114 96.9305 74.8257C96.9305 74.8257 111.637 75.372 115.378 80.0114C119.119 84.6508 117.065 90.1056 114.412 91.6059C111.759 93.1061 90.1758 92.5599 90.1758 92.5599Z" fill="white"/>
<path d="M98.6172 93.0247C94.2126 93.0247 90.5432 92.935 90.1828 92.9268C90.1361 92.9258 90.0902 92.9137 90.0479 92.8912C90.0057 92.8687 89.9681 92.8364 89.9377 92.7964C89.908 92.7577 89.8861 92.712 89.8736 92.6627C89.8612 92.6134 89.8585 92.5616 89.8656 92.511C89.9233 91.9892 91.3867 79.7587 96.7285 74.573C96.7927 74.5171 96.8709 74.4857 96.9519 74.4834C97.5575 74.4834 111.845 75.0949 115.637 79.7914C116.449 80.7267 117.054 81.8654 117.404 83.115C117.753 84.3645 117.837 85.6897 117.649 86.9828C117.496 88.0192 117.141 89.004 116.61 89.8658C116.079 90.7276 115.385 91.4446 114.578 91.9647C112.977 92.8371 105.019 93.0247 98.6172 93.0247ZM90.5721 92.2093C98.1126 92.3887 112.271 92.4213 114.282 91.288C114.997 90.818 115.611 90.1752 116.081 89.4056C116.551 88.6361 116.865 87.7587 117 86.8361C117.164 85.6607 117.082 84.4581 116.76 83.3251C116.438 82.1921 115.886 81.1604 115.147 80.3132C111.73 76.0733 98.5163 75.3313 97.0601 75.2579C92.5185 79.7587 90.8965 90.016 90.5721 92.193V92.2093Z" fill="#231F20"/>
<path d="M96.2168 116.662C96.1741 116.662 96.1317 116.653 96.0922 116.635C96.0526 116.617 96.0165 116.59 95.9862 116.556C91.3509 111.313 91.9997 100.493 92.0285 100.029C92.0312 99.9797 92.0426 99.9318 92.0619 99.8879C92.0813 99.844 92.1082 99.8049 92.1411 99.773C92.1741 99.7411 92.2123 99.7169 92.2536 99.702C92.295 99.6871 92.3385 99.6817 92.3817 99.6862C92.469 99.6945 92.5501 99.7408 92.6079 99.8153C92.6657 99.8898 92.6957 99.9867 92.6917 100.086C92.6917 100.192 92.0285 111.028 96.4547 116.026C96.5135 116.098 96.5461 116.193 96.5461 116.291C96.5461 116.389 96.5135 116.484 96.4547 116.556C96.4233 116.591 96.386 116.618 96.3452 116.636C96.3043 116.654 96.2607 116.663 96.2168 116.662Z" fill="#231F20"/>
<path d="M113.374 41.6487C113.298 41.647 113.224 41.6163 113.165 41.5615C113.107 41.5068 113.066 41.4312 113.05 41.347L112.595 38.9009C112.579 38.8044 112.597 38.7045 112.645 38.6227C112.693 38.5409 112.768 38.4837 112.853 38.4634C112.938 38.4431 113.026 38.4613 113.099 38.5141C113.173 38.567 113.225 38.6502 113.244 38.746L113.698 41.1921C113.713 41.2891 113.695 41.389 113.647 41.471C113.598 41.553 113.524 41.6108 113.439 41.6323L113.374 41.6487Z" fill="#231F20"/>
<path d="M205.482 154.821H199.535C198.152 154.821 196.827 154.2 195.849 153.094C194.872 151.989 194.323 150.489 194.323 148.926V120.29H210.694V148.958C210.686 150.516 210.134 152.007 209.157 153.106C208.181 154.204 206.859 154.821 205.482 154.821Z" fill="#231F20"/>
<path d="M205.518 155.229H199.535C198.057 155.226 196.641 154.562 195.596 153.38C194.552 152.199 193.964 150.597 193.962 148.926V120.29C193.962 120.182 194 120.079 194.068 120.002C194.135 119.926 194.227 119.883 194.323 119.883H210.694C210.789 119.883 210.881 119.926 210.949 120.002C211.016 120.079 211.054 120.182 211.054 120.29V148.926C211.052 150.59 210.47 152.186 209.433 153.366C208.396 154.546 206.989 155.216 205.518 155.229ZM194.705 120.698V148.926C194.707 150.381 195.218 151.775 196.128 152.804C197.037 153.832 198.27 154.411 199.556 154.413H205.518C206.804 154.411 208.037 153.832 208.946 152.804C209.856 151.775 210.368 150.381 210.37 148.926V120.698H194.705Z" fill="#231F20"/>
<path d="M206.563 92.5599C206.563 92.5599 205.121 80.0114 199.808 74.8257C199.808 74.8257 185.095 75.372 181.354 80.0114C177.612 84.6508 179.667 90.1056 182.319 91.6059C184.972 93.1061 206.563 92.5599 206.563 92.5599Z" fill="white"/>
<path d="M198.136 93.0247C191.735 93.0247 183.769 92.8371 182.176 91.9321C181.368 91.4129 180.673 90.6961 180.142 89.8342C179.611 88.9722 179.256 87.9869 179.105 86.9502C178.913 85.657 178.995 84.3308 179.345 83.0805C179.694 81.8303 180.302 80.6918 181.116 79.7587C184.901 75.0622 199.189 74.4752 199.794 74.4507C199.877 74.4558 199.957 74.4869 200.025 74.5404C205.367 79.7587 206.83 91.9891 206.888 92.4784C206.895 92.5296 206.892 92.5821 206.878 92.6316C206.864 92.6812 206.84 92.7264 206.809 92.7637C206.78 92.8044 206.744 92.8373 206.703 92.8599C206.662 92.8825 206.616 92.8942 206.571 92.8942C206.239 92.935 202.541 93.0247 198.136 93.0247ZM199.693 75.2008C198.252 75.2742 185.023 76.0162 181.599 80.2561C180.862 81.1045 180.31 82.1362 179.988 83.2689C179.667 84.4015 179.584 85.6036 179.746 86.779C179.882 87.7027 180.196 88.581 180.667 89.3508C181.138 90.1205 181.755 90.7626 182.471 91.2309C184.475 92.3642 198.634 92.3316 206.181 92.1522C205.879 90.016 204.228 79.7587 199.693 75.2008Z" fill="#231F20"/>
<path d="M200.529 116.662C200.486 116.663 200.444 116.654 200.404 116.636C200.365 116.617 200.329 116.59 200.298 116.556C200.236 116.486 200.202 116.39 200.202 116.291C200.202 116.192 200.236 116.096 200.298 116.026C204.718 111.028 204.069 100.192 204.062 100.086C204.056 99.9874 204.084 99.8905 204.141 99.8157C204.197 99.741 204.278 99.6944 204.364 99.6861C204.451 99.6793 204.537 99.7115 204.603 99.7755C204.669 99.8396 204.71 99.9305 204.718 100.029C204.718 100.493 205.402 111.313 200.767 116.556C200.736 116.591 200.698 116.618 200.658 116.636C200.617 116.654 200.573 116.663 200.529 116.662Z" fill="#231F20"/>
<path d="M148.373 117.583H85.7857C85.7857 117.583 86.4489 128.631 90.1903 133.548C93.9317 138.465 96.1016 140.503 106.23 140.503H190.523C200.652 140.503 202.822 138.457 206.563 133.548C210.305 128.64 210.961 117.583 210.961 117.583H148.373Z" fill="#231F20"/>
<path d="M190.523 140.911H106.23C96.26 140.911 93.8378 138.962 89.9162 133.809C86.1388 128.852 85.4539 118.073 85.4251 117.616C85.4214 117.559 85.4285 117.502 85.4459 117.449C85.4633 117.395 85.4906 117.347 85.526 117.306C85.5586 117.265 85.5987 117.232 85.6434 117.209C85.6881 117.187 85.7366 117.175 85.7855 117.176H210.96C211.01 117.175 211.06 117.187 211.105 117.209C211.151 117.232 211.192 117.265 211.226 117.306C211.26 117.348 211.286 117.397 211.302 117.45C211.318 117.503 211.325 117.56 211.321 117.616C211.321 118.073 210.6 128.852 206.837 133.809C202.908 138.962 200.471 140.911 190.523 140.911ZM86.182 117.999C86.3478 120.086 87.2633 129.08 90.4641 133.287C94.0685 138.008 96.0798 140.104 106.23 140.104H190.523C200.673 140.104 202.692 138.008 206.289 133.287C209.49 129.08 210.398 120.086 210.571 117.999H86.182Z" fill="#231F20"/>
<path d="M197.877 72.983C196.219 66.7618 190.545 46.6958 185.564 42.8147C182.313 40.2707 158.502 39.6592 148.373 39.6592C138.245 39.6592 114.434 40.2707 111.19 42.8147C106.202 46.7202 100.535 66.7863 98.8701 72.983C98.8701 72.983 130.921 73.5946 148.373 73.5946C165.826 73.5946 197.877 72.983 197.877 72.983Z" fill="#231F20"/>
<path d="M148.373 73.9696C131.115 73.9696 99.1867 73.3663 98.8623 73.3581C98.807 73.3569 98.7526 73.3412 98.7035 73.3124C98.6544 73.2835 98.6118 73.2423 98.579 73.1918C98.5462 73.1414 98.5242 73.083 98.5146 73.0214C98.5049 72.9597 98.508 72.8964 98.5235 72.8363C100.16 66.7048 105.898 46.4104 110.98 42.4233C115.053 39.2352 148.041 39.1618 148.373 39.1618C148.704 39.1618 181.699 39.1618 185.765 42.4233C190.855 46.4104 196.579 66.7048 198.222 72.8363C198.239 72.8963 198.244 72.9602 198.235 73.0225C198.226 73.0849 198.205 73.144 198.172 73.195C198.138 73.2452 198.094 73.286 198.044 73.3142C197.994 73.3425 197.939 73.3575 197.883 73.3581C197.588 73.3989 165.631 73.9696 148.373 73.9696ZM99.3525 72.5509C103.418 72.6324 132.283 73.1543 148.373 73.1543C164.463 73.1543 193.335 72.6324 197.393 72.5509C195.613 65.9465 190.119 46.8262 185.354 43.0919C182.471 40.8333 161.659 40.0098 148.373 40.0098C135.087 40.0098 114.275 40.8252 111.391 43.0919C106.633 46.8589 101.14 65.9791 99.3525 72.5835V72.5509Z" fill="#231F20"/>
<path d="M183.379 41.6487H183.307C183.223 41.6254 183.151 41.5669 183.104 41.4851C183.057 41.4033 183.039 41.3043 183.055 41.2084L183.509 38.7623C183.512 38.7085 183.525 38.6561 183.548 38.6086C183.57 38.5611 183.602 38.5197 183.64 38.4871C183.678 38.4545 183.721 38.4316 183.768 38.4199C183.814 38.4082 183.863 38.4079 183.909 38.4192C183.956 38.4304 184 38.4529 184.038 38.4851C184.076 38.5173 184.108 38.5584 184.131 38.6057C184.154 38.653 184.167 38.7053 184.171 38.759C184.174 38.8128 184.167 38.8667 184.151 38.9172L183.696 41.3633C183.68 41.4446 183.64 41.5171 183.582 41.5689C183.524 41.6208 183.453 41.6489 183.379 41.6487Z" fill="#231F20"/>
<path d="M109.02 45.7499C108.942 45.751 108.866 45.7203 108.807 45.6634C108.747 45.6065 108.707 45.5272 108.695 45.4401C108.688 45.3914 108.69 45.3415 108.699 45.2934C108.709 45.2453 108.727 45.1998 108.753 45.1596C108.778 45.1195 108.811 45.0854 108.848 45.0594C108.885 45.0334 108.926 45.0159 108.969 45.008C122.019 42.8501 135.185 41.7059 148.373 41.5834C161.564 41.7061 174.731 42.8503 187.784 45.008C187.827 45.0159 187.868 45.0334 187.905 45.0594C187.943 45.0854 187.975 45.1195 188 45.1596C188.026 45.1998 188.044 45.2453 188.054 45.2934C188.064 45.3415 188.065 45.3914 188.058 45.4401C188.052 45.4885 188.037 45.5351 188.015 45.577C187.993 45.619 187.963 45.6555 187.928 45.6843C187.893 45.7132 187.853 45.7339 187.811 45.7452C187.769 45.7564 187.726 45.7581 187.683 45.7499C174.665 43.5877 161.53 42.4435 148.373 42.3254C135.218 42.4432 122.086 43.5874 109.07 45.7499H109.02Z" fill="#231F20"/>
<path d="M188.533 52.2158C187.539 49.15 187.265 47.821 181.57 46.6958C175.875 45.5706 148.409 45.383 148.409 45.383C148.409 45.383 120.914 45.5706 115.248 46.6958C109.582 47.821 109.279 49.1419 108.284 52.2158C107.289 55.2897 103.959 63.0601 105.026 66.2318C106.093 69.4036 108.371 69.7134 114.52 69.9173C120.669 70.1211 176.206 70.1211 182.355 69.9173C188.505 69.7134 190.768 69.4036 191.85 66.2318C192.931 63.0601 189.528 55.2897 188.533 52.2158Z" fill="white"/>
<path d="M148.373 70.4391C132.917 70.4391 117.462 70.3901 114.448 70.2841C108.523 70.0885 105.848 69.8602 104.651 66.3704C103.729 63.6553 105.783 57.9966 107.146 54.2541C107.456 53.4388 107.722 52.6642 107.91 52.0934L107.989 51.8325C108.933 48.9217 109.431 47.454 115.126 46.3288C120.821 45.2036 147.249 45.0161 148.373 45.0079C149.498 44.9998 175.962 45.2118 181.628 46.3288C187.294 47.4459 187.82 48.9217 188.757 51.8325L188.844 52.0934C189.024 52.6642 189.298 53.4062 189.608 54.2541C190.963 57.9966 193.025 63.6553 192.095 66.3704C190.898 69.8602 188.231 70.0885 182.298 70.2841C179.292 70.3901 163.829 70.4391 148.373 70.4391ZM148.373 45.7499C148.099 45.7499 120.842 45.9538 115.212 47.0626C109.863 48.1145 109.489 49.2804 108.58 52.0853L108.501 52.3462C108.306 52.9251 108.04 53.6752 107.722 54.5395C106.482 57.9477 104.406 63.6634 105.242 66.1013C106.245 69.0285 108.306 69.3628 114.441 69.5422C120.46 69.746 176.235 69.746 182.255 69.5422C188.382 69.3383 190.451 69.0285 191.453 66.1013C192.282 63.6553 190.206 57.9477 188.966 54.5395C188.656 53.6752 188.382 52.9088 188.195 52.3462L188.108 52.0853C187.207 49.2804 186.833 48.1145 181.484 47.0626C175.904 45.9538 148.647 45.7499 148.373 45.7499Z" fill="#231F20"/>
<path d="M148.38 106.503C148.272 106.503 138.483 106.397 128.621 105.891C108.494 104.856 107.715 103.241 107.391 102.63C105.74 99.3192 104.039 76.5951 103.967 75.633C103.947 75.5774 103.94 75.5175 103.945 75.4582C103.951 75.3989 103.968 75.3418 103.997 75.2918C104.026 75.2418 104.065 75.2002 104.11 75.1705C104.156 75.1409 104.207 75.124 104.26 75.1212C104.313 75.1185 104.365 75.13 104.413 75.1548C104.461 75.1796 104.503 75.217 104.536 75.2638C104.568 75.3106 104.591 75.3656 104.601 75.4241C104.611 75.4827 104.608 75.5431 104.594 75.6003C104.594 75.8368 106.36 99.1317 107.931 102.295C109.049 104.546 133.314 105.63 148.352 105.785C163.375 105.63 187.64 104.546 188.757 102.295C190.336 99.1317 192.081 75.8368 192.095 75.6003C192.104 75.5031 192.146 75.4134 192.211 75.3497C192.277 75.286 192.362 75.2532 192.448 75.2579C192.492 75.262 192.534 75.2758 192.573 75.2986C192.612 75.3213 192.647 75.3525 192.675 75.3904C192.703 75.4283 192.724 75.4722 192.737 75.5194C192.75 75.5666 192.755 75.6163 192.751 75.6656C192.679 76.6277 190.978 99.3518 189.334 102.662C189.031 103.274 188.224 104.888 168.104 105.924C158.264 106.397 148.474 106.503 148.38 106.503Z" fill="#231F20"/>
<path d="M171.333 110.832H132.643C131.596 110.832 130.747 111.792 130.747 112.977V121.782C130.747 122.967 131.596 123.927 132.643 123.927H171.333C172.38 123.927 173.229 122.967 173.229 121.782V112.977C173.229 111.792 172.38 110.832 171.333 110.832Z" fill="white"/>
<path d="M171.341 124.302H132.643C132.055 124.302 131.49 124.037 131.073 123.566C130.657 123.095 130.423 122.457 130.423 121.791V112.977C130.423 112.31 130.657 111.672 131.073 111.201C131.49 110.73 132.055 110.465 132.643 110.465H171.341C171.93 110.465 172.494 110.73 172.911 111.201C173.327 111.672 173.561 112.31 173.561 112.977V121.791C173.561 122.457 173.327 123.095 172.911 123.566C172.494 124.037 171.93 124.302 171.341 124.302ZM132.643 111.207C132.229 111.207 131.831 111.394 131.537 111.725C131.244 112.057 131.079 112.507 131.079 112.977V121.791C131.081 122.258 131.247 122.706 131.54 123.036C131.833 123.366 132.23 123.552 132.643 123.552H171.341C171.754 123.552 172.151 123.366 172.444 123.036C172.737 122.706 172.903 122.258 172.905 121.791V112.977C172.905 112.507 172.74 112.057 172.447 111.725C172.153 111.394 171.756 111.207 171.341 111.207H132.643Z" fill="#231F20"/>
<path d="M140.299 114.33H145.208V115.684H141.914V116.719H144.898V117.999H141.914V119.116H145.216V120.445H140.299V114.33Z" fill="black"/>
<path d="M147.904 117.379C147.904 115.488 149.346 114.167 151.307 114.167C152.857 114.167 154.061 114.982 154.356 116.287L152.857 116.678C152.748 116.321 152.536 116.015 152.255 115.811C151.974 115.607 151.64 115.516 151.307 115.553C151.083 115.536 150.857 115.572 150.645 115.657C150.434 115.743 150.239 115.877 150.075 116.051C149.911 116.225 149.78 116.435 149.69 116.668C149.601 116.902 149.555 117.153 149.555 117.408C149.555 117.662 149.601 117.914 149.69 118.148C149.78 118.381 149.911 118.591 150.075 118.765C150.239 118.939 150.434 119.073 150.645 119.159C150.857 119.244 151.083 119.28 151.307 119.263C151.661 119.297 152.014 119.189 152.304 118.958C152.594 118.727 152.803 118.387 152.893 117.999L154.414 118.358C154.133 119.793 152.893 120.633 151.307 120.633C149.325 120.6 147.904 119.271 147.904 117.379Z" fill="black"/>
<path d="M156.88 117.379C156.88 115.488 158.321 114.167 160.282 114.167C162.243 114.167 163.685 115.488 163.685 117.379C163.685 119.271 162.243 120.6 160.282 120.6C158.321 120.6 156.88 119.271 156.88 117.379ZM162.07 117.379C162.099 116.974 162.019 116.568 161.841 116.215C161.663 115.862 161.395 115.578 161.072 115.399C160.749 115.221 160.386 115.157 160.03 115.215C159.674 115.274 159.343 115.453 159.078 115.728C158.813 116.003 158.628 116.362 158.547 116.758C158.465 117.154 158.491 117.569 158.621 117.948C158.751 118.327 158.979 118.653 159.276 118.883C159.572 119.113 159.923 119.237 160.282 119.238C160.511 119.268 160.743 119.241 160.962 119.16C161.181 119.08 161.382 118.947 161.551 118.77C161.721 118.594 161.855 118.379 161.944 118.139C162.034 117.899 162.077 117.64 162.07 117.379Z" fill="black"/>
<path d="M133.364 114.42C133.691 114.42 133.955 114.12 133.955 113.751C133.955 113.382 133.691 113.083 133.364 113.083C133.038 113.083 132.773 113.382 132.773 113.751C132.773 114.12 133.038 114.42 133.364 114.42Z" fill="#D1D3D4"/>
<path d="M170.627 114.42C170.954 114.42 171.218 114.12 171.218 113.751C171.218 113.382 170.954 113.083 170.627 113.083C170.301 113.083 170.036 113.382 170.036 113.751C170.036 114.12 170.301 114.42 170.627 114.42Z" fill="#D1D3D4"/>
<path d="M133.364 121.676C133.691 121.676 133.955 121.377 133.955 121.008C133.955 120.639 133.691 120.339 133.364 120.339C133.038 120.339 132.773 120.639 132.773 121.008C132.773 121.377 133.038 121.676 133.364 121.676Z" fill="#D1D3D4"/>
<path d="M170.627 121.676C170.954 121.676 171.218 121.377 171.218 121.008C171.218 120.639 170.954 120.339 170.627 120.339C170.301 120.339 170.036 120.639 170.036 121.008C170.036 121.377 170.301 121.676 170.627 121.676Z" fill="#D1D3D4"/>
<path d="M99.0932 90.7171C98.0264 90.7187 96.9832 90.3624 96.0955 89.6932C95.2078 89.0241 94.5155 88.0721 94.1063 86.9578C93.6971 85.8436 93.5893 84.617 93.7965 83.4334C94.0038 82.2498 94.5168 81.1623 95.2706 80.3085C96.0244 79.4548 96.9852 78.8731 98.0314 78.6371C99.0776 78.4011 100.162 78.5214 101.148 78.9828C102.134 79.4442 102.976 80.2259 103.569 81.229C104.162 82.2321 104.478 83.4116 104.478 84.6182C104.476 86.2337 103.909 87.7825 102.899 88.9256C101.89 90.0686 100.521 90.7128 99.0932 90.7171ZM99.0932 79.3428C98.1687 79.3412 97.2646 79.6499 96.4953 80.2299C95.7259 80.8098 95.1261 81.6349 94.7716 82.6007C94.4172 83.5665 94.3241 84.6295 94.5041 85.6551C94.6841 86.6808 95.1291 87.623 95.7829 88.3624C96.4366 89.1018 97.2696 89.6052 98.1764 89.8088C99.0833 90.0124 100.023 89.9071 100.877 89.5062C101.731 89.1053 102.46 88.4268 102.973 87.5567C103.486 86.6865 103.759 85.6639 103.757 84.6182C103.755 83.2198 103.263 81.8792 102.389 80.8904C101.515 79.9015 100.33 79.345 99.0932 79.3428Z" fill="#D1D3D4"/>
<path d="M110.664 89.5349C109.808 89.5349 108.972 89.2479 108.261 88.7104C107.549 88.1728 106.995 87.4088 106.668 86.5148C106.34 85.6209 106.254 84.6373 106.421 83.6883C106.588 82.7393 107 81.8676 107.605 81.1834C108.21 80.4992 108.981 80.0333 109.82 79.8445C110.659 79.6558 111.528 79.7526 112.319 80.1229C113.109 80.4932 113.785 81.1202 114.26 81.9248C114.735 82.7293 114.989 83.6751 114.989 84.6427C114.989 85.9402 114.533 87.1845 113.722 88.102C112.911 89.0194 111.811 89.5349 110.664 89.5349ZM110.664 80.5251C109.951 80.5251 109.254 80.7642 108.661 81.2122C108.068 81.6601 107.606 82.2969 107.334 83.0418C107.061 83.7867 106.989 84.6065 107.128 85.3973C107.267 86.1881 107.611 86.9145 108.115 87.4847C108.619 88.0548 109.261 88.4431 109.96 88.6004C110.66 88.7577 111.384 88.677 112.043 88.3684C112.702 88.0598 113.265 87.5373 113.661 86.8669C114.057 86.1965 114.268 85.4082 114.268 84.6019C114.272 84.0638 114.181 83.5302 114.002 83.0318C113.823 82.5334 113.558 82.0801 113.223 81.6981C112.887 81.3161 112.489 81.0128 112.05 80.8059C111.61 80.599 111.139 80.4925 110.664 80.4925V80.5251Z" fill="#D1D3D4"/>
<path d="M198.309 90.7171C197.242 90.7187 196.199 90.3624 195.311 89.6932C194.423 89.0241 193.731 88.0721 193.322 86.9578C192.913 85.8436 192.805 84.617 193.012 83.4334C193.219 82.2498 193.732 81.1623 194.486 80.3085C195.24 79.4548 196.201 78.8731 197.247 78.6371C198.293 78.4011 199.378 78.5214 200.363 78.9828C201.349 79.4442 202.192 80.2259 202.785 81.229C203.377 82.2321 203.694 83.4116 203.694 84.6182C203.692 86.2337 203.124 87.7825 202.115 88.9256C201.106 90.0686 199.737 90.7128 198.309 90.7171ZM198.309 79.3428C197.384 79.3412 196.48 79.6499 195.711 80.2299C194.941 80.8098 194.342 81.6349 193.987 82.6007C193.633 83.5665 193.54 84.6295 193.72 85.6551C193.9 86.6808 194.345 87.623 194.998 88.3624C195.652 89.1018 196.485 89.6052 197.392 89.8088C198.299 90.0124 199.239 89.9071 200.093 89.5062C200.946 89.1053 201.676 88.4268 202.189 87.5567C202.701 86.6865 202.974 85.6639 202.973 84.6182C202.971 83.2198 202.479 81.8792 201.605 80.8904C200.73 79.9015 199.545 79.345 198.309 79.3428Z" fill="#D1D3D4"/>
<path d="M186.71 89.5349C185.854 89.5349 185.018 89.2479 184.307 88.7104C183.596 88.1728 183.041 87.4088 182.714 86.5148C182.386 85.6209 182.301 84.6373 182.468 83.6883C182.635 82.7393 183.047 81.8676 183.651 81.1834C184.256 80.4992 185.027 80.0333 185.866 79.8445C186.705 79.6558 187.575 79.7526 188.365 80.1229C189.156 80.4932 189.831 81.1202 190.306 81.9248C190.782 82.7293 191.035 83.6751 191.035 84.6427C191.035 85.9402 190.58 87.1845 189.768 88.102C188.957 89.0194 187.857 89.5349 186.71 89.5349ZM186.71 80.5251C185.997 80.5251 185.3 80.7642 184.707 81.2122C184.115 81.6601 183.653 82.2969 183.38 83.0418C183.107 83.7867 183.036 84.6065 183.175 85.3973C183.314 86.1881 183.657 86.9145 184.161 87.4847C184.665 88.0548 185.308 88.4431 186.007 88.6004C186.706 88.7577 187.431 88.677 188.089 88.3684C188.748 88.0598 189.311 87.5373 189.707 86.8669C190.103 86.1965 190.314 85.4082 190.314 84.6019C190.318 84.0638 190.228 83.5302 190.048 83.0318C189.869 82.5334 189.604 82.0801 189.269 81.6981C188.934 81.3161 188.535 81.0128 188.096 80.8059C187.657 80.599 187.186 80.4925 186.71 80.4925V80.5251Z" fill="#D1D3D4"/>
<path d="M96.2168 86.8279C96.1663 86.8272 96.1164 86.8146 96.0704 86.7907C96.0245 86.7668 95.9835 86.7323 95.9501 86.6893C95.9163 86.6514 95.8895 86.6063 95.8712 86.5566C95.8529 86.5069 95.8435 86.4536 95.8435 86.3998C95.8435 86.346 95.8529 86.2927 95.8712 86.243C95.8895 86.1934 95.9163 86.1483 95.9501 86.1104L100.593 81.4791C100.626 81.4409 100.666 81.4106 100.71 81.3899C100.754 81.3692 100.801 81.3585 100.849 81.3585C100.896 81.3585 100.943 81.3692 100.987 81.3899C101.031 81.4106 101.071 81.4409 101.104 81.4791C101.171 81.5567 101.208 81.6605 101.208 81.7686C101.208 81.8766 101.171 81.9804 101.104 82.058L96.4619 86.6893C96.4322 86.7308 96.3949 86.7646 96.3526 86.7886C96.3104 86.8125 96.2641 86.8259 96.2168 86.8279Z" fill="#D1D3D4"/>
<path d="M97.4853 88.2711C97.4337 88.2706 97.3827 88.258 97.3356 88.2342C97.2884 88.2103 97.2462 88.1757 97.2114 88.1325C97.1803 88.0914 97.1567 88.0438 97.142 87.9924C97.1273 87.9409 97.1219 87.8867 97.1259 87.8328C97.1299 87.7789 97.1434 87.7265 97.1655 87.6786C97.1876 87.6306 97.2179 87.5881 97.2547 87.5536L99.9075 85.0178C99.9813 84.9624 100.07 84.9396 100.158 84.9538C100.246 84.968 100.326 85.0181 100.383 85.0947C100.44 85.1713 100.47 85.269 100.467 85.3691C100.465 85.4692 100.43 85.5647 100.369 85.6375L97.716 88.1814C97.6513 88.242 97.5693 88.2739 97.4853 88.2711Z" fill="#D1D3D4"/>
<path d="M155.005 41.9504H142.101V43.6626H155.005V41.9504Z" fill="#231F20"/>
<path d="M155.005 44.0703H142.08C141.984 44.0703 141.893 44.0273 141.825 43.9509C141.757 43.8744 141.719 43.7707 141.719 43.6626V41.9503C141.721 41.8429 141.76 41.7404 141.827 41.6644C141.894 41.5884 141.985 41.5447 142.08 41.5427H154.984C155.079 41.5427 155.171 41.5856 155.239 41.6621C155.306 41.7385 155.344 41.8422 155.344 41.9503V43.6626C155.344 43.7666 155.309 43.8668 155.246 43.9426C155.183 44.0183 155.097 44.064 155.005 44.0703ZM142.462 43.2549H154.645V42.358H142.462V43.2549Z" fill="#231F20"/>
<path d="M195.649 140.87C195.569 140.873 195.492 140.841 195.432 140.783C195.371 140.724 195.333 140.641 195.324 140.552C195.317 140.504 195.318 140.454 195.328 140.407C195.338 140.359 195.357 140.314 195.382 140.275C195.408 140.235 195.44 140.202 195.477 140.177C195.514 140.152 195.555 140.135 195.598 140.128C195.649 140.128 200.349 139.313 203.528 136.589C206.625 133.769 208.742 129.801 209.504 125.386C209.527 125.3 209.577 125.226 209.645 125.178C209.713 125.13 209.793 125.111 209.872 125.125C209.951 125.139 210.023 125.185 210.074 125.254C210.126 125.323 210.154 125.41 210.153 125.501C209.39 130.117 207.178 134.267 203.924 137.185C200.63 140.03 195.915 140.837 195.713 140.87H195.649Z" fill="#D1D3D4"/>
<path d="M101.35 140.87H101.299C101.098 140.87 96.3829 140.055 93.0885 137.185C89.8373 134.264 87.626 130.116 86.86 125.5C86.8466 125.402 86.8683 125.302 86.9204 125.221C86.9724 125.141 87.0506 125.088 87.1375 125.072C87.2245 125.057 87.3133 125.082 87.3843 125.141C87.4552 125.2 87.5026 125.288 87.516 125.386C88.2748 129.802 90.392 133.771 93.4922 136.589C96.6497 139.321 101.35 140.128 101.422 140.128C101.509 140.142 101.587 140.195 101.64 140.274C101.693 140.354 101.715 140.454 101.703 140.552C101.692 140.647 101.649 140.733 101.583 140.792C101.517 140.851 101.434 140.879 101.35 140.87Z" fill="#D1D3D4"/>
<path d="M109.02 86.2C108.929 86.2008 108.842 86.1629 108.775 86.094C108.741 86.0568 108.715 86.0124 108.696 85.9634C108.678 85.9144 108.669 85.8618 108.669 85.8087C108.669 85.7555 108.678 85.7029 108.696 85.6539C108.715 85.6049 108.741 85.5605 108.775 85.5233C109.943 84.0638 111.226 82.4086 111.348 82.1558C111.363 82.1061 111.386 82.0602 111.417 82.0209C111.447 81.9815 111.484 81.9495 111.526 81.9266C111.568 81.9038 111.613 81.8907 111.659 81.8881C111.706 81.8854 111.752 81.8933 111.795 81.9112C111.886 81.9515 111.96 82.0298 112.002 82.1299C112.043 82.23 112.05 82.3444 112.019 82.4494C111.197 83.7312 110.291 84.9413 109.308 86.0696C109.272 86.1142 109.227 86.1492 109.177 86.1717C109.127 86.1943 109.074 86.204 109.02 86.2Z" fill="#D1D3D4"/>
<path d="M196.399 88.2711C196.318 88.2729 196.24 88.2442 196.175 88.1896C196.102 88.1197 196.055 88.0207 196.045 87.9131C196.034 87.8054 196.06 87.6972 196.118 87.6107L200.248 81.7319C200.308 81.6479 200.394 81.5939 200.489 81.5817C200.583 81.5695 200.678 81.6 200.753 81.6667C200.79 81.6993 200.822 81.7402 200.845 81.7868C200.869 81.8335 200.883 81.885 200.889 81.9382C200.894 81.9915 200.89 82.0454 200.877 82.0968C200.863 82.1482 200.841 82.196 200.811 82.2374L196.68 88.1243C196.646 88.1718 196.603 88.2098 196.555 88.2353C196.506 88.2607 196.452 88.273 196.399 88.2711Z" fill="#D1D3D4"/>
<path d="M184.612 85.8739C184.531 85.8716 184.452 85.8401 184.388 85.7842C184.314 85.7169 184.266 85.6192 184.255 85.5123C184.245 85.4053 184.272 85.2979 184.331 85.2134L186.4 82.2455C186.428 82.203 186.465 82.1675 186.506 82.1411C186.547 82.1147 186.593 82.098 186.64 82.0919C186.687 82.0858 186.734 82.0905 186.78 82.1057C186.825 82.1209 186.868 82.1462 186.904 82.1803C186.978 82.2476 187.026 82.3453 187.037 82.4522C187.048 82.5592 187.021 82.6666 186.962 82.7511L184.9 85.719C184.865 85.7668 184.821 85.8054 184.771 85.8321C184.721 85.8589 184.667 85.8731 184.612 85.8739Z" fill="#D1D3D4"/>
<path d="M119.797 65.3105C119.742 65.3097 119.688 65.2955 119.638 65.2687C119.588 65.242 119.544 65.2034 119.509 65.1556C119.451 65.0701 119.425 64.962 119.437 64.855C119.449 64.7481 119.498 64.6509 119.574 64.5848L138.627 47.7721C138.664 47.7354 138.707 47.7077 138.754 47.6907C138.801 47.6736 138.85 47.6676 138.899 47.673C138.948 47.6784 138.995 47.6951 139.039 47.722C139.082 47.7489 139.119 47.7856 139.149 47.8296C139.179 47.8737 139.201 47.9242 139.213 47.9782C139.226 48.0321 139.228 48.0883 139.22 48.1432C139.212 48.1982 139.195 48.2507 139.168 48.2977C139.142 48.3446 139.107 48.385 139.066 48.4162L120.013 65.2208C119.953 65.2796 119.876 65.3115 119.797 65.3105Z" fill="#D1D3D4"/>
<path d="M168.998 63.5003C168.924 63.4995 168.853 63.4734 168.793 63.4254C168.733 63.3775 168.688 63.31 168.662 63.232C168.637 63.154 168.634 63.0692 168.653 62.9889C168.671 62.9087 168.711 62.8367 168.767 62.7828L179.083 52.9985C179.119 52.9637 179.161 52.9372 179.206 52.9207C179.251 52.9041 179.298 52.8977 179.345 52.9018C179.392 52.906 179.438 52.9206 179.481 52.9449C179.523 52.9692 179.56 53.0026 179.591 53.0433C179.622 53.084 179.645 53.1311 179.66 53.1821C179.675 53.233 179.68 53.2866 179.677 53.34C179.673 53.3934 179.66 53.4454 179.638 53.4932C179.617 53.5409 179.587 53.5833 179.551 53.6181L169.228 63.4433C169.159 63.4888 169.078 63.5088 168.998 63.5003Z" fill="#D1D3D4"/>
<path d="M148.208 65.6856H148.568C149.226 65.6856 149.856 65.9811 150.322 66.5071C150.787 67.0331 151.048 67.7466 151.048 68.4904V71.3034H145.749V68.4904C145.749 67.7508 146.008 67.041 146.468 66.5157C146.928 65.9904 147.554 65.692 148.208 65.6856Z" fill="#231F20"/>
<path d="M151.026 71.7029H145.727C145.632 71.7029 145.54 71.66 145.472 71.5835C145.405 71.5071 145.367 71.4034 145.367 71.2952V68.4904C145.376 67.6409 145.678 66.829 146.209 66.2275C146.739 65.626 147.456 65.2824 148.207 65.2697H148.567C149.326 65.2697 150.054 65.6077 150.594 66.2105C151.134 66.8134 151.442 67.6325 151.451 68.4904V71.2952C151.452 71.3556 151.441 71.4153 151.419 71.4703C151.397 71.5252 151.364 71.5739 151.324 71.6129C151.283 71.6519 151.235 71.6802 151.184 71.6958C151.132 71.7114 151.078 71.7138 151.026 71.7029ZM146.088 70.8876H150.665V68.4904C150.656 67.8488 150.424 67.237 150.019 66.7871C149.615 66.3371 149.07 66.085 148.503 66.0851H148.171C147.611 66.0977 147.077 66.3554 146.682 66.804C146.287 67.2526 146.061 67.8571 146.052 68.4904L146.088 70.8876Z" fill="#231F20"/>
<path d="M168.457 69.6156H168.407L147.847 68.2132C147.657 68.1985 147.48 68.0994 147.354 67.9374C147.228 67.7755 147.165 67.5639 147.176 67.3489C147.182 67.2418 147.206 67.1369 147.247 67.0403C147.289 66.9438 147.347 66.8574 147.418 66.7862C147.489 66.715 147.571 66.6604 147.661 66.6254C147.751 66.5904 147.846 66.5758 147.941 66.5825L168.471 67.9849C168.566 67.9881 168.659 68.0124 168.746 68.0563C168.832 68.1002 168.91 68.163 168.975 68.241C169.04 68.319 169.09 68.4107 169.124 68.5108C169.158 68.611 169.173 68.7176 169.171 68.8247C169.168 68.9318 169.146 69.0372 169.108 69.1349C169.069 69.2326 169.013 69.3206 168.944 69.3941C168.875 69.4675 168.794 69.5249 168.706 69.5629C168.617 69.6009 168.523 69.6188 168.428 69.6156H168.457Z" fill="#231F20"/>
<path d="M173.878 68.9144H173.799L167.311 68.2132C167.12 68.1926 166.945 68.0873 166.824 67.9207C166.702 67.754 166.644 67.5396 166.662 67.3245C166.68 67.1093 166.773 66.9112 166.92 66.7736C167.068 66.636 167.257 66.5702 167.448 66.5906L173.936 67.2918C174.127 67.3026 174.306 67.3989 174.435 67.5595C174.563 67.72 174.63 67.9317 174.62 68.148C174.611 68.3642 174.526 68.5673 174.384 68.7126C174.242 68.8578 174.055 68.9334 173.863 68.9226L173.878 68.9144Z" fill="#231F20"/>
<path d="M147.926 58.5919C147.869 58.5925 147.813 58.5781 147.761 58.5498C147.71 58.5215 147.665 58.4801 147.631 58.4288C147.576 58.3406 147.554 58.2318 147.568 58.1253C147.583 58.0189 147.634 57.923 147.71 57.8581C150.947 55.1674 156.216 50.6747 156.563 50.0877C156.578 50.0387 156.601 49.9939 156.632 49.9559C156.664 49.9179 156.701 49.8876 156.743 49.8669C156.785 49.8462 156.831 49.8356 156.876 49.8357C156.922 49.8358 156.968 49.8466 157.009 49.8675C157.1 49.9077 157.174 49.9864 157.214 50.0869C157.255 50.1874 157.259 50.3018 157.226 50.4057C157.038 51.0172 152.18 55.1511 148.135 58.5104C148.076 58.5638 148.002 58.5926 147.926 58.5919Z" fill="#D1D3D4"/>
<path d="M110.663 63.5004C110.607 63.5056 110.551 63.4966 110.499 63.4741C110.446 63.4515 110.399 63.4159 110.361 63.3699C110.3 63.2861 110.27 63.1787 110.278 63.0705C110.286 62.9623 110.331 62.862 110.404 62.791L117.173 56.3171C117.206 56.2791 117.245 56.2489 117.288 56.2283C117.332 56.2077 117.378 56.1971 117.425 56.1971C117.472 56.1971 117.519 56.2077 117.562 56.2283C117.605 56.2489 117.645 56.2791 117.678 56.3171C117.739 56.4008 117.768 56.5083 117.76 56.6165C117.752 56.7246 117.707 56.8249 117.634 56.896L110.872 63.4189C110.811 63.4671 110.738 63.4953 110.663 63.5004Z" fill="#D1D3D4"/>
<path d="M148.632 93.2122C147.449 93.2401 146.3 92.766 145.41 91.8832C142.836 89.3229 142.231 83.2893 142.202 83.0283C142.198 82.9766 142.204 82.9245 142.219 82.8754C142.234 82.8263 142.258 82.7812 142.289 82.743C142.317 82.7033 142.354 82.6717 142.395 82.6505C142.436 82.6292 142.481 82.6191 142.527 82.6207C142.75 82.6207 148.128 82.5228 150.701 85.0667C153.275 87.6107 151.985 91.9647 151.927 92.1441C151.896 92.2286 151.84 92.298 151.768 92.3398C150.793 92.889 149.722 93.187 148.632 93.2122ZM142.909 83.3626C143.096 84.7651 143.831 89.3229 145.85 91.3287C147.868 93.3345 150.745 92.0789 151.35 91.7609C151.545 91.0433 152.323 87.6841 150.262 85.6457C148.2 83.6073 144.163 83.3953 142.909 83.3626Z" fill="#231F20"/>
<path d="M153.131 95.3647C153.069 95.3641 153.009 95.3439 152.957 95.3064C152.904 95.2689 152.862 95.2157 152.836 95.1527C151.58 92.3216 149.869 89.7803 147.789 87.6595C146.085 86.0536 144.272 84.6006 142.368 83.3137C142.33 83.2906 142.296 83.2591 142.269 83.2211C142.241 83.183 142.221 83.1391 142.209 83.0919C142.197 83.0448 142.193 82.9954 142.198 82.9466C142.203 82.8979 142.217 82.8508 142.239 82.8081C142.281 82.7222 142.352 82.6586 142.435 82.6312C142.519 82.6037 142.609 82.6146 142.685 82.6614C144.627 83.9687 146.474 85.4492 148.207 87.0888C150.368 89.2655 152.138 91.8927 153.419 94.8266C153.457 94.9154 153.462 95.0173 153.434 95.1103C153.405 95.2033 153.346 95.2801 153.268 95.3239C153.225 95.3478 153.179 95.3617 153.131 95.3647Z" fill="#231F20"/>
<path d="M144.502 87.3408C144.414 87.3408 144.33 87.3013 144.268 87.2311C144.205 87.1608 144.17 87.0655 144.17 86.9661C144.17 86.8667 144.205 86.7714 144.268 86.7012C144.33 86.6309 144.414 86.5914 144.502 86.5914H147.515C147.602 86.5914 147.685 86.6297 147.747 86.6983C147.809 86.7668 147.845 86.86 147.847 86.958C147.848 87.0075 147.84 87.0567 147.824 87.1027C147.807 87.1486 147.783 87.1904 147.752 87.2254C147.721 87.2604 147.684 87.288 147.643 87.3064C147.603 87.3249 147.559 87.3338 147.515 87.3327L144.502 87.3734V87.3408Z" fill="#231F20"/>
<path d="M149.288 88.9967H149.209C149.124 88.9718 149.051 88.9097 149.007 88.8241C148.962 88.7385 148.949 88.6363 148.971 88.5401L149.613 85.6945C149.619 85.6436 149.634 85.5945 149.658 85.5507C149.681 85.5068 149.713 85.469 149.75 85.4398C149.787 85.4106 149.83 85.3906 149.874 85.3811C149.919 85.3716 149.965 85.3728 150.009 85.3847C150.093 85.4097 150.164 85.4705 150.209 85.5543C150.253 85.638 150.267 85.7381 150.247 85.8331L149.606 88.6869C149.595 88.7733 149.557 88.8525 149.499 88.9095C149.44 88.9665 149.366 88.9975 149.288 88.9967Z" fill="#231F20"/>
<path d="M147.205 90.6438C147.123 90.6421 147.045 90.6062 146.985 90.543C146.925 90.4797 146.888 90.3937 146.881 90.3013C146.877 90.2531 146.882 90.2045 146.894 90.1582C146.907 90.112 146.928 90.0691 146.955 90.0319C146.983 89.9948 147.016 89.9642 147.054 89.9418C147.092 89.9195 147.134 89.9059 147.177 89.9018L150.226 89.592C150.307 89.5948 150.384 89.6312 150.443 89.6942C150.502 89.7573 150.539 89.8426 150.546 89.934C150.553 90.0254 150.53 90.1166 150.482 90.1903C150.434 90.264 150.363 90.3151 150.284 90.3339L147.241 90.6438H147.205Z" fill="#231F20"/>
<path d="M32.3464 0C39.7914 0 46.9315 3.3451 52.1959 9.29942C57.4603 15.2537 60.4178 23.3295 60.4178 31.7502V144.311H4.28228V31.742C4.28419 23.3242 7.24156 15.2517 12.5042 9.29941C17.7668 3.34709 24.9039 0.00216147 32.3464 0Z" fill="white"/>
<path d="M60.4173 144.686H4.28181C4.23799 144.687 4.19443 144.678 4.15376 144.66C4.11308 144.641 4.07613 144.613 4.04514 144.578C4.01414 144.543 3.98975 144.502 3.97344 144.456C3.95712 144.41 3.94922 144.36 3.9502 144.311V31.7419C4.06896 23.3114 7.11326 15.2718 12.4263 9.35746C17.7392 3.44316 24.895 0.128417 32.3496 0.128417C39.8041 0.128417 46.9599 3.44316 52.2729 9.35746C57.5859 15.2718 60.6302 23.3114 60.7489 31.7419V144.311C60.7489 144.41 60.714 144.506 60.6518 144.576C60.5896 144.646 60.5053 144.686 60.4173 144.686ZM4.60621 143.944H60.1145V31.7419C60.1145 23.4164 57.1904 15.4318 51.9855 9.5448C46.7806 3.65776 39.7212 0.350459 32.3604 0.350459C24.9995 0.350459 17.9401 3.65776 12.7352 9.5448C7.5303 15.4318 4.60621 23.4164 4.60621 31.7419V143.944Z" fill="#231F20"/>
<path d="M53.7347 144.719H10.9645C10.8689 144.719 10.7772 144.676 10.7096 144.599C10.642 144.523 10.604 144.419 10.604 144.311V27.8773C10.604 27.7691 10.642 27.6654 10.7096 27.589C10.7772 27.5125 10.8689 27.4696 10.9645 27.4696H53.7347C53.8297 27.4717 53.9204 27.5153 53.9876 27.5913C54.0548 27.6673 54.0933 27.7698 54.0952 27.8773V144.311C54.0952 144.419 54.0572 144.523 53.9896 144.599C53.922 144.676 53.8303 144.719 53.7347 144.719ZM11.3249 143.903H53.4103V28.3094H11.3249V143.903Z" fill="#D1D3D4"/>
<path d="M63.6474 64.2668H60.4178V92.9512H63.6474V64.2668Z" fill="#231F20"/>
<path d="M63.6473 93.3589H60.4177C60.3221 93.3589 60.2304 93.316 60.1628 93.2395C60.0952 93.1631 60.0572 93.0594 60.0572 92.9513V64.2668C60.0591 64.1594 60.0976 64.0569 60.1648 63.9809C60.232 63.9049 60.3227 63.8612 60.4177 63.8592H63.6473C63.7423 63.8612 63.8329 63.9049 63.9001 63.9809C63.9673 64.0569 64.0059 64.1594 64.0077 64.2668V92.9513C64.0077 93.0594 63.9697 93.1631 63.9021 93.2395C63.8345 93.316 63.7428 93.3589 63.6473 93.3589ZM60.7637 92.5436H63.2724V64.6745H60.7637V92.5436Z" fill="#231F20"/>
<path d="M21.8933 81.5688H18.9016V89.9915H21.8933V81.5688Z" fill="#FFBA7C"/>
<path d="M21.886 90.3666H18.9015C18.8142 90.3645 18.7309 90.3243 18.6691 90.2544C18.6073 90.1845 18.5718 90.0903 18.5699 89.9915V81.5688C18.5718 81.4708 18.6076 81.3774 18.6696 81.3089C18.7316 81.2403 18.8148 81.2019 18.9015 81.2019H21.886C21.9292 81.2008 21.9722 81.2095 22.0124 81.2275C22.0526 81.2454 22.0892 81.2723 22.1201 81.3065C22.151 81.3406 22.1755 81.3814 22.1923 81.4265C22.209 81.4716 22.2176 81.52 22.2176 81.5688V89.9915C22.2176 90.091 22.1827 90.1864 22.1205 90.2567C22.0583 90.3271 21.974 90.3666 21.886 90.3666ZM19.2331 89.6246H21.5616V81.9439H19.2331V89.6246Z" fill="#231F20"/>
<path d="M24.8778 81.5688H21.8861V89.9915H24.8778V81.5688Z" fill="#FFBA7C"/>
<path d="M24.8779 90.3665H21.8862C21.7995 90.3644 21.717 90.324 21.6564 90.2539C21.5957 90.1837 21.5618 90.0896 21.5618 89.9915V81.5688C21.5618 81.4715 21.596 81.3782 21.6568 81.3093C21.7177 81.2405 21.8002 81.2019 21.8862 81.2019H24.8779C24.9646 81.2019 25.0479 81.2403 25.1098 81.3088C25.1718 81.3774 25.2076 81.4707 25.2095 81.5688V89.9915C25.2076 90.0903 25.1721 90.1845 25.1103 90.2544C25.0485 90.3243 24.9652 90.3645 24.8779 90.3665ZM22.2178 89.6246H24.5751V81.9439H22.2178V89.6246Z" fill="#231F20"/>
<path d="M27.8697 81.5688H24.878V89.9915H27.8697V81.5688Z" fill="#FFBA7C"/>
<path d="M27.8696 90.3665H24.8779C24.7905 90.3645 24.7073 90.3243 24.6455 90.2544C24.5837 90.1845 24.5482 90.0903 24.5463 89.9915V81.5688C24.5482 81.4707 24.584 81.3774 24.6459 81.3088C24.7079 81.2403 24.7912 81.2019 24.8779 81.2019H27.8696C27.9556 81.2019 28.0382 81.2405 28.099 81.3093C28.1598 81.3782 28.194 81.4715 28.194 81.5688V89.9915C28.194 90.0896 28.1601 90.1837 28.0994 90.2539C28.0388 90.324 27.9563 90.3644 27.8696 90.3665ZM25.2095 89.6246H27.538V81.9439H25.2095V89.6246Z" fill="#231F20"/>
<path d="M30.861 81.5688H27.8694V89.9915H30.861V81.5688Z" fill="#FFBA7C"/>
<path d="M30.8538 90.3666H27.8693C27.7813 90.3666 27.697 90.3271 27.6348 90.2567C27.5726 90.1864 27.5377 90.091 27.5377 89.9915V81.5688C27.5377 81.52 27.5463 81.4716 27.5631 81.4265C27.5798 81.3814 27.6043 81.3406 27.6352 81.3065C27.6661 81.2723 27.7027 81.2454 27.7429 81.2275C27.7831 81.2095 27.8261 81.2008 27.8693 81.2019H30.8538C30.9405 81.2019 31.0238 81.2403 31.0857 81.3089C31.1477 81.3774 31.1835 81.4708 31.1854 81.5688V89.9915C31.1835 90.0903 31.148 90.1845 31.0862 90.2544C31.0244 90.3243 30.9411 90.3645 30.8538 90.3666ZM28.1793 89.6246H30.5077V81.9439H28.1793V89.6246Z" fill="#231F20"/>
<path d="M33.8456 81.5688H30.8539V89.9915H33.8456V81.5688Z" fill="#FFBA7C"/>
<path d="M33.8455 90.3665H30.8538C30.7664 90.3645 30.6832 90.3243 30.6214 90.2544C30.5596 90.1845 30.524 90.0903 30.5222 89.9915V81.5688C30.5241 81.4707 30.5599 81.3774 30.6218 81.3088C30.6838 81.2403 30.7671 81.2019 30.8538 81.2019H33.8455C33.9315 81.2019 34.014 81.2405 34.0749 81.3093C34.1357 81.3782 34.1699 81.4715 34.1699 81.5688V89.9915C34.1699 90.0896 34.136 90.1837 34.0753 90.2539C34.0147 90.324 33.9322 90.3644 33.8455 90.3665ZM31.1854 89.6246H33.5139V81.9439H31.1854V89.6246Z" fill="#231F20"/>
<path d="M36.8374 81.5688H33.8457V89.9915H36.8374V81.5688Z" fill="#FFBA7C"/>
<path d="M36.8301 90.3665H33.8457C33.7583 90.3645 33.675 90.3243 33.6132 90.2544C33.5514 90.1845 33.5159 90.0903 33.5141 89.9915V81.5688C33.5159 81.4707 33.5517 81.3774 33.6137 81.3088C33.6757 81.2403 33.759 81.2019 33.8457 81.2019H36.8301C36.9169 81.2019 37.0001 81.2403 37.0621 81.3088C37.1241 81.3774 37.1599 81.4707 37.1618 81.5688V89.9915C37.1599 90.0903 37.1244 90.1845 37.0626 90.2544C37.0008 90.3243 36.9175 90.3645 36.8301 90.3665ZM34.1701 89.6246H36.5057V81.9439H34.1701V89.6246Z" fill="#231F20"/>
<path d="M39.8219 81.5688H36.8302V89.9915H39.8219V81.5688Z" fill="white"/>
<path d="M39.8215 90.3665H36.8298C36.7431 90.3644 36.6606 90.324 36.6 90.2539C36.5394 90.1837 36.5054 90.0896 36.5054 89.9915V81.5688C36.5054 81.4715 36.5396 81.3782 36.6004 81.3093C36.6613 81.2405 36.7438 81.2019 36.8298 81.2019H39.8215C39.9082 81.2019 39.9915 81.2403 40.0535 81.3088C40.1155 81.3774 40.1512 81.4707 40.1531 81.5688V89.9915C40.1513 90.0903 40.1158 90.1845 40.054 90.2544C39.9922 90.3243 39.9089 90.3645 39.8215 90.3665ZM37.1614 89.6246H39.4899V81.9439H37.1614V89.6246Z" fill="#231F20"/>
<path d="M42.8138 81.5688H39.8221V89.9915H42.8138V81.5688Z" fill="white"/>
<path d="M42.806 90.3666H39.8216C39.7342 90.3645 39.6509 90.3243 39.5891 90.2544C39.5273 90.1845 39.4918 90.0903 39.49 89.9915V81.5688C39.4918 81.4708 39.5276 81.3774 39.5896 81.3089C39.6516 81.2403 39.7348 81.2019 39.8216 81.2019H42.806C42.8492 81.2008 42.8922 81.2095 42.9324 81.2275C42.9726 81.2454 43.0092 81.2723 43.0401 81.3065C43.071 81.3406 43.0955 81.3814 43.1123 81.4265C43.129 81.4716 43.1377 81.52 43.1376 81.5688V89.9915C43.1376 90.091 43.1027 90.1864 43.0405 90.2567C42.9783 90.3271 42.894 90.3666 42.806 90.3666ZM40.1532 89.6246H42.4816V81.9439H40.1532V89.6246Z" fill="#231F20"/>
<path d="M45.7978 81.5688H42.8061V89.9915H45.7978V81.5688Z" fill="white"/>
<path d="M45.7979 90.3665H42.8062C42.7195 90.3644 42.637 90.324 42.5764 90.2539C42.5157 90.1837 42.4818 90.0896 42.4818 89.9915V81.5688C42.4818 81.4715 42.516 81.3782 42.5768 81.3093C42.6377 81.2405 42.7202 81.2019 42.8062 81.2019H45.7979C45.8846 81.2019 45.9679 81.2403 46.0299 81.3088C46.0919 81.3774 46.1276 81.4707 46.1295 81.5688V89.9915C46.1277 90.0903 46.0921 90.1845 46.0303 90.2544C45.9685 90.3243 45.8853 90.3645 45.7979 90.3665ZM43.1378 89.6246H45.4807V81.9439H43.1522L43.1378 89.6246Z" fill="#231F20"/>
<path d="M50.0152 98.3163H14.6917C14.5961 98.3163 14.5044 98.2734 14.4368 98.1969C14.3692 98.1205 14.3313 98.0168 14.3313 97.9086V34.0821C14.3313 33.974 14.3692 33.8703 14.4368 33.7939C14.5044 33.7174 14.5961 33.6744 14.6917 33.6744H50.0152C50.1108 33.6744 50.2025 33.7174 50.27 33.7939C50.3376 33.8703 50.3756 33.974 50.3756 34.0821V97.9086C50.3756 98.0168 50.3376 98.1205 50.27 98.1969C50.2025 98.2734 50.1108 98.3163 50.0152 98.3163ZM15.0449 97.501H49.6475V34.4898H15.0449V97.501Z" fill="#D1D3D4"/>
<path d="M25.2817 107.832C26.2572 107.832 27.0479 106.937 27.0479 105.834C27.0479 104.731 26.2572 103.836 25.2817 103.836C24.3063 103.836 23.5155 104.731 23.5155 105.834C23.5155 106.937 24.3063 107.832 25.2817 107.832Z" fill="#D1D3D4"/>
<path d="M32.3462 107.832C33.3216 107.832 34.1124 106.937 34.1124 105.834C34.1124 104.731 33.3216 103.836 32.3462 103.836C31.3707 103.836 30.58 104.731 30.58 105.834C30.58 106.937 31.3707 107.832 32.3462 107.832Z" fill="#D1D3D4"/>
<path d="M39.4185 107.832C40.3939 107.832 41.1847 106.937 41.1847 105.834C41.1847 104.731 40.3939 103.836 39.4185 103.836C38.443 103.836 37.6523 104.731 37.6523 105.834C37.6523 106.937 38.443 107.832 39.4185 107.832Z" fill="#D1D3D4"/>
<path d="M39.368 121.97H25.3323C24.5002 121.97 23.8257 122.733 23.8257 123.674V124.131C23.8257 125.072 24.5002 125.835 25.3323 125.835H39.368C40.2001 125.835 40.8746 125.072 40.8746 124.131V123.674C40.8746 122.733 40.2001 121.97 39.368 121.97Z" fill="white"/>
<path d="M39.3674 126.251H25.3317C24.8365 126.251 24.3616 126.028 24.0115 125.632C23.6613 125.236 23.4646 124.699 23.4646 124.139V123.707C23.4665 123.147 23.6638 122.611 24.0136 122.216C24.3633 121.82 24.8371 121.597 25.3317 121.595H39.3674C39.862 121.597 40.3358 121.82 40.6855 122.216C41.0352 122.611 41.2326 123.147 41.2345 123.707V124.171C41.2269 124.726 41.0268 125.255 40.6775 125.644C40.3282 126.033 39.8576 126.251 39.3674 126.251ZM25.3317 122.378C25.1787 122.378 25.0273 122.412 24.8863 122.479C24.7453 122.547 24.6177 122.645 24.5108 122.769C24.404 122.893 24.3202 123.039 24.2643 123.201C24.2084 123.362 24.1816 123.534 24.1855 123.707V124.171C24.1855 124.515 24.3062 124.845 24.5212 125.088C24.7362 125.331 25.0277 125.468 25.3317 125.468H39.3674C39.6714 125.468 39.9629 125.331 40.1779 125.088C40.3928 124.845 40.5136 124.515 40.5136 124.171V123.707C40.5136 123.363 40.3928 123.033 40.1779 122.79C39.9629 122.547 39.6714 122.41 39.3674 122.41L25.3317 122.378Z" fill="#D1D3D4"/>
<path d="M25.3968 125.843H39.3099V128.338C39.3099 130.198 38.6567 131.981 37.4941 133.296C36.3314 134.611 34.7545 135.35 33.1103 135.35H31.5964C29.9522 135.35 28.3753 134.611 27.2126 133.296C26.05 131.981 25.3968 130.198 25.3968 128.338V125.843Z" fill="white"/>
<path d="M33.1029 135.758H31.5963C29.857 135.756 28.1896 134.973 26.9597 133.582C25.7299 132.191 25.0381 130.305 25.0362 128.338V125.843C25.0362 125.735 25.0742 125.631 25.1418 125.555C25.2094 125.478 25.3011 125.435 25.3967 125.435H39.3026C39.3982 125.435 39.4899 125.478 39.5575 125.555C39.625 125.631 39.663 125.735 39.663 125.843V128.338C39.6611 130.305 38.9694 132.191 37.7395 133.582C36.5097 134.973 34.8422 135.756 33.1029 135.758ZM25.7571 126.251V128.338C25.7571 130.09 26.3723 131.769 27.4674 133.008C28.5624 134.247 30.0476 134.942 31.5963 134.942H33.1029C34.6516 134.942 36.1368 134.247 37.2319 133.008C38.3269 131.769 38.9421 130.09 38.9421 128.338V126.251H25.7571Z" fill="#D1D3D4"/>
<path d="M28.8281 115.928C28.9319 115.927 29.0348 115.949 29.131 115.993C29.2271 116.038 29.3146 116.103 29.3883 116.186C29.4621 116.268 29.5206 116.367 29.5605 116.475C29.6005 116.583 29.621 116.7 29.621 116.817V121.97H28.0423V116.817C28.0423 116.581 28.1251 116.355 28.2724 116.188C28.4198 116.022 28.6197 115.928 28.8281 115.928Z" fill="white"/>
<path d="M29.6214 122.378H28.0427C27.9471 122.378 27.8554 122.335 27.7878 122.258C27.7202 122.182 27.6822 122.078 27.6822 121.97V116.817C27.6822 116.473 27.803 116.143 28.0179 115.9C28.2329 115.657 28.5244 115.52 28.8284 115.52C29.1324 115.52 29.424 115.657 29.6389 115.9C29.8539 116.143 29.9746 116.473 29.9746 116.817V121.97C29.9746 122.077 29.9377 122.179 29.8716 122.255C29.8056 122.332 29.7157 122.375 29.6214 122.378ZM28.4103 121.562H29.261V116.817C29.2591 116.69 29.2137 116.569 29.1343 116.479C29.055 116.389 28.9479 116.338 28.8356 116.336C28.7228 116.336 28.6146 116.386 28.5349 116.477C28.4551 116.567 28.4103 116.689 28.4103 116.817V121.562Z" fill="#D1D3D4"/>
<path d="M35.8714 115.928C36.0798 115.928 36.2797 116.022 36.4271 116.188C36.5744 116.355 36.6572 116.581 36.6572 116.817V121.97H35.0857V116.817C35.0857 116.581 35.1685 116.355 35.3158 116.188C35.4632 116.022 35.6631 115.928 35.8714 115.928Z" fill="white"/>
<path d="M36.6571 122.378H35.0856C34.99 122.378 34.8983 122.335 34.8307 122.258C34.7631 122.182 34.7251 122.078 34.7251 121.97V116.817C34.7251 116.473 34.8459 116.143 35.0608 115.9C35.2758 115.657 35.5673 115.52 35.8713 115.52C36.1753 115.52 36.4669 115.657 36.6818 115.9C36.8968 116.143 37.0175 116.473 37.0175 116.817V121.97C37.0175 122.078 36.9796 122.182 36.912 122.258C36.8444 122.335 36.7527 122.378 36.6571 122.378ZM35.446 121.562H36.2966V116.817C36.2966 116.689 36.2518 116.567 36.1721 116.477C36.0923 116.386 35.9841 116.336 35.8713 116.336C35.7591 116.338 35.652 116.389 35.5726 116.479C35.4933 116.569 35.4479 116.69 35.446 116.817V121.562Z" fill="#D1D3D4"/>
<path d="M34.1704 135.114H30.5227C30.3276 135.114 30.1695 135.293 30.1695 135.513V136.761C30.1695 136.981 30.3276 137.16 30.5227 137.16H34.1704C34.3655 137.16 34.5236 136.981 34.5236 136.761V135.513C34.5236 135.293 34.3655 135.114 34.1704 135.114Z" fill="white"/>
<path d="M34.17 137.568H30.5655C30.3744 137.568 30.191 137.482 30.0558 137.329C29.9206 137.176 29.8447 136.969 29.8447 136.752V135.513C29.8447 135.297 29.9206 135.089 30.0558 134.937C30.191 134.784 30.3744 134.698 30.5655 134.698H34.17C34.3612 134.698 34.5445 134.784 34.6797 134.937C34.8149 135.089 34.8909 135.297 34.8909 135.513V136.752C34.8909 136.969 34.8149 137.176 34.6797 137.329C34.5445 137.482 34.3612 137.568 34.17 137.568ZM34.17 135.521H30.5655V136.752H34.17V135.521Z" fill="#D1D3D4"/>
<path d="M31.4452 144.401V137.152H33.2546V144.401" fill="white"/>
<path d="M33.2257 144.808C33.1301 144.808 33.0384 144.765 32.9708 144.689C32.9033 144.612 32.8653 144.509 32.8653 144.401V137.568H31.7839V144.409C31.7839 144.517 31.746 144.621 31.6784 144.697C31.6108 144.773 31.5191 144.816 31.4235 144.816C31.3279 144.816 31.2362 144.773 31.1686 144.697C31.101 144.621 31.0631 144.517 31.0631 144.409V137.16C31.0631 137.052 31.101 136.948 31.1686 136.872C31.2362 136.795 31.3279 136.753 31.4235 136.753H33.2257C33.3207 136.755 33.4114 136.798 33.4786 136.874C33.5458 136.95 33.5843 137.053 33.5862 137.16V144.409C33.5843 144.515 33.5455 144.617 33.4781 144.692C33.4107 144.766 33.3201 144.808 33.2257 144.808Z" fill="#D1D3D4"/>
<path d="M31.5894 42.3499L24.878 55.9012H34.127L27.5885 70.643L42.8064 50.6992L35.4246 51.3841L41.754 42.3499H31.5894Z" fill="#FFBA7C"/>
<path d="M27.5882 71.018C27.5238 71.0165 27.4612 70.9938 27.408 70.9528C27.3412 70.9013 27.2929 70.8245 27.2717 70.7363C27.2506 70.6481 27.258 70.5543 27.2927 70.4717L33.6004 56.2763H24.8777C24.8204 56.2759 24.7641 56.2583 24.7147 56.2254C24.6654 56.1924 24.6246 56.1453 24.5965 56.0887C24.5666 56.0335 24.5507 55.97 24.5507 55.9053C24.5507 55.8405 24.5666 55.777 24.5965 55.7218L31.3008 42.1705C31.3294 42.1127 31.3713 42.0648 31.4221 42.0317C31.4729 41.9987 31.5306 41.9819 31.5891 41.983H41.7537C41.8146 41.9837 41.8742 42.0031 41.9262 42.039C41.9782 42.0748 42.0207 42.1259 42.0492 42.1868C42.0795 42.2478 42.0955 42.3166 42.0955 42.3866C42.0955 42.4565 42.0795 42.5253 42.0492 42.5863L36.1884 50.9438L42.8206 50.3323C42.8846 50.3286 42.9483 50.346 43.0038 50.3824C43.0593 50.4188 43.1043 50.4726 43.1333 50.5373C43.1623 50.6021 43.174 50.6749 43.1671 50.747C43.1603 50.8192 43.135 50.8875 43.0945 50.9438L27.8405 70.8875C27.8087 70.9278 27.7699 70.9602 27.7264 70.9826C27.683 71.0051 27.636 71.0171 27.5882 71.018ZM25.4256 55.5261H34.1195C34.1747 55.5278 34.2287 55.5451 34.2766 55.5765C34.3244 55.6078 34.3646 55.6521 34.3934 55.7055C34.4235 55.7591 34.4396 55.8213 34.4396 55.8849C34.4396 55.9484 34.4235 56.0106 34.3934 56.0643L29.0444 68.1316L42.0204 51.1476L35.4387 51.7591C35.3746 51.7658 35.3103 51.7507 35.2538 51.7159C35.1973 51.681 35.1512 51.628 35.1215 51.5635C35.0867 51.5027 35.0682 51.4319 35.0682 51.3596C35.0682 51.2873 35.0867 51.2165 35.1215 51.1558L41.0256 42.7249H31.7838L25.4256 55.5261Z" fill="#231F20"/>
<path d="M61.3544 144.311H3.34455C1.69628 144.311 0.360082 145.822 0.360082 147.686V151.445C0.360082 153.31 1.69628 154.821 3.34455 154.821H61.3544C63.0026 154.821 64.3388 153.31 64.3388 151.445V147.686C64.3388 145.822 63.0026 144.311 61.3544 144.311Z" fill="#231F20"/>
<path d="M61.3403 155.229H3.34495C2.90447 155.229 2.46833 155.13 2.06157 154.939C1.6548 154.748 1.28542 154.468 0.974622 154.115C0.663829 153.762 0.417746 153.343 0.250498 152.882C0.0832505 152.421 -0.00186753 151.927 3.10754e-05 151.429V147.67C3.10754e-05 147.173 0.0865499 146.681 0.254648 146.222C0.422746 145.763 0.66913 145.346 0.979734 144.995C1.29034 144.644 1.65908 144.365 2.0649 144.175C2.47073 143.985 2.90569 143.887 3.34495 143.887H61.3403C62.2275 143.887 63.0782 144.286 63.7055 144.995C64.3328 145.705 64.6852 146.667 64.6852 147.67V151.429C64.6871 151.927 64.602 152.421 64.4348 152.882C64.2675 153.343 64.0214 153.762 63.7107 154.115C63.3999 154.468 63.0305 154.748 62.6237 154.939C62.2169 155.13 61.7808 155.229 61.3403 155.229ZM3.34495 144.719C2.64901 144.719 1.98158 145.031 1.48948 145.588C0.997378 146.144 0.720918 146.899 0.720918 147.687V151.429C0.720918 152.216 0.997378 152.971 1.48948 153.528C1.98158 154.084 2.64901 154.397 3.34495 154.397H61.3403C62.0363 154.397 62.7037 154.084 63.1958 153.528C63.6879 152.971 63.9644 152.216 63.9644 151.429V147.67C63.9644 146.883 63.6879 146.128 63.1958 145.572C62.7037 145.015 62.0363 144.702 61.3403 144.702L3.34495 144.719Z" fill="#231F20"/>
</svg>
