<svg width="20" height="26" viewBox="0 0 20 26" fill="none" xmlns="http://www.w3.org/2000/svg">
<path d="M0.520572 13.4423C-1.55514 14.4461 3.20721 18.9451 3.79655 19.6794C5.03611 21.2222 6.27512 22.7645 7.51468 24.3067C7.98007 24.8861 8.62253 26.0642 9.53394 25.9973C10.426 25.9314 10.893 25.1185 11.3844 24.5059C12.6976 22.8718 14.0107 21.2371 15.3245 19.6036C16.2226 18.4858 17.1207 17.3685 18.0188 16.2501C18.2917 15.9104 19.0703 15.2651 19.125 14.7892C19.3851 12.5398 16.3548 13.1889 14.7246 13.2486C13.9537 12.5508 15.7865 4.10687 15.9437 2.98739C16.0189 2.45062 16.517 0.829784 15.8878 0.392618C15.0229 -0.208347 13.6383 0.059486 12.6655 0.059486C10.6396 0.059486 8.61313 0.059486 6.58722 0.059486C5.57842 0.059486 4.20771 -0.208901 3.3284 0.455702C2.69478 0.934925 3.08436 2.18334 3.17013 2.79371C3.46895 4.92531 3.76888 7.0558 4.06771 9.1874C4.25585 10.5299 4.44455 11.8718 4.6327 13.2138C4.62993 13.1894 1.09498 13.1645 0.520572 13.4423ZM2.0822 15.8561C2.00749 15.7637 1.93279 15.6707 1.85863 15.5778C0.434799 13.8059 1.72582 13.9354 3.18673 14.0411C3.16404 14.0687 3.13582 14.0936 3.11811 14.1218C2.78 14.6719 2.4441 15.2225 2.11263 15.7764C2.0988 15.8002 2.09326 15.8296 2.0822 15.8561ZM6.73885 21.5205C6.72059 21.5448 6.71228 21.5741 6.6979 21.6007C6.61489 21.4978 6.53188 21.3949 6.44943 21.2914C6.46271 21.2726 6.48042 21.262 6.49204 21.2399C6.79031 20.6871 7.0919 20.1354 7.39902 19.587C9.57821 16.2916 11.7463 12.9891 13.9305 9.6954C13.9073 9.86308 13.8829 10.0296 13.8597 10.1984C13.713 10.5072 13.573 10.8193 13.4197 11.1242C11.4154 14.517 9.34469 17.8688 7.06312 21.0839C6.95577 21.2294 6.84731 21.3744 6.73885 21.5205ZM16.1888 15.4201C15.9885 15.9911 15.7854 16.5611 15.5823 17.1305C15.48 17.4189 15.2658 17.8627 15.102 18.1205C14.7252 18.7132 14.3334 19.307 13.9344 19.8974C13.6721 20.2234 13.4103 20.5499 13.1486 20.8758C13.8824 19.4675 14.625 18.063 15.392 16.6679C15.6283 16.2396 15.8657 15.8096 16.1031 15.3808C16.2497 15.1141 16.289 15.1318 16.1888 15.4201ZM15.563 14.0123C15.5287 14.0505 15.491 14.0875 15.4672 14.129C13.3993 17.6756 11.3778 21.2499 9.39339 24.8463C9.39007 24.8523 9.38896 24.859 9.38564 24.8651C9.29212 24.7998 9.19251 24.7046 9.0846 24.5707C8.48696 23.8269 7.88931 23.0832 7.29222 22.3395C7.31436 22.3179 7.33926 22.3041 7.35918 22.2769C7.64804 21.8829 7.93414 21.4878 8.21691 21.0899C10.0995 18.5317 11.914 15.9203 13.4801 13.1811C13.5232 13.5237 13.6981 13.8131 14.1585 14.0134C14.2371 14.0477 14.3251 14.0549 14.4147 14.0455C14.4169 14.0455 14.418 14.046 14.4202 14.046C14.5802 14.046 15.0317 14.02 15.563 14.0123ZM14.7218 4.0543C13.1043 7.21407 11.4625 10.3606 9.74423 13.4622C9.17702 14.4755 8.61036 15.4832 8.02544 16.4648C7.51634 17.3226 7.01719 18.1853 6.52414 19.0524C6.30168 19.4243 6.07867 19.7967 5.85289 20.1669C5.80696 20.2366 5.75993 20.3064 5.71344 20.3761C5.43731 20.0324 5.16117 19.6888 4.88504 19.3452C4.90219 19.3247 4.92322 19.3131 4.93872 19.2882C8.26063 13.9121 11.5383 8.50731 14.8513 3.12518C14.8087 3.43507 14.765 3.74496 14.7218 4.0543ZM5.09864 17.1117C6.25243 15.1069 7.42226 13.113 8.62973 11.1469C9.99988 8.91459 11.4475 6.72876 12.8337 4.50973C12.9959 4.25075 12.997 4.25019 12.837 4.51083C10.2578 8.71095 7.69508 12.921 5.11303 17.1206C4.952 17.3807 4.94591 17.3768 5.09864 17.1117ZM14.9133 1.02568C14.9321 1.0373 14.9543 1.04781 14.9709 1.05999C14.6184 1.62664 14.2653 2.19275 13.9139 2.75996C13.7529 3.02004 13.7518 3.01949 13.9089 2.75719C14.252 2.18445 14.5868 1.60728 14.9133 1.02568ZM10.5167 2.92818C10.851 2.27243 11.1791 1.61392 11.5017 0.953187C11.5233 0.908917 11.5272 0.869627 11.5349 0.828124C11.7353 0.81595 11.9826 0.799348 12.2593 0.785514C12.2206 0.821483 12.1785 0.856899 12.1481 0.895636C11.6263 1.58569 11.1039 2.27686 10.592 2.97411C10.4094 3.21981 10.3778 3.20044 10.5167 2.92818ZM7.90979 0.919984C7.92584 0.895082 7.92694 0.8735 7.93801 0.849705C8.75756 0.849705 9.57711 0.849705 10.3978 0.849705C10.3723 0.884015 10.3419 0.91611 10.3242 0.953187C8.78025 4.13731 7.08526 7.24949 5.33936 10.3373C5.14457 8.95277 4.95034 7.56878 4.7561 6.18479C5.77597 4.40625 6.81521 2.64375 7.90979 0.919984ZM4.34107 3.22811C4.32502 3.11301 4.30898 2.99846 4.29293 2.88391C4.25309 2.60114 4.19 2.32722 4.14241 2.07598C4.38534 1.69028 4.62883 1.30403 4.87453 0.920537C4.88947 0.896742 4.89389 0.876267 4.90552 0.853579C4.93042 0.853026 4.95145 0.850259 4.9769 0.850259C5.21596 0.850259 5.45557 0.850259 5.69463 0.850259C5.67139 0.880141 5.64261 0.90781 5.62546 0.938245C5.19936 1.7019 4.77105 2.46556 4.34107 3.22811ZM4.34827 14.082C5.18276 14.0538 5.82854 13.8258 5.7068 12.9592C5.66364 12.6504 5.61992 12.3422 5.57676 12.0329C7.99611 8.21679 10.5782 4.50309 13.2974 0.896189C13.3334 0.848599 13.35 0.805435 13.365 0.762272C13.5575 0.765592 13.744 0.773893 13.9217 0.788834C13.879 0.836978 13.8375 0.886782 13.8071 0.939905C11.5117 5.09464 8.73542 8.99649 6.305 13.0699C5.39747 14.5906 4.50653 16.124 3.62556 17.6629C3.61228 17.6867 3.60785 17.716 3.59734 17.7415C3.33338 17.4128 3.06886 17.0841 2.8049 16.7554C2.81985 16.736 2.83866 16.7249 2.85194 16.7017C3.345 15.8445 3.8375 14.9862 4.33111 14.1296C4.34163 14.1124 4.34107 14.0986 4.34827 14.082Z" fill="#573353"/>
</svg>
