<svg width="15" height="19" viewBox="0 0 15 19" fill="none" xmlns="http://www.w3.org/2000/svg">
<path d="M14.9999 11.3571C14.9999 13.3462 14.2097 15.2538 12.8032 16.6603C11.3967 18.0668 9.48907 18.857 7.49997 18.857C5.51086 18.857 3.60322 18.0668 2.19671 16.6603C0.790194 15.2538 2.34134e-05 13.3462 2.34134e-05 11.3571C-0.00408946 9.72015 0.533765 8.12792 1.52966 6.8288C1.94541 6.24396 2.45017 5.72783 3.02561 5.29916C3.13907 5.21942 3.27438 5.17663 3.41307 5.17663C3.55176 5.17663 3.68707 5.21942 3.80053 5.29916C3.91554 5.38318 4.00097 5.50148 4.04455 5.63707C4.08813 5.77267 4.08763 5.91858 4.04312 6.05387C3.8131 6.93762 3.8131 7.86553 4.04312 8.74927C4.15019 9.09723 4.36972 9.39982 4.66728 9.60957C4.96484 9.81933 5.32361 9.92439 5.68731 9.90829C5.83888 9.91052 5.98912 9.87973 6.12759 9.81805C6.26607 9.75638 6.38946 9.66531 6.48919 9.55115C6.58156 9.35157 6.6294 9.13428 6.6294 8.91436C6.6294 8.69445 6.58156 8.47716 6.48919 8.27758C4.46764 1.35715 6.9811 0.191386 7.2776 0.0431395C7.38298 0.00350199 7.49661 -0.00909831 7.60812 0.00648948C7.71962 0.0220773 7.82545 0.0653563 7.91592 0.132373C8.00639 0.19939 8.07863 0.288008 8.12604 0.390132C8.17344 0.492255 8.1945 0.60463 8.18729 0.716989C8.07948 1.88275 7.99188 2.80592 9.97299 4.03907L10.0875 4.09971C14.1509 6.24929 14.9999 9.23444 14.9999 11.3571Z" fill="#FDA758"/>
</svg>
