<svg width="18" height="18" viewBox="0 0 18 18" fill="none" xmlns="http://www.w3.org/2000/svg">
<g clip-path="url(#clip0_0_6)">
<path d="M9 0C4.03745 0 0 4.03745 0 9C0 13.9625 4.03745 18 9 18C13.9625 18 18 13.9625 18 9C18 4.03745 13.9625 0 9 0ZM9 14.5385C8.09567 14.5385 7.37654 14.1551 7.28005 13.3451C7.27749 13.3209 7.28007 13.2964 7.28762 13.2733C7.29516 13.2501 7.30751 13.2288 7.32384 13.2108C7.34017 13.1927 7.36013 13.1783 7.38241 13.1685C7.40469 13.1587 7.42878 13.1537 7.45312 13.1538H10.5447C10.5693 13.1537 10.5936 13.1587 10.6161 13.1687C10.6386 13.1787 10.6587 13.1933 10.6751 13.2116C10.6914 13.23 10.7037 13.2516 10.7111 13.2751C10.7185 13.2985 10.7207 13.3233 10.7178 13.3477C10.6075 14.1425 9.89481 14.5385 9 14.5385ZM13.2404 12.4615H4.75962C4.24731 12.4615 3.98077 11.8125 4.27543 11.4663C4.98202 10.6295 5.48135 10.2777 5.48135 7.97019C5.48135 5.85563 6.5951 5.10534 7.515 4.73928C7.5783 4.7129 7.63538 4.67355 7.68256 4.62376C7.72973 4.57398 7.76595 4.51487 7.78889 4.45024C7.94856 3.92019 8.40029 3.46154 9 3.46154C9.59971 3.46154 10.0506 3.92019 10.2115 4.45067C10.2346 4.51529 10.2709 4.57438 10.3182 4.62416C10.3654 4.67393 10.4225 4.71329 10.4859 4.73971C11.4036 5.1049 12.5195 5.85649 12.5195 7.97063C12.5195 10.2782 13.0184 10.63 13.725 11.4668C14.0166 11.8125 13.7497 12.4615 13.2404 12.4615Z" fill="#FC9D45"/>
</g>
<defs>
<clipPath id="clip0_0_6">
<rect width="18" height="18" fill="white"/>
</clipPath>
</defs>
</svg>
