<svg width="23" height="26" viewBox="0 0 23 26" fill="none" xmlns="http://www.w3.org/2000/svg">
<path d="M22.9486 15.6583C22.9188 15.7354 21.9812 18.9257 21.2073 21.5765C20.4186 24.2582 20.24 25.9997 20.24 25.9997L9.45018 25.9381C9.45018 25.9381 10.0157 22.3163 10.492 19.7425C10.864 17.7235 11.504 16.244 11.757 15.7046C11.757 15.6892 11.7718 15.6891 11.7718 15.6737C11.8165 15.5813 11.8463 15.5196 11.8611 15.4888C11.8611 15.4734 11.876 15.4734 11.876 15.4734C11.876 15.4734 10.8938 14.4254 9.61389 12.9921C8.12564 11.3276 6.25045 9.1853 5.07474 7.61328C2.9019 4.70042 0.0146981 0.0151881 0.0146981 0.0151881C0.0146981 0.0151881 2.60425 1.5718 7.4857 2.38863C12.3671 3.20546 13.9298 2.14204 13.9298 2.14204C13.9298 2.14204 15.3734 5.88714 18.5582 10.0021C19.5703 11.2967 20.3739 12.3448 21.0139 13.177C22.383 14.9186 22.9486 15.6583 22.9486 15.6583Z" fill="#F46742"/>
<path d="M22.9488 15.6586C22.9339 15.7357 21.9814 18.926 21.2075 21.5768C20.4188 24.2585 20.2402 26.0001 20.2402 26.0001L9.4504 25.9384C9.4504 25.9384 10.0159 22.3166 10.4922 19.7428C10.8642 17.7238 11.5042 16.2443 11.7572 15.7049C11.7572 15.6895 11.7721 15.6895 11.7721 15.674C11.8167 15.5816 11.8465 15.5199 11.8614 15.4891C11.8614 15.4737 11.8762 15.4737 11.8762 15.4737C11.8762 15.4737 15.0313 16.4755 18.3948 16.4755C21.7135 16.4601 22.919 15.674 22.9488 15.6586Z" fill="#F0492F"/>
<path d="M21.014 13.1464C20.5973 13.5471 19.8383 14.0403 18.5287 14.2407C18.4245 14.2561 18.3203 14.2715 18.2161 14.2869C17.7994 14.3331 17.3232 14.3639 16.7874 14.3331C15.7903 14.3023 14.8229 14.1944 13.9597 14.0557C13.8258 14.0403 13.6919 14.0095 13.5579 13.9941C11.2809 13.5933 9.6736 13.0077 9.59919 12.9769C8.11094 11.3124 6.23575 9.17012 5.06004 7.5981C2.8872 4.68524 0 0 0 0C0 0 1.47336 0.878482 4.27126 1.66449C4.37544 1.69532 4.4945 1.72614 4.59868 1.75696C5.44698 1.98814 6.39946 2.1885 7.45611 2.37344C7.94723 2.4505 8.40859 2.51215 8.84018 2.5738C8.94436 2.58921 9.04854 2.58921 9.13783 2.60462C12.6947 2.94369 13.9002 2.12685 13.9002 2.12685C13.9002 2.12685 15.3438 5.87196 18.5287 9.98695C19.5704 11.2816 20.3741 12.3296 21.014 13.1464Z" fill="#F7804C"/>
<path d="M16.2074 16.3057L16.1479 16.3982C16.133 16.429 14.6299 18.972 13.7518 21.1142C12.8589 23.2719 12.0255 25.8765 12.0106 25.9073L11.7873 25.8303C11.8022 25.7994 12.6356 23.1794 13.5435 21.0217C14.3471 19.0798 15.627 16.8297 15.9098 16.3519C15.6865 16.1516 14.9722 15.4888 13.5881 13.9939C12.8738 13.2233 11.9659 12.2369 10.8646 10.9886C7.73932 7.4438 5.12 3.05139 4.31635 1.66432C4.42053 1.69514 4.53958 1.72597 4.64376 1.75679C5.56647 3.34422 8.06673 7.45921 11.0432 10.819C12.2636 12.2061 13.2309 13.2695 13.9751 14.0555C15.5228 15.6892 16.133 16.2132 16.133 16.2286L16.2074 16.3057Z" fill="#EA3D2A"/>
<path d="M20.8802 16.3211L20.8057 16.429C20.7909 16.4598 18.8859 19.2956 17.7846 21.6382C16.6833 23.9654 16.1475 25.8765 16.1475 25.8919L15.9094 25.8303C15.9094 25.8149 16.4452 23.873 17.5614 21.5304C18.5585 19.4343 20.1956 16.9222 20.5379 16.3982C20.2849 16.1978 19.5259 15.5813 18.2162 14.3021C17.3679 13.4853 16.2964 12.3757 14.9718 10.9423C11.8614 7.55171 9.61413 3.88366 8.85513 2.57364C8.95931 2.58905 9.06348 2.58906 9.15278 2.60447C9.9862 4.02237 12.159 7.53629 15.1355 10.7728C16.5196 12.2832 17.6507 13.4237 18.5138 14.2559C20.0319 15.72 20.7611 16.2441 20.7611 16.2595L20.8802 16.3211Z" fill="#EA3D2A"/>
</svg>
