<svg width="15" height="15" viewBox="0 0 15 15" fill="none" xmlns="http://www.w3.org/2000/svg">
<path d="M7.5 2.8125C7.24125 2.8125 7.03125 2.6025 7.03125 2.34375V1.875C7.03125 1.61625 7.24125 1.40625 7.5 1.40625C7.75875 1.40625 7.96875 1.61625 7.96875 1.875V2.34375C7.96875 2.6025 7.75875 2.8125 7.5 2.8125Z" fill="#FC9D45"/>
<path d="M11.5905 6.90344C11.3317 6.90344 11.1217 6.69344 11.1217 6.43469C11.1217 4.52969 9.57486 2.90641 7.67361 2.81641C5.77002 2.72852 4.07291 4.19453 3.89361 6.08852C3.88283 6.20172 3.87744 6.31797 3.87744 6.43469C3.87744 6.69344 3.66744 6.90344 3.40869 6.90344C3.14994 6.90344 2.93994 6.69344 2.93994 6.43469C2.93994 6.28844 2.94674 6.14219 2.96033 6.00016C3.18604 3.61516 5.32283 1.76734 7.71791 1.88008C10.1118 1.99328 12.0592 4.03656 12.0592 6.43469C12.0592 6.69367 11.8492 6.90344 11.5905 6.90344Z" fill="#FC9D45"/>
<path d="M12.4692 10.1006C12.3537 10.1006 12.2377 10.058 12.147 9.97243C11.4954 9.35556 11.1216 8.48696 11.1216 7.58954C11.1216 7.33079 11.3316 7.12079 11.5903 7.12079C11.8491 7.12079 12.0591 7.33079 12.0591 7.58954C12.0591 8.23056 12.326 8.85118 12.7915 9.29157C12.9795 9.46946 12.9877 9.76618 12.8098 9.95439C12.7177 10.0514 12.5935 10.1006 12.4692 10.1006Z" fill="#FC9D45"/>
<path d="M2.52982 10.1006C2.40537 10.1006 2.28138 10.0517 2.18927 9.95415C2.01138 9.76618 2.01958 9.46946 2.20755 9.29157C2.67302 8.85118 2.93998 8.23079 2.93998 7.58954C2.93998 7.33079 3.14998 7.12079 3.40873 7.12079C3.66748 7.12079 3.87748 7.33079 3.87748 7.58954C3.87748 8.48743 3.50365 9.35603 2.85209 9.97243C2.76115 10.058 2.64537 10.1006 2.52982 10.1006Z" fill="#FC9D45"/>
<path d="M7.5 13.5938C6.22969 13.5938 5.15625 12.5203 5.15625 11.25C5.15625 10.9913 5.36625 10.7812 5.625 10.7812C5.88375 10.7812 6.09375 10.9913 6.09375 11.25C6.09375 12.0122 6.73781 12.6562 7.5 12.6562C8.26219 12.6562 8.90625 12.0122 8.90625 11.25C8.90625 10.9913 9.11625 10.7812 9.375 10.7812C9.63375 10.7812 9.84375 10.9913 9.84375 11.25C9.84375 12.5203 8.77031 13.5938 7.5 13.5938Z" fill="#FC9D45"/>
<path d="M3.17468 11.7188C2.60351 11.7188 2.09539 11.3696 1.88 10.8291C1.66437 10.288 1.79304 9.68446 2.20789 9.29165C2.39585 9.11352 2.69234 9.12172 2.8707 9.30969C3.04859 9.49766 3.04062 9.79438 2.85265 9.9725C2.64734 10.167 2.72281 10.412 2.75093 10.4823C2.77882 10.5521 2.89203 10.7813 3.17468 10.7813C3.43343 10.7813 3.64343 10.9913 3.64343 11.2501C3.64343 11.5088 3.43367 11.7188 3.17468 11.7188Z" fill="#FC9D45"/>
<path d="M11.8257 11.7188C11.5669 11.7188 11.3569 11.5088 11.3569 11.25C11.3569 10.9913 11.5669 10.7813 11.8257 10.7813C12.1086 10.7813 12.222 10.5511 12.2501 10.4806C12.278 10.4105 12.3533 10.1665 12.1479 9.97223C11.96 9.79411 11.9518 9.49762 12.1297 9.30942C12.3078 9.12145 12.6043 9.11325 12.7925 9.29114C13.2073 9.68395 13.3362 10.287 13.1211 10.8272C12.9054 11.3689 12.3969 11.7188 11.8257 11.7188Z" fill="#FC9D45"/>
<path d="M3.40869 8.05803C3.14994 8.05803 2.93994 7.84803 2.93994 7.58928V6.43475C2.93994 6.176 3.14994 5.966 3.40869 5.966C3.66744 5.966 3.87744 6.176 3.87744 6.43475V7.58928C3.87744 7.84803 3.66768 8.05803 3.40869 8.05803Z" fill="#FC9D45"/>
<path d="M11.5913 8.05803C11.3326 8.05803 11.1226 7.84803 11.1226 7.58928V6.43475C11.1226 6.176 11.3326 5.966 11.5913 5.966C11.8501 5.966 12.0601 6.176 12.0601 6.43475V7.58928C12.0601 7.84803 11.8501 8.05803 11.5913 8.05803Z" fill="#FC9D45"/>
<path d="M11.8251 11.7188H3.17432C2.91557 11.7188 2.70557 11.5088 2.70557 11.25C2.70557 10.9913 2.91557 10.7812 3.17432 10.7812H11.8249C12.0836 10.7812 12.2936 10.9913 12.2936 11.25C12.2936 11.5088 12.0838 11.7188 11.8251 11.7188Z" fill="#FC9D45"/>
</svg>
