<svg width="20" height="14" viewBox="0 0 20 14" fill="none" xmlns="http://www.w3.org/2000/svg">
<path d="M18.3091 3.78005e-06H1.69091C1.46872 -0.000457615 1.24863 0.041324 1.04326 0.12295C0.837896 0.204576 0.651301 0.324439 0.49419 0.475658C0.33708 0.626877 0.212547 0.806475 0.12774 1.00414C0.042934 1.20181 -0.000475444 1.41365 3.92732e-06 1.6275V12.3725C-0.000475444 12.5864 0.042934 12.7982 0.12774 12.9959C0.212547 13.1935 0.33708 13.3731 0.49419 13.5243C0.651301 13.6756 0.837896 13.7954 1.04326 13.877C1.24863 13.9587 1.46872 14.0005 1.69091 14H18.3091C18.5313 14.0005 18.7514 13.9587 18.9567 13.877C19.1621 13.7954 19.3487 13.6756 19.5058 13.5243C19.6629 13.3731 19.7875 13.1935 19.8723 12.9959C19.9571 12.7982 20.0005 12.5864 20 12.3725V1.6275C20.0005 1.41365 19.9571 1.20181 19.8723 1.00414C19.7875 0.806475 19.6629 0.626877 19.5058 0.475658C19.3487 0.324439 19.1621 0.204576 18.9567 0.12295C18.7514 0.041324 18.5313 -0.000457615 18.3091 3.78005e-06ZM16.3636 11.375H3.63637C3.39526 11.375 3.16403 11.2828 2.99354 11.1187C2.82305 10.9546 2.72728 10.7321 2.72728 10.5C2.72728 10.2679 2.82305 10.0454 2.99354 9.88128C3.16403 9.71719 3.39526 9.625 3.63637 9.625H16.3636C16.6047 9.625 16.836 9.71719 17.0065 9.88128C17.1769 10.0454 17.2727 10.2679 17.2727 10.5C17.2727 10.7321 17.1769 10.9546 17.0065 11.1187C16.836 11.2828 16.6047 11.375 16.3636 11.375ZM18.1818 4.64625C18.1816 4.8063 18.1154 4.95974 17.9978 5.07291C17.8802 5.18609 17.7208 5.24977 17.5545 5.25H15.1727C15.0064 5.24977 14.847 5.18609 14.7294 5.07291C14.6119 4.95974 14.5457 4.8063 14.5455 4.64625V2.35375C14.5457 2.1937 14.6119 2.04027 14.7294 1.92709C14.847 1.81392 15.0064 1.75023 15.1727 1.75H17.5545C17.7208 1.75023 17.8802 1.81392 17.9978 1.92709C18.1154 2.04027 18.1816 2.1937 18.1818 2.35375V4.64625Z" fill="#FDA758"/>
</svg>
