<svg width="15" height="20" viewBox="0 0 15 20" fill="none" xmlns="http://www.w3.org/2000/svg">
<path d="M14.5858 1.78C14.44 1.695 10.9858 -0.269179 7.11249 1.7625C4.72832 3.01418 2.54832 2.35082 1.66668 1.9775V0.833319C1.66668 0.37332 1.29418 0 0.833319 0C0.3725 0 0 0.37332 0 0.833319V2.5V10.8492V19.1667C0 19.6275 0.3725 20 0.833319 20C1.29414 20 1.66664 19.6275 1.66664 19.1667V12.0958C2.32414 12.3075 3.19664 12.5041 4.21332 12.5033C5.31499 12.5033 6.57831 12.2741 7.88749 11.5875C10.9183 9.99417 13.6292 11.5008 13.75 11.5708C14.0058 11.7183 14.3233 11.72 14.5817 11.5716C14.8408 11.4224 15 11.1474 15 10.8491V2.5C15 2.20418 14.8425 1.92918 14.5858 1.78Z" fill="#29319F"/>
</svg>
