<svg width="257" height="159" viewBox="0 0 257 159" fill="none" xmlns="http://www.w3.org/2000/svg">
<path opacity="0.3" d="M68.2464 31.4432C47.3844 37.8353 31.913 54.0845 28.8611 73.725C26.2911 90.2801 32.4334 108.57 68.5933 113.781C138.954 123.918 204.848 126.808 221.663 99.4516C238.477 72.0953 233.318 25.2356 197.614 22.2031C169.228 19.7929 108.981 18.9385 68.2464 31.4432Z" fill="#E6E6E6"/>
<path opacity="0.43" d="M240.584 78.0286C240.584 77.5696 240.474 77.1152 240.26 76.6913C240.045 76.2673 239.732 75.8822 239.336 75.5579C238.94 75.2336 238.471 74.9766 237.954 74.8014C237.437 74.6263 236.883 74.5365 236.324 74.5372C236.096 74.537 235.868 74.5529 235.643 74.5846C235.153 73.8353 234.425 73.2091 233.535 72.7726C232.646 72.3362 231.629 72.1057 230.593 72.1059H230.381C230.52 71.6631 230.592 71.2077 230.593 70.7504C230.621 70.0022 230.466 69.2569 230.136 68.5589C229.807 67.8609 229.31 67.2243 228.675 66.6869C228.04 66.1495 227.28 65.7222 226.44 65.4304C225.601 65.1386 224.698 64.9883 223.786 64.9883C222.874 64.9883 221.971 65.1386 221.131 65.4304C220.291 65.7222 219.532 66.1495 218.897 66.6869C218.262 67.2243 217.765 67.8609 217.435 68.5589C217.106 69.2569 216.951 70.0022 216.979 70.7504C216.974 71.2102 217.036 71.6688 217.165 72.1164H216.959C216.19 72.0953 215.424 72.2014 214.705 72.4284C213.987 72.6555 213.332 72.9988 212.779 73.438C212.225 73.8771 211.786 74.4032 211.485 74.9848C211.185 75.5664 211.03 76.1917 211.03 76.8235C211.03 77.4552 211.185 78.0805 211.485 78.6621C211.786 79.2438 212.225 79.7698 212.779 80.209C213.332 80.6482 213.987 80.9915 214.705 81.2185C215.424 81.4456 216.19 81.5517 216.959 81.5305H236.877V81.4989C237.903 81.3898 238.846 80.9772 239.529 80.3383C240.211 79.6995 240.586 78.8783 240.584 78.0286Z" fill="#DDDBDB"/>
<path opacity="0.45" d="M127.074 136.517C182.894 136.517 228.145 134.17 228.145 131.275C228.145 128.38 182.894 126.033 127.074 126.033C71.2533 126.033 26.002 128.38 26.002 131.275C26.002 134.17 71.2533 136.517 127.074 136.517Z" fill="#E6E6E6"/>
<path d="M89.0697 84.2466L108.235 72.4223C112.265 69.9371 117.169 68.5934 122.21 68.5934H171.04C176.214 68.5868 181.308 69.6371 185.864 71.6498C190.421 73.6624 194.295 76.5741 197.138 80.1224C205.028 90.0111 212.089 105.095 200.698 120.632H42.2314V107.146C42.2295 104.346 43.384 101.627 45.5066 99.4349C47.6292 97.2424 50.5945 95.7052 53.9185 95.0742C64.8924 92.9857 80.8971 89.2886 89.0697 84.2466Z" fill="#FFBA7C"/>
<path opacity="0.03" d="M98.0586 112.995V101.05C98.0586 99.4719 98.8222 97.9587 100.181 96.843C101.54 95.7273 103.384 95.1006 105.306 95.1006H175.3C178.045 95.0824 180.696 95.9172 182.722 97.4375C184.748 98.9577 185.999 101.051 186.222 103.296C186.506 105.667 185.893 108.051 184.468 110.126L176.463 112.995H98.0586Z" fill="black"/>
<path d="M204.668 112.995H41.4668C40.3668 112.995 39.4751 113.727 39.4751 114.63V119.002C39.4751 119.905 40.3668 120.637 41.4668 120.637H204.668C205.768 120.637 206.66 119.905 206.66 119.002V114.63C206.66 113.727 205.768 112.995 204.668 112.995Z" fill="#FFBA7C"/>
<path opacity="0.46" d="M204.668 112.995H41.4668C40.3668 112.995 39.4751 113.727 39.4751 114.63V119.002C39.4751 119.905 40.3668 120.637 41.4668 120.637H204.668C205.768 120.637 206.66 119.905 206.66 119.002V114.63C206.66 113.727 205.768 112.995 204.668 112.995Z" fill="white"/>
<path d="M188.683 131.533C196.752 131.533 203.293 126.164 203.293 119.54C203.293 112.917 196.752 107.547 188.683 107.547C180.614 107.547 174.072 112.917 174.072 119.54C174.072 126.164 180.614 131.533 188.683 131.533Z" fill="#24285B"/>
<path d="M188.683 126.502C193.367 126.502 197.164 123.385 197.164 119.54C197.164 115.696 193.367 112.579 188.683 112.579C183.999 112.579 180.202 115.696 180.202 119.54C180.202 123.385 183.999 126.502 188.683 126.502Z" fill="white"/>
<path d="M86.8724 119.54C86.8737 121.914 86.0175 124.234 84.4122 126.208C82.8068 128.182 80.5244 129.72 77.8536 130.629C75.1829 131.538 72.2437 131.777 69.4079 131.314C66.5721 130.852 63.967 129.709 61.9221 128.032C59.8773 126.354 58.4845 124.216 57.92 121.888C57.3555 119.561 57.6446 117.148 58.7507 114.955C59.8568 112.763 61.7303 110.888 64.1342 109.57C66.5381 108.251 69.3643 107.547 72.2555 107.547C74.1752 107.545 76.0766 107.854 77.8507 108.456C79.6248 109.058 81.2369 109.941 82.5946 111.055C83.9523 112.169 85.0291 113.492 85.7631 114.948C86.4971 116.404 86.8741 117.965 86.8724 119.54Z" fill="#24285B"/>
<path d="M72.2554 126.502C76.9393 126.502 80.7364 123.385 80.7364 119.54C80.7364 115.696 76.9393 112.579 72.2554 112.579C67.5715 112.579 63.7744 115.696 63.7744 119.54C63.7744 123.385 67.5715 126.502 72.2554 126.502Z" fill="white"/>
<path d="M112.206 76.4569L98.0711 87.5798C97.7187 87.8571 97.4754 88.2146 97.3725 88.6063C97.2695 88.998 97.3115 89.406 97.4932 89.7779C97.6748 90.1498 97.9878 90.4687 98.3919 90.6935C98.796 90.9183 99.2727 91.0388 99.7608 91.0395H178.679C179.388 91.0397 180.087 90.9009 180.718 90.6348C181.349 90.3687 181.893 89.983 182.306 89.5096C182.719 89.0362 182.988 88.4888 183.091 87.9128C183.195 87.3369 183.129 86.749 182.9 86.198L180.016 79.2468C179.382 77.7208 178.183 76.3958 176.586 75.4575C174.989 74.5192 173.074 74.0148 171.11 74.015H119.608C116.849 74.0157 114.198 74.8905 112.206 76.4569Z" fill="#24285B"/>
<path d="M187.244 72.301C187.244 72.301 183.543 85.486 204.514 92.6165C204.514 92.6165 200.961 78.229 187.244 72.301Z" fill="#24285B"/>
<path opacity="0.03" d="M70.4565 101.545C70.0885 101.518 69.7443 101.384 69.4851 101.168C69.2258 100.952 69.0683 100.668 69.0405 100.365C69.0128 100.063 69.1166 99.7622 69.3335 99.5167C69.5504 99.2711 69.8664 99.0967 70.2252 99.0244C73.864 98.2413 77.708 98.3941 81.2376 99.4622C84.6809 100.464 87.7704 102.147 90.2326 104.362C90.6273 104.729 90.896 105.175 91.011 105.656C91.1259 106.136 91.0831 106.633 90.8869 107.095C90.6907 107.557 90.3481 107.968 89.8944 108.286C89.4407 108.604 88.8922 108.817 88.3051 108.903C87.602 109.01 86.8754 108.932 86.23 108.679C85.5846 108.426 85.0536 108.011 84.7135 107.495C83.4157 105.453 79.8884 102.326 70.4565 101.545Z" fill="black"/>
<path d="M138.407 72.301L136.833 94.6206H150.974L146.419 72.301H138.407Z" fill="#FFBA7C"/>
<path d="M183.537 108.945H98.0586V110.126H183.537V108.945Z" fill="#24285B"/>
<path d="M121.76 95.1005H115.226C114.232 95.1005 113.427 95.7617 113.427 96.5773V97.0519C113.427 97.8675 114.232 98.5286 115.226 98.5286H121.76C122.754 98.5286 123.559 97.8675 123.559 97.0519V96.5773C123.559 95.7617 122.754 95.1005 121.76 95.1005Z" fill="white"/>
<path d="M178.397 95.1005H171.862C170.869 95.1005 170.063 95.7617 170.063 96.5773V97.0519C170.063 97.8675 170.869 98.5286 171.862 98.5286H178.397C179.39 98.5286 180.196 97.8675 180.196 97.0519V96.5773C180.196 95.7617 179.39 95.1005 178.397 95.1005Z" fill="white"/>
<path opacity="0.16" d="M160.085 74.015L164.332 91.0395H175.21L168.888 74.015H160.085Z" fill="#BED9F4"/>
<path opacity="0.16" d="M119.672 74.015L123.912 91.0395H134.79L128.468 74.015H119.672Z" fill="#BED9F4"/>
<path d="M107.355 85.2592H99.9986C98.1818 85.2592 96.709 86.4682 96.709 87.9595V88.8192C96.709 90.3105 98.1818 91.5195 99.9986 91.5195H107.355C109.172 91.5195 110.645 90.3105 110.645 88.8192V87.9595C110.645 86.4682 109.172 85.2592 107.355 85.2592Z" fill="#FFBA7C"/>
<path opacity="0.46" d="M107.355 85.2592H99.9986C98.1818 85.2592 96.709 86.4682 96.709 87.9595V88.8192C96.709 90.3105 98.1818 91.5195 99.9986 91.5195H107.355C109.172 91.5195 110.645 90.3105 110.645 88.8192V87.9595C110.645 86.4682 109.172 85.2592 107.355 85.2592Z" fill="white"/>
<path d="M45.2833 99.6784H56.5399C56.8693 99.6773 57.193 99.7491 57.4768 99.8864C57.7607 100.024 57.9941 100.221 58.1527 100.458C58.3112 100.695 58.3889 100.963 58.3776 101.233C58.3662 101.503 58.2663 101.766 58.0883 101.994L55.0878 105.833C54.678 106.359 54.1136 106.791 53.4467 107.091C52.7797 107.39 52.0316 107.547 51.2714 107.547H42.2764V106.572C42.2755 104.051 43.3559 101.61 45.3282 99.6784H45.2833Z" fill="white"/>
<path d="M192.994 54.6699C200.084 54.6699 205.832 49.9521 205.832 44.1324C205.832 38.3127 200.084 33.5949 192.994 33.5949C185.905 33.5949 180.157 38.3127 180.157 44.1324C180.157 49.9521 185.905 54.6699 192.994 54.6699Z" fill="#FFD200"/>
<path opacity="0.15" d="M192.994 60.6032C204.076 60.6032 213.059 53.229 213.059 44.1324C213.059 35.0359 204.076 27.6617 192.994 27.6617C181.912 27.6617 172.929 35.0359 172.929 44.1324C172.929 53.229 181.912 60.6032 192.994 60.6032Z" fill="#FFD200"/>
<path d="M134.36 36.7488C134.358 35.3332 133.673 33.9759 132.454 32.9744C131.235 31.9729 129.582 31.409 127.858 31.4062C127.507 31.4092 127.157 31.4339 126.81 31.48C126.062 30.3355 124.95 29.3786 123.593 28.7109C122.235 28.0433 120.683 27.6898 119.1 27.688H118.786C118.992 27.0101 119.098 26.3141 119.1 25.6153C119.135 24.4751 118.891 23.3408 118.383 22.2791C117.876 21.2174 117.114 20.2498 116.144 19.4334C115.174 18.6169 114.014 17.9681 112.734 17.5251C111.454 17.082 110.078 16.8538 108.689 16.8538C107.299 16.8538 105.924 17.082 104.643 17.5251C103.363 17.9681 102.203 18.6169 101.233 19.4334C100.263 20.2498 99.5016 21.2174 98.9939 22.2791C98.4862 23.3408 98.2424 24.4751 98.2769 25.6153C98.2784 26.3145 98.3863 27.0108 98.5982 27.688C98.4889 27.688 98.3861 27.688 98.2769 27.688C95.9912 27.7388 93.8198 28.5198 92.225 29.8649C90.6302 31.2099 89.7378 33.0127 89.7378 34.8897C89.7378 36.7666 90.6302 38.5695 92.225 39.9145C93.8198 41.2596 95.9912 42.0406 98.2769 42.0914H128.725V42.0545C130.287 41.8796 131.719 41.2455 132.756 40.2698C133.792 39.2942 134.362 38.0431 134.36 36.7488Z" fill="#EFEFEF"/>
<path d="M53.0896 72.9866C53.0913 72.5265 52.9824 72.0707 52.7691 71.6452C52.5558 71.2198 52.2423 70.8331 51.8465 70.5073C51.4508 70.1814 50.9806 69.9229 50.463 69.7466C49.9453 69.5702 49.3903 69.4794 48.8299 69.4794C48.5996 69.4816 48.3699 69.4975 48.1424 69.5268C47.6517 68.7779 46.9231 68.152 46.0339 67.7156C45.1448 67.2792 44.1283 67.0485 43.0923 67.0481H42.8803C43.0199 66.6053 43.0912 66.15 43.0923 65.6926C43.038 64.2404 42.297 62.8625 41.0263 61.851C39.7556 60.8395 38.0551 60.2739 36.285 60.2739C34.515 60.2739 32.8145 60.8395 31.5438 61.851C30.2731 62.8625 29.5321 64.2404 29.4778 65.6926C29.48 66.1496 29.549 66.6046 29.6834 67.0481H29.4778C27.9561 67.0481 26.4967 67.5443 25.4207 68.4275C24.3447 69.3107 23.7402 70.5087 23.7402 71.7578C23.7402 73.0069 24.3447 74.2048 25.4207 75.088C26.4967 75.9713 27.9561 76.4675 29.4778 76.4675H49.3953V76.4358C50.414 76.3227 51.3487 75.9115 52.0275 75.2778C52.7062 74.644 53.0834 73.8304 53.0896 72.9866Z" fill="#DDDBDB"/>
</svg>
