<svg width="120" height="137" viewBox="0 0 120 137" fill="none" xmlns="http://www.w3.org/2000/svg">
<path d="M59.9742 136.835H58.8152C43.9271 136.484 29.6863 130.294 18.8304 119.454C7.97461 108.614 1.26998 93.8889 0.00546321 78.1104C-0.0133534 77.8611 0.016558 77.6103 0.0933168 77.3739C0.170075 77.1375 0.292021 76.9205 0.451477 76.7366C0.610933 76.5528 0.804451 76.406 1.01985 76.3055C1.23525 76.2051 1.46787 76.1531 1.70308 76.1529H22.0131C22.4651 76.1529 22.8987 76.3439 23.2183 76.6838C23.538 77.0237 23.7175 77.4847 23.7175 77.9654C23.7175 78.4461 23.538 78.9071 23.2183 79.247C22.8987 79.5869 22.4651 79.7779 22.0131 79.7779H3.60522C4.86654 91.2693 9.21162 102.132 16.1216 111.068C23.0315 120.005 32.2143 126.637 42.5733 130.174C52.9323 133.711 64.0297 134.002 74.5402 131.013C85.0507 128.025 94.5301 121.882 101.846 113.319C109.163 104.756 114.007 94.1348 115.8 82.7236C117.593 71.3123 116.259 59.5934 111.958 48.9662C107.657 38.3391 100.571 29.253 91.5451 22.7929C82.5194 16.3328 71.9357 12.7717 61.0582 12.5351C59.5174 12.4988 57.9561 12.5351 56.429 12.6366C55.9769 12.6664 55.5323 12.504 55.1928 12.1852C54.8533 11.8664 54.6469 11.4172 54.6189 10.9365C54.5908 10.4558 54.7435 9.98293 55.0434 9.62195C55.3432 9.26097 55.7656 9.04143 56.2176 9.01163C57.8402 8.90288 59.4901 8.86664 61.1196 8.90289C76.9466 9.25892 92.0036 16.2352 103.026 28.3188C114.047 40.4024 120.146 56.6193 119.998 73.4526C119.849 90.2859 113.467 106.379 102.235 118.241C91.0023 130.103 75.8252 136.779 59.9946 136.82L59.9742 136.835Z" fill="#093F68"/>
<path d="M20.9221 93.0379H33.194V103.753C33.194 104.907 32.763 106.013 31.9959 106.829C31.2287 107.645 30.1883 108.103 29.1033 108.103H25.0604C23.9755 108.103 22.9351 107.645 22.1679 106.829C21.4008 106.013 20.9698 104.907 20.9698 103.753V93.0379H20.9221Z" fill="#093F68"/>
<path d="M29.0696 108.843H25.0267C23.761 108.843 22.5471 108.308 21.6521 107.356C20.7571 106.405 20.2543 105.114 20.2543 103.768V93.0379C20.2543 92.8456 20.3262 92.6612 20.454 92.5253C20.5819 92.3893 20.7553 92.3129 20.9361 92.3129H33.208C33.3888 92.3129 33.5622 92.3893 33.6901 92.5253C33.8179 92.6612 33.8898 92.8456 33.8898 93.0379V103.753C33.8916 104.425 33.7679 105.091 33.5259 105.712C33.2839 106.332 32.9284 106.896 32.48 107.369C32.0316 107.843 31.4992 108.217 30.9138 108.47C30.3284 108.723 29.7015 108.849 29.0696 108.843ZM21.5702 93.7629V103.753C21.5702 104.715 21.9293 105.637 22.5686 106.316C23.2079 106.996 24.0749 107.378 24.979 107.378H29.0219C29.926 107.378 30.7931 106.996 31.4324 106.316C32.0716 105.637 32.4308 104.715 32.4308 103.753V93.7629H21.5702Z" fill="#093F68"/>
<path d="M86.7407 93.0379H99.0126V103.753C99.0126 104.907 98.5816 106.013 97.8145 106.829C97.0473 107.645 96.0068 108.103 94.9219 108.103H90.879C89.7941 108.103 88.7537 107.645 87.9865 106.829C87.2194 106.013 86.7884 104.907 86.7884 103.753V93.0379H86.7407Z" fill="#093F68"/>
<path d="M94.8878 108.843H90.8517C89.586 108.843 88.3721 108.308 87.4771 107.356C86.5821 106.405 86.0793 105.114 86.0793 103.768V93.0379C86.0793 92.8456 86.1511 92.6612 86.279 92.5253C86.4068 92.3893 86.5802 92.3129 86.7611 92.3129H99.033C99.2138 92.3129 99.3872 92.3893 99.5151 92.5253C99.6429 92.6612 99.7147 92.8456 99.7147 93.0379V103.753C99.7166 104.426 99.5927 105.092 99.3503 105.713C99.1078 106.335 98.7517 106.898 98.3026 107.372C97.8534 107.845 97.3203 108.219 96.734 108.472C96.1478 108.724 95.5202 108.85 94.8878 108.843ZM87.3883 93.7629V103.753C87.3883 104.715 87.7474 105.637 88.3867 106.316C89.026 106.996 89.8931 107.378 90.7971 107.378H94.8332C95.7373 107.378 96.6044 106.996 97.2437 106.316C97.883 105.637 98.2421 104.715 98.2421 103.753V93.7629H87.3883Z" fill="#093F68"/>
<path d="M24.4332 55.1645V52.2645C24.4341 52.0344 24.3922 51.8065 24.3101 51.5936C24.2279 51.3808 24.107 51.1873 23.9544 51.0243C23.8017 50.8613 23.6203 50.732 23.4205 50.6437C23.2207 50.5555 23.0065 50.51 22.7901 50.51H20.6221C20.1744 50.51 19.7311 50.6038 19.3176 50.786C18.904 50.9681 18.5282 51.2351 18.2116 51.5717C17.8951 51.9084 17.644 52.308 17.4727 52.7478C17.3014 53.1876 17.2132 53.6589 17.2132 54.135V55.5197C17.215 55.953 17.3781 56.3679 17.6669 56.6736C17.9557 56.9793 18.3465 57.1509 18.754 57.1509H26.7853V55.1862L24.4332 55.1645Z" fill="#FFBA7C"/>
<path d="M26.7853 57.8542H18.7813C18.193 57.8542 17.6287 57.6062 17.2121 57.1645C16.7954 56.7228 16.5605 56.1235 16.5587 55.498V54.0987C16.5587 52.9451 16.9897 51.8386 17.7568 51.0229C18.5239 50.2071 19.5644 49.7488 20.6493 49.7488H22.8174C23.4346 49.7507 24.0259 50.0128 24.4617 50.4776C24.8975 50.9424 25.1422 51.5719 25.1422 52.2283V54.4032H26.8125C26.9934 54.4032 27.1668 54.4796 27.2946 54.6156C27.4225 54.7515 27.4943 54.9359 27.4943 55.1282V57.0929C27.4991 57.1936 27.4841 57.2943 27.4503 57.3885C27.4165 57.4827 27.3645 57.5684 27.2978 57.64C27.2311 57.7116 27.151 57.7677 27.0628 57.8046C26.9745 57.8415 26.88 57.8583 26.7853 57.8542ZM20.6493 51.2423C19.926 51.2423 19.2324 51.5478 18.721 52.0917C18.2095 52.6355 17.9222 53.3731 17.9222 54.1422V55.527C17.924 55.768 18.0153 55.9985 18.1762 56.1682C18.3371 56.338 18.5546 56.4332 18.7813 56.4332H26.1035V55.9185H24.4332C24.2523 55.9185 24.0789 55.8421 23.9511 55.7061C23.8232 55.5701 23.7514 55.3857 23.7514 55.1935V52.2935C23.7514 52.0217 23.6503 51.761 23.4702 51.5681C23.2902 51.3752 23.0457 51.2659 22.7901 51.264L20.6493 51.2423Z" fill="#093F68"/>
<path d="M95.5083 55.1645V52.2645C95.5074 52.0344 95.5492 51.8065 95.6314 51.5936C95.7135 51.3808 95.8344 51.1873 95.9871 51.0243C96.1397 50.8613 96.3212 50.732 96.521 50.6437C96.7208 50.5555 96.935 50.51 97.1513 50.51H99.3262C100.224 50.5196 101.083 50.9057 101.715 51.5845C102.347 52.2633 102.701 53.1798 102.701 54.135V55.5197C102.701 55.9523 102.539 56.3672 102.252 56.6732C101.964 56.9791 101.574 57.1509 101.167 57.1509H93.1289V55.1862L95.5083 55.1645Z" fill="#FFBA7C"/>
<path d="M101.14 57.8542H93.1287C92.9479 57.8542 92.7745 57.7778 92.6466 57.6418C92.5187 57.5059 92.4469 57.3215 92.4469 57.1292V55.1645C92.4469 54.9722 92.5187 54.7878 92.6466 54.6518C92.7745 54.5159 92.9479 54.4395 93.1287 54.4395H94.8263V52.2645C94.8263 51.6082 95.071 50.9786 95.5068 50.5138C95.9426 50.049 96.5339 49.787 97.1512 49.7851H99.326C100.405 49.7946 101.437 50.2571 102.197 51.0719C102.956 51.8866 103.383 52.9876 103.383 54.135V55.5197C103.375 56.1453 103.135 56.7423 102.715 57.1799C102.294 57.6175 101.728 57.86 101.14 57.8542ZM93.8105 56.4042H101.14C101.366 56.4042 101.582 56.3087 101.742 56.1388C101.902 55.9688 101.992 55.7383 101.992 55.498V54.0987C101.992 53.3359 101.709 52.6037 101.205 52.0609C100.701 51.5181 100.016 51.2083 99.2987 51.1988H97.1239C96.8683 51.2007 96.6238 51.31 96.4437 51.5029C96.2636 51.6957 96.1626 51.9565 96.1626 52.2283V55.1282C96.1626 55.3205 96.0908 55.5049 95.9629 55.6409C95.835 55.7768 95.6616 55.8532 95.4808 55.8532H93.8105V56.4042Z" fill="#093F68"/>
<path d="M102.551 71.4405C102.551 71.4405 102.64 67.9968 101.188 65.7928C99.7354 63.5888 95.8152 60.1451 95.0857 56.9842C94.3562 53.8232 88.7657 38.033 83.966 35.0532C81.0139 33.219 66.8739 32.755 59.9608 32.755C53.0476 32.755 38.9008 33.219 35.9487 35.0532C31.1763 38.033 25.5585 53.8232 24.829 56.9842C24.0995 60.1451 20.1862 63.5888 18.734 65.7928C17.2818 67.9968 17.3704 71.4405 17.3704 71.4405V91.9649C17.3704 93.7358 18.032 95.4342 19.2095 96.6864C20.3871 97.9386 21.9842 98.6421 23.6496 98.6421H96.2788C97.1031 98.6421 97.9192 98.4693 98.6807 98.1337C99.4421 97.798 100.134 97.3061 100.716 96.686C101.299 96.0658 101.761 95.3297 102.076 94.5196C102.39 93.7095 102.552 92.8414 102.551 91.9649V71.4405Z" fill="#FFBA7C"/>
<path d="M96.2786 99.3671H23.6425C21.7969 99.3651 20.0275 98.5847 18.7224 97.1969C17.4174 95.8092 16.6834 93.9275 16.6816 91.9649V71.4405C16.6816 71.31 16.6066 67.7503 18.1747 65.3795C18.8073 64.4948 19.4904 63.6523 20.22 62.8566C21.7813 61.0369 23.7312 58.7821 24.188 56.8102C24.7743 54.2727 30.4057 37.6705 35.6281 34.4297C39.4392 32.059 59.1424 32.03 59.981 32.03C60.8196 32.03 80.5228 32.03 84.3339 34.4297C89.5495 37.6632 95.1878 54.2727 95.7741 56.8102C96.2241 58.7821 98.1739 61.0369 99.742 62.8566C100.468 63.6561 101.151 64.4984 101.787 65.3795C103.321 67.7068 103.28 71.1795 103.274 71.455V91.9649C103.273 92.9398 103.091 93.9049 102.739 94.8049C102.386 95.7049 101.871 96.5221 101.221 97.2097C100.571 97.8974 99.7999 98.4419 98.9518 98.8121C98.1038 99.1823 97.1953 99.3709 96.2786 99.3671ZM59.9606 33.48C51.8679 33.48 38.887 34.0672 36.2962 35.655C31.9465 38.3592 26.3424 53.4462 25.4901 57.1364C24.9515 59.4636 22.9608 61.7763 21.2018 63.8136C20.5218 64.5674 19.8822 65.3613 19.286 66.1915C17.9838 68.1635 18.0452 71.368 18.0452 71.4042V91.9432C18.047 93.5212 18.6373 95.034 19.6866 96.1499C20.7359 97.2657 22.1586 97.8934 23.6425 97.8953H96.2786C97.7619 97.8934 99.1839 97.2655 100.232 96.1494C101.28 95.0334 101.869 93.5205 101.869 91.9432V71.426C101.869 71.3897 101.931 68.1853 100.628 66.2133C100.032 65.3831 99.3926 64.5891 98.7125 63.8353C96.9536 61.7981 94.9628 59.4854 94.4242 57.1582C93.5788 53.468 87.9678 38.3737 83.6249 35.6767C81.0273 34.0672 68.0532 33.48 59.9606 33.48Z" fill="#093F68"/>
<path d="M90.5245 49.7488C90.743 50.2271 90.8543 50.7526 90.8498 51.2843C90.8453 51.816 90.7251 52.3394 90.4986 52.8134C90.2721 53.2875 89.9454 53.6993 89.5442 54.0166C89.143 54.3339 88.6781 54.5481 88.186 54.6425C83.3591 55.5632 74.1824 56.8174 59.9606 56.8174C45.7389 56.8174 36.5554 55.5777 31.7284 54.6425C31.2344 54.5514 30.7671 54.3394 30.3635 54.0232C29.9598 53.7069 29.6309 53.2952 29.4027 52.8205C29.1746 52.3457 29.0534 51.8211 29.0488 51.2879C29.0442 50.7548 29.1563 50.2279 29.3763 49.7488L33.4056 40.9619C33.5959 40.541 33.8753 40.1728 34.2218 39.886C34.5684 39.5992 34.9728 39.4017 35.4032 39.3089C39.2143 38.4752 50.2113 37.8082 59.947 37.8082C69.6827 37.8082 80.6661 38.4752 84.4908 39.3089C84.9208 39.4027 85.3247 39.6006 85.6712 39.8873C86.0176 40.174 86.2973 40.5417 86.4884 40.9619L90.5245 49.7488Z" fill="white"/>
<path d="M59.9603 57.5497C45.9908 57.5497 36.8346 56.3679 31.6122 55.3747C31.016 55.2616 30.4527 55.003 29.9664 54.6192C29.4802 54.2353 29.0844 53.7367 28.8101 53.1625C28.5359 52.5884 28.3907 51.9544 28.3859 51.3104C28.3812 50.6665 28.5171 50.0302 28.7828 49.4515L32.7848 40.6647C33.0237 40.146 33.3708 39.6921 33.7997 39.3378C34.2286 38.9835 34.728 38.738 35.2597 38.6202C39.0844 37.7865 50.1564 37.105 59.933 37.105C69.7097 37.105 80.7748 37.7865 84.6064 38.6202C85.1377 38.739 85.6366 38.9849 86.0654 39.3391C86.4942 39.6933 86.8415 40.1466 87.0812 40.6647L91.1037 49.4588C91.3694 50.0369 91.5055 50.6727 91.5011 51.3162C91.4968 51.9597 91.3522 52.5933 91.0787 53.1673C90.8051 53.7414 90.4101 54.2401 89.9247 54.6244C89.4393 55.0086 88.8767 55.268 88.2811 55.382C83.0792 56.3679 73.923 57.5497 59.9603 57.5497ZM59.9603 38.5549C50.2587 38.5549 39.3162 39.2219 35.5597 40.0049C35.232 40.0738 34.9239 40.2231 34.66 40.4408C34.3961 40.6586 34.1835 40.9388 34.0393 41.2592L30.01 50.0533C29.836 50.4303 29.7466 50.8452 29.7491 51.2652C29.7516 51.6852 29.8458 52.0988 30.0243 52.4735C30.2028 52.8482 30.4607 53.1736 30.7776 53.4242C31.0946 53.6748 31.462 53.8437 31.8508 53.9175C37.0187 54.8962 46.0931 56.0924 59.9603 56.0924C73.8276 56.0924 82.8951 54.9252 88.063 53.9175C88.4517 53.8432 88.8189 53.6742 89.1359 53.4238C89.4529 53.1733 89.7111 52.8481 89.8901 52.4738C90.0691 52.0994 90.1641 51.686 90.1676 51.2661C90.1712 50.8461 90.0832 50.431 89.9106 50.0533L85.8813 41.2592C85.7355 40.9386 85.5217 40.6584 85.2567 40.4407C84.9916 40.2231 84.6827 40.0739 84.3541 40.0049C80.6044 39.2219 69.6551 38.5549 59.9603 38.5549Z" fill="#093F68"/>
<path d="M36.2962 76.5734C36.5757 72.3395 33.6918 64.8938 31.367 62.1171C29.0421 59.3404 25.981 58.4922 24.4947 62.1171C23.1431 65.205 22.9006 68.7121 23.813 71.977C24.6788 74.5289 36.0099 80.7711 36.2962 76.5734Z" fill="white"/>
<path d="M34.5782 78.6831C31.4011 78.6831 24.0721 74.8624 23.1994 72.1582C22.2384 68.7214 22.4806 65.0307 23.8812 61.7691C24.7197 59.7174 25.9265 59.1084 26.8401 58.9634C28.4354 58.6879 30.2489 59.6449 31.892 61.5733C34.3805 64.5531 37.278 72.2089 36.9848 76.5661C36.9613 77.1105 36.7465 77.6256 36.3829 78.0096C36.0193 78.3935 35.5334 78.6184 35.0213 78.6396C34.8744 78.6626 34.7265 78.6771 34.5782 78.6831ZM27.3718 60.3844C27.2629 60.3772 27.1536 60.3772 27.0446 60.3844C26.2401 60.5221 25.5924 61.1746 25.122 62.3346C23.8574 65.2663 23.6323 68.5853 24.4879 71.6797C25.0129 73.2892 31.9874 77.5811 34.8304 77.1896C35.5122 77.0954 35.594 76.7764 35.6145 76.4646C35.8804 72.5352 33.1601 65.2853 30.8421 62.5376C29.7035 61.1746 28.4286 60.3844 27.3718 60.3844Z" fill="#093F68"/>
<path d="M83.6248 76.5734C83.3385 72.3395 86.2224 64.8938 88.5472 62.1171C90.8721 59.3404 93.9332 58.4922 95.4195 62.1171C96.7674 65.206 97.0098 68.7116 96.1013 71.977C95.2354 74.5289 83.918 80.7711 83.6248 76.5734Z" fill="white"/>
<path d="M85.3362 78.6831C85.1862 78.6831 85.0431 78.6831 84.9067 78.6831C84.3947 78.6619 83.9088 78.4371 83.5452 78.0531C83.1815 77.6691 82.9667 77.154 82.9432 76.6097C82.65 72.2597 85.5476 64.5966 88.036 61.6169C89.6518 59.6884 91.4994 58.7169 93.088 59.0069C93.9743 59.1519 95.2083 59.7319 96.0469 61.8126C97.4474 65.0742 97.6896 68.7649 96.7286 72.2017C95.8492 74.8624 88.5133 78.6831 85.3362 78.6831ZM92.5426 60.3844C91.4926 60.3844 90.2177 61.1746 89.0587 62.5594C86.7611 65.3071 84.0408 72.557 84.2863 76.4864C84.2863 76.8054 84.3817 77.1244 85.0635 77.2114C87.9406 77.6102 94.881 73.311 95.406 71.7015C96.2777 68.6164 96.0719 65.3002 94.8265 62.3636C94.3493 61.2036 93.7016 60.5512 92.8971 60.4134C92.7797 60.3946 92.6612 60.3849 92.5426 60.3844Z" fill="#093F68"/>
<path d="M46.2158 87.5788H73.6912C75.6115 87.5788 77.4531 88.3899 78.811 89.8339C80.1688 91.2778 80.9316 93.2361 80.9316 95.2782V96.3439H38.9754V95.2782C38.9754 93.2361 39.7382 91.2778 41.096 89.8339C42.4539 88.3899 44.2955 87.5788 46.2158 87.5788Z" fill="#093F68"/>
<path d="M80.9388 97.0689H38.9757C38.7949 97.0689 38.6214 96.9925 38.4936 96.8565C38.3657 96.7206 38.2939 96.5362 38.2939 96.3439V95.2781C38.2957 93.0444 39.1309 90.9028 40.6163 89.3233C42.1016 87.7439 44.1156 86.8557 46.2161 86.8538H73.6915C75.7909 86.8576 77.8031 87.7466 79.287 89.3259C80.7708 90.9051 81.6051 93.0457 81.6069 95.2781V96.3439C81.607 96.5337 81.537 96.7159 81.4121 96.8515C81.2872 96.987 81.1172 97.0651 80.9388 97.0689ZM39.6574 95.6189H80.257V95.2781C80.257 93.4297 79.5669 91.6568 78.3384 90.3491C77.1099 89.0413 75.4435 88.3057 73.7052 88.3037H46.2161C44.4772 88.3057 42.81 89.0411 41.5804 90.3486C40.3508 91.6561 39.6593 93.429 39.6574 95.2781V95.6189Z" fill="#093F68"/>
<path d="M63.0693 62.4941L53.8994 73.8185L58.4809 74.3405L55.0448 83.4028L66.0213 71.0345L59.9604 70.3385L63.0693 62.4941Z" fill="#70CC40"/>
<path d="M55.045 84.1278C54.9144 84.1274 54.7866 84.0871 54.6768 84.0118C54.5422 83.9207 54.4418 83.7824 54.3932 83.6207C54.3447 83.4591 54.3509 83.2845 54.4109 83.1273L57.513 74.9639L53.8246 74.5434C53.7007 74.5295 53.5827 74.4797 53.4835 74.3994C53.3843 74.3191 53.3077 74.2115 53.262 74.0882C53.2163 73.9648 53.2033 73.8306 53.2243 73.6999C53.2454 73.5693 53.2998 73.4473 53.3815 73.3472L62.5581 62.0228C62.6652 61.9057 62.8063 61.8305 62.9586 61.8094C63.1109 61.7882 63.2654 61.8223 63.3972 61.9062C63.529 61.9901 63.6302 62.1189 63.6846 62.2716C63.7389 62.4244 63.7432 62.5922 63.6967 62.7478L60.9696 69.6932L66.117 70.2805C66.2444 70.2939 66.3657 70.3452 66.467 70.4286C66.5683 70.5119 66.6455 70.6239 66.6897 70.7517C66.7284 70.8757 66.7349 71.0086 66.7085 71.1362C66.6821 71.2638 66.6238 71.3815 66.5397 71.4767L55.5427 83.8958C55.4791 83.9687 55.4021 84.0269 55.3165 84.0668C55.2309 84.1067 55.1385 84.1275 55.045 84.1278ZM55.2632 73.2529L58.5561 73.6299C58.6608 73.642 58.7615 73.6797 58.8502 73.7401C58.9389 73.8004 59.0133 73.8819 59.0675 73.9779C59.1219 74.0742 59.1545 74.1826 59.1628 74.2946C59.1711 74.4065 59.1548 74.519 59.1152 74.6232L57.0289 80.1113L64.583 71.6L59.8856 71.0635C59.7802 71.0506 59.6792 71.0118 59.5904 70.9501C59.5016 70.8885 59.4276 70.8056 59.3742 70.7082C59.3177 70.6127 59.2844 70.5037 59.2772 70.3911C59.2701 70.2785 59.2894 70.1657 59.3333 70.063L60.7582 66.4743L55.2632 73.2529Z" fill="#093F68"/>
<path d="M59.8649 25.8096L50.1973 25.8096V0.710492L59.8785 0.710492C63.0066 0.710492 66.0067 2.03191 68.2186 4.38405C70.4305 6.7362 71.6732 9.92638 71.6732 13.2528C71.6732 16.5792 70.4305 19.7694 68.2186 22.1216C66.0067 24.4737 63.0066 25.7951 59.8785 25.7951L59.8649 25.8096Z" fill="#FFBA7C"/>
<path d="M59.8652 26.5491H50.184C50.0032 26.5491 49.8298 26.4727 49.7019 26.3368C49.5741 26.2008 49.5022 26.0164 49.5022 25.8241V0.72499C49.5022 0.53271 49.5741 0.348306 49.7019 0.212344C49.8298 0.0763821 50.0032 0 50.184 0H59.8652C63.1741 0 66.3476 1.3978 68.6874 3.8859C71.0271 6.37401 72.3416 9.7486 72.3416 13.2673C72.3416 16.786 71.0271 20.1606 68.6874 22.6487C66.3476 25.1368 63.1741 26.5346 59.8652 26.5346V26.5491ZM50.8658 25.0991H59.8652C62.8125 25.0991 65.6391 23.8541 67.7232 21.6379C69.8073 19.4217 70.9781 16.416 70.9781 13.2818C70.9781 10.1477 69.8073 7.14187 67.7232 4.92569C65.6391 2.70952 62.8125 1.46448 59.8652 1.46448H50.8658V25.0991Z" fill="#093F68"/>
<path d="M50.1705 21.0755H41.5461C41.0633 21.0755 40.6003 20.8715 40.2589 20.5085C39.9175 20.1455 39.7257 19.6531 39.7257 19.1397C39.7257 18.6264 39.9175 18.134 40.2589 17.771C40.6003 17.408 41.0633 17.204 41.5461 17.204H50.1705V21.0755Z" fill="#FFBA7C"/>
<path d="M50.1704 21.7932H41.5392C40.8756 21.7932 40.2391 21.5129 39.7699 21.0139C39.3007 20.5149 39.037 19.8381 39.037 19.1325C39.037 18.4268 39.3007 17.75 39.7699 17.2511C40.2391 16.7521 40.8756 16.4718 41.5392 16.4718H50.1704C50.3512 16.4718 50.5246 16.5481 50.6525 16.6841C50.7803 16.8201 50.8522 17.0045 50.8522 17.1967V21.0682C50.8522 21.2605 50.7803 21.4449 50.6525 21.5808C50.5246 21.7168 50.3512 21.7932 50.1704 21.7932ZM41.5392 17.9217C41.2372 17.9217 40.9476 18.0493 40.7341 18.2764C40.5206 18.5034 40.4006 18.8114 40.4006 19.1325C40.4006 19.4536 40.5206 19.7615 40.7341 19.9886C40.9476 20.2156 41.2372 20.3432 41.5392 20.3432H49.4886V17.9217H41.5392Z" fill="#093F68"/>
<path d="M50.1705 9.33788L41.5461 9.33788C41.0633 9.33788 40.6003 9.13393 40.2589 8.77092C39.9175 8.4079 39.7257 7.91554 39.7257 7.40216C39.7257 6.88877 39.9175 6.39641 40.2589 6.03339C40.6003 5.67037 41.0633 5.46643 41.5461 5.46643L50.1705 5.46643V9.33788Z" fill="#FFBA7C"/>
<path d="M50.1704 10.0629H41.5392C40.8756 10.0629 40.2391 9.78252 39.7699 9.28354C39.3007 8.78456 39.037 8.1078 39.037 7.40213C39.037 6.69647 39.3007 6.01971 39.7699 5.52073C40.2391 5.02175 40.8756 4.74142 41.5392 4.74142H50.1704C50.3512 4.74142 50.5246 4.81781 50.6525 4.95377C50.7803 5.08973 50.8522 5.27413 50.8522 5.46641V9.33786C50.8522 9.53014 50.7803 9.71454 50.6525 9.85051C50.5246 9.98647 50.3512 10.0629 50.1704 10.0629ZM41.5392 6.1914C41.2372 6.1914 40.9476 6.31896 40.7341 6.54602C40.5206 6.77308 40.4006 7.08103 40.4006 7.40213C40.4006 7.72324 40.5206 8.0312 40.7341 8.25825C40.9476 8.48531 41.2372 8.61287 41.5392 8.61287H49.4886V6.1914H41.5392Z" fill="#093F68"/>
</svg>
